G04*
G04 #@! TF.GenerationSoftware,Altium Limited,Altium Designer,21.3.2 (30)*
G04*
G04 Layer_Color=16711935*
%FSLAX25Y25*%
%MOIN*%
G70*
G04*
G04 #@! TF.SameCoordinates,B89B57CD-9D52-4E16-9C0F-ECFA6D911EF0*
G04*
G04*
G04 #@! TF.FilePolarity,Positive*
G04*
G01*
G75*
%ADD72C,0.00394*%
%ADD73C,0.00200*%
D72*
X67299Y36299D02*
G03*
X67299Y36299I-1969J0D01*
G01*
X68874Y20157D02*
Y39843D01*
X53126Y20157D02*
Y39843D01*
X68874D01*
X53126Y20157D02*
X68874D01*
X44957Y4898D02*
X52043D01*
X44957Y17102D02*
X52043D01*
Y4898D02*
Y17102D01*
X44957Y4898D02*
Y17102D01*
D73*
X135400Y-21500D02*
X136600D01*
X136000Y-22100D02*
Y-20900D01*
X134031Y-20516D02*
X137969D01*
X134031Y-22484D02*
X137969D01*
X134031Y-22484D02*
Y-20516D01*
X137969Y-22484D02*
Y-20516D01*
X60000Y11400D02*
Y12600D01*
X59400Y12000D02*
X60600D01*
X60984Y10031D02*
Y13969D01*
X59016Y10031D02*
Y13969D01*
X59016D02*
X60984D01*
X59016Y10031D02*
X60984D01*
X24000Y19600D02*
Y29600D01*
Y19600D02*
X44000D01*
Y29600D01*
X24000D02*
X44000D01*
X58969Y27116D02*
Y29084D01*
X55032Y27116D02*
Y29084D01*
Y27116D02*
X58969D01*
X55032Y29084D02*
X58969D01*
X57000Y27500D02*
Y28700D01*
X56400Y28100D02*
X57600D01*
X74000Y31000D02*
X194000D01*
X74000D02*
Y41000D01*
X194000D01*
Y31000D02*
Y41000D01*
X121900Y-17500D02*
X123100D01*
X122500Y-18100D02*
Y-16900D01*
X120531Y-18484D02*
X124469D01*
X120531Y-16516D02*
X124469D01*
Y-18484D02*
Y-16516D01*
X120531Y-18484D02*
Y-16516D01*
X121900Y-21500D02*
X123100D01*
X122500Y-22100D02*
Y-20900D01*
X120531Y-20516D02*
X124469D01*
X120531Y-22484D02*
X124469D01*
X120531Y-22484D02*
Y-20516D01*
X124469Y-22484D02*
Y-20516D01*
X63468Y4016D02*
Y5984D01*
X59531Y4016D02*
Y5984D01*
Y4016D02*
X63468D01*
X59531Y5984D02*
X63468D01*
X61500Y4400D02*
Y5600D01*
X60900Y5000D02*
X62100D01*
X63516Y10031D02*
X65484D01*
X63516Y13969D02*
X65484D01*
X63516Y10031D02*
Y13969D01*
X65484Y10031D02*
Y13969D01*
X63900Y12000D02*
X65100D01*
X64500Y11400D02*
Y12600D01*
X36016Y-8032D02*
X37984D01*
X36016Y-11969D02*
X37984D01*
X37984D02*
Y-8032D01*
X36016Y-11969D02*
Y-8032D01*
X36400Y-10000D02*
X37600D01*
X37000Y-10600D02*
Y-9400D01*
X128016Y-21969D02*
X129984D01*
X128016Y-18032D02*
X129984D01*
X128016Y-21969D02*
Y-18032D01*
X129984Y-21969D02*
Y-18032D01*
X128400Y-20000D02*
X129600D01*
X129000Y-20600D02*
Y-19400D01*
X65016Y-9031D02*
X66984D01*
X65016Y-12968D02*
X66984D01*
X66984D02*
Y-9031D01*
X65016Y-12968D02*
Y-9031D01*
X65400Y-11000D02*
X66600D01*
X66000Y-11600D02*
Y-10400D01*
X135400Y-17000D02*
X136600D01*
X136000Y-17600D02*
Y-16400D01*
X134031Y-17984D02*
X137969D01*
X134031Y-16016D02*
X137969D01*
Y-17984D02*
Y-16016D01*
X134031Y-17984D02*
Y-16016D01*
X156769Y14405D02*
Y16374D01*
X152831Y14405D02*
Y16374D01*
Y14405D02*
X156769D01*
X152831Y16374D02*
X156769D01*
X154800Y14789D02*
Y15989D01*
X154200Y15389D02*
X155400D01*
X111000Y16900D02*
Y18100D01*
X110400Y17500D02*
X111600D01*
X111984Y15531D02*
Y19468D01*
X110016Y15531D02*
Y19468D01*
X110016D02*
X111984D01*
X110016Y15531D02*
X111984D01*
X154200Y11889D02*
X155400D01*
X154800Y11289D02*
Y12489D01*
X152831Y12874D02*
X156769D01*
X152831Y10905D02*
X156769D01*
X152831Y10905D02*
Y12874D01*
X156769Y10905D02*
Y12874D01*
X111000Y9400D02*
Y10600D01*
X110400Y10000D02*
X111600D01*
X110016Y8032D02*
Y11969D01*
X111984Y8032D02*
Y11969D01*
X110016Y8032D02*
X111984D01*
X110016Y11969D02*
X111984D01*
X138600Y15600D02*
Y16800D01*
X138000Y16200D02*
X139200D01*
X137616Y14232D02*
Y18169D01*
X139584Y14232D02*
Y18169D01*
X137616Y14232D02*
X139584D01*
X137616Y18169D02*
X139584D01*
X37532Y-3484D02*
Y-1516D01*
X41469Y-3484D02*
Y-1516D01*
X37532Y-1516D02*
X41469D01*
X37532Y-3484D02*
X41469D01*
X39500Y-3100D02*
Y-1900D01*
X38900Y-2500D02*
X40100D01*
X37532Y516D02*
Y2484D01*
X41469Y516D02*
Y2484D01*
X37532Y2484D02*
X41469D01*
X37532Y516D02*
X41469D01*
X39500Y900D02*
Y2100D01*
X38900Y1500D02*
X40100D01*
X111000Y1900D02*
Y3100D01*
X110400Y2500D02*
X111600D01*
X110016Y532D02*
Y4468D01*
X111984Y532D02*
Y4468D01*
X110016Y532D02*
X111984D01*
X110016Y4468D02*
X111984D01*
X75900Y8000D02*
X77100D01*
X76500Y7400D02*
Y8600D01*
X74532Y7016D02*
X78469D01*
X74532Y8984D02*
X78469D01*
Y7016D02*
Y8984D01*
X74532Y7016D02*
Y8984D01*
X55032Y19416D02*
Y21384D01*
X58969Y19416D02*
Y21384D01*
X55032Y21384D02*
X58969D01*
X55032Y19416D02*
X58969D01*
X57000Y19800D02*
Y21000D01*
X56400Y20400D02*
X57600D01*
X47032Y19416D02*
Y21384D01*
X50968Y19416D02*
Y21384D01*
X47032Y21384D02*
X50968D01*
X47032Y19416D02*
X50968D01*
X49000Y19800D02*
Y21000D01*
X48400Y20400D02*
X49600D01*
X55032Y23416D02*
Y25384D01*
X58969Y23416D02*
Y25384D01*
X55032Y25384D02*
X58969D01*
X55032Y23416D02*
X58969D01*
X57000Y23800D02*
Y25000D01*
X56400Y24400D02*
X57600D01*
X47032Y23416D02*
Y25384D01*
X50968Y23416D02*
Y25384D01*
X47032Y25384D02*
X50968D01*
X47032Y23416D02*
X50968D01*
X49000Y23800D02*
Y25000D01*
X48400Y24400D02*
X49600D01*
X78469Y-10484D02*
Y-8516D01*
X74532Y-10484D02*
Y-8516D01*
Y-10484D02*
X78469D01*
X74532Y-8516D02*
X78469D01*
X76500Y-10100D02*
Y-8900D01*
X75900Y-9500D02*
X77100D01*
X78469Y-13984D02*
Y-12016D01*
X74532Y-13984D02*
Y-12016D01*
Y-13984D02*
X78469D01*
X74532Y-12016D02*
X78469D01*
X76500Y-13600D02*
Y-12400D01*
X75900Y-13000D02*
X77100D01*
X78469Y-6984D02*
Y-5016D01*
X74532Y-6984D02*
Y-5016D01*
Y-6984D02*
X78469D01*
X74532Y-5016D02*
X78469D01*
X76500Y-6600D02*
Y-5400D01*
X75900Y-6000D02*
X77100D01*
X66843Y29110D02*
Y43100D01*
X47157D02*
X66843D01*
X47157Y29110D02*
Y43100D01*
Y29110D02*
X66843D01*
X62016Y24468D02*
X63984D01*
X62016Y20531D02*
X63984D01*
X63984D02*
Y24468D01*
X62016Y20531D02*
Y24468D01*
X62400Y22500D02*
X63600D01*
X63000Y21900D02*
Y23100D01*
X78469Y16D02*
Y1984D01*
X74532Y16D02*
Y1984D01*
Y16D02*
X78469D01*
X74532Y1984D02*
X78469D01*
X76500Y400D02*
Y1600D01*
X75900Y1000D02*
X77100D01*
X78469Y3516D02*
Y5484D01*
X74532Y3516D02*
Y5484D01*
Y3516D02*
X78469D01*
X74532Y5484D02*
X78469D01*
X76500Y3900D02*
Y5100D01*
X75900Y4500D02*
X77100D01*
X75900Y-2500D02*
X77100D01*
X76500Y-3100D02*
Y-1900D01*
X74532Y-3484D02*
X78469D01*
X74532Y-1516D02*
X78469D01*
Y-3484D02*
Y-1516D01*
X74532Y-3484D02*
Y-1516D01*
X40843Y29110D02*
Y43100D01*
X21158D02*
X40843D01*
X21158Y29110D02*
Y43100D01*
Y29110D02*
X40843D01*
X75900Y12000D02*
X77100D01*
X76500Y11400D02*
Y12600D01*
X74532Y11016D02*
X78469D01*
X74532Y12984D02*
X78469D01*
Y11016D02*
Y12984D01*
X74532Y11016D02*
Y12984D01*
X14000Y-31000D02*
X194000D01*
X14000Y-41000D02*
X194000D01*
Y-31000D01*
X14000Y-41000D02*
Y-31000D01*
M02*
