G04*
G04 #@! TF.GenerationSoftware,Altium Limited,Altium Designer,21.2.1 (34)*
G04*
G04 Layer_Color=16711935*
%FSLAX25Y25*%
%MOIN*%
G70*
G04*
G04 #@! TF.SameCoordinates,24BC1A3A-2B15-4BCB-8D07-746B5B0C7B57*
G04*
G04*
G04 #@! TF.FilePolarity,Negative*
G04*
G01*
G75*
%ADD36R,0.22500X0.42500*%
%ADD56C,0.05600*%
%ADD57C,0.12411*%
%ADD58O,0.08868X0.04537*%
%ADD59O,0.06899X0.04537*%
%ADD60C,0.03159*%
%ADD72R,0.02568X0.02568*%
%ADD73O,0.05718X0.02568*%
D36*
X200250Y-250D02*
D03*
D56*
X39000Y24600D02*
D03*
X29000D02*
D03*
X109000Y36000D02*
D03*
X99000D02*
D03*
X159000D02*
D03*
X149000D02*
D03*
X169000D02*
D03*
X189000D02*
D03*
X179000D02*
D03*
X139000D02*
D03*
X119000D02*
D03*
X129000D02*
D03*
X79000D02*
D03*
X89000D02*
D03*
X69000Y-36000D02*
D03*
X109000D02*
D03*
X99000D02*
D03*
X159000D02*
D03*
X149000D02*
D03*
X169000D02*
D03*
X189000D02*
D03*
X179000D02*
D03*
X139000D02*
D03*
X119000D02*
D03*
X129000D02*
D03*
X79000D02*
D03*
X89000D02*
D03*
X59000D02*
D03*
X49000D02*
D03*
X29000D02*
D03*
X39000D02*
D03*
X19000D02*
D03*
D57*
X7500Y35500D02*
D03*
Y-35500D02*
D03*
X200500D02*
D03*
Y35500D02*
D03*
D58*
X26327Y17028D02*
D03*
Y-17028D02*
D03*
D59*
X10579Y17028D02*
D03*
Y-17028D02*
D03*
D60*
X24358Y-11378D02*
D03*
Y11378D02*
D03*
D72*
X79300Y23000D02*
D03*
X82700D02*
D03*
X79300Y28000D02*
D03*
X82700D02*
D03*
X43200Y37500D02*
D03*
X39800D02*
D03*
X153800Y15500D02*
D03*
X157200D02*
D03*
X153800Y20000D02*
D03*
X157200D02*
D03*
X138800Y15500D02*
D03*
X142200D02*
D03*
X138800Y20000D02*
D03*
X142200D02*
D03*
D73*
X71433Y37500D02*
D03*
Y32500D02*
D03*
Y27500D02*
D03*
Y22500D02*
D03*
X50567Y37500D02*
D03*
Y32500D02*
D03*
Y27500D02*
D03*
Y22500D02*
D03*
M02*
