G04*
G04 #@! TF.GenerationSoftware,Altium Limited,Altium Designer,21.3.2 (30)*
G04*
G04 Layer_Color=32768*
%FSLAX25Y25*%
%MOIN*%
G70*
G04*
G04 #@! TF.SameCoordinates,B89B57CD-9D52-4E16-9C0F-ECFA6D911EF0*
G04*
G04*
G04 #@! TF.FilePolarity,Positive*
G04*
G01*
G75*
%ADD72C,0.00394*%
D72*
X113386Y23614D02*
X136614D01*
X113386Y386D02*
X136614D01*
Y23614D01*
X113386Y386D02*
Y23614D01*
X125000Y10031D02*
Y13969D01*
X123031Y12000D02*
X126969D01*
X77700Y21200D02*
Y24800D01*
X84300D01*
X77700Y21200D02*
X84300D01*
Y24800D01*
X77700Y26200D02*
Y29800D01*
X84300D01*
X77700Y26200D02*
X84300D01*
Y29800D01*
X44800Y35700D02*
Y39300D01*
X38200Y35700D02*
X44800D01*
X38200Y39300D02*
X44800D01*
X38200Y35700D02*
Y39300D01*
X77535Y18976D02*
Y42500D01*
X44465Y18976D02*
Y42500D01*
X77535D01*
X44465Y18976D02*
X77535D01*
X59031Y30000D02*
X62968D01*
X61000Y28032D02*
Y31969D01*
X122500Y-15000D02*
Y-1000D01*
X135500Y-15000D02*
Y-1000D01*
X122500Y-15000D02*
X135500D01*
X122500Y-1000D02*
X135500D01*
X129000Y-9000D02*
Y-7000D01*
X128000Y-8000D02*
X130000D01*
X109000Y-15000D02*
Y-1000D01*
X122000Y-15000D02*
Y-1000D01*
X109000Y-15000D02*
X122000D01*
X109000Y-1000D02*
X122000D01*
X115500Y-9000D02*
Y-7000D01*
X114500Y-8000D02*
X116500D01*
X152200Y13700D02*
Y17300D01*
X158800D01*
X152200Y13700D02*
X158800D01*
Y17300D01*
X152200Y18200D02*
Y21800D01*
X158800D01*
X152200Y18200D02*
X158800D01*
Y21800D01*
X137200Y13700D02*
Y17300D01*
X143800D01*
X137200Y13700D02*
X143800D01*
Y17300D01*
X137200Y18200D02*
Y21800D01*
X143800D01*
X137200Y18200D02*
X143800D01*
Y21800D01*
X48500Y9031D02*
Y12968D01*
X46532Y11000D02*
X50468D01*
X39500Y3913D02*
X57500D01*
X39500Y18087D02*
X57500D01*
Y3913D02*
Y18087D01*
X39500Y3913D02*
Y18087D01*
M02*
