G04*
G04 #@! TF.GenerationSoftware,Altium Limited,Altium Designer,21.3.2 (30)*
G04*
G04 Layer_Physical_Order=2*
G04 Layer_Color=6736896*
%FSLAX25Y25*%
%MOIN*%
G70*
G04*
G04 #@! TF.SameCoordinates,B89B57CD-9D52-4E16-9C0F-ECFA6D911EF0*
G04*
G04*
G04 #@! TF.FilePolarity,Positive*
G04*
G01*
G75*
%ADD15C,0.00600*%
%ADD57C,0.01500*%
%ADD58C,0.00700*%
%ADD60C,0.05000*%
%ADD61C,0.11811*%
%ADD62O,0.08268X0.03937*%
%ADD63O,0.06299X0.03937*%
%ADD64C,0.02559*%
%ADD65C,0.02000*%
%ADD66R,0.01968X0.01968*%
%ADD67O,0.05118X0.01968*%
G36*
X40102Y38900D02*
X40109Y38810D01*
X40121Y38731D01*
X40136Y38662D01*
X40157Y38604D01*
X40182Y38557D01*
X40212Y38520D01*
X40246Y38493D01*
X40284Y38478D01*
X40328Y38472D01*
X39272D01*
X39316Y38478D01*
X39354Y38493D01*
X39388Y38520D01*
X39418Y38557D01*
X39443Y38604D01*
X39464Y38662D01*
X39480Y38731D01*
X39491Y38810D01*
X39498Y38900D01*
X39500Y39000D01*
X40100D01*
X40102Y38900D01*
D02*
G37*
G36*
X44128Y37331D02*
X44112Y37276D01*
X44113Y37213D01*
X44131Y37142D01*
X44166Y37061D01*
X44218Y36972D01*
X44287Y36874D01*
X44374Y36767D01*
X44596Y36528D01*
X44172Y36103D01*
X44048Y36224D01*
X43826Y36413D01*
X43728Y36482D01*
X43639Y36534D01*
X43558Y36569D01*
X43487Y36587D01*
X43424Y36588D01*
X43369Y36573D01*
X43324Y36540D01*
X44160Y37376D01*
X44128Y37331D01*
D02*
G37*
G36*
X73151Y36558D02*
X73093Y36542D01*
X73053Y36516D01*
X73031Y36482D01*
X73027Y36439D01*
X73040Y36386D01*
X73072Y36325D01*
X73121Y36254D01*
X73188Y36174D01*
X73273Y36084D01*
X72424D01*
X72335Y36169D01*
X72160Y36311D01*
X72074Y36369D01*
X71989Y36417D01*
X71904Y36456D01*
X71821Y36486D01*
X71738Y36507D01*
X71657Y36518D01*
X71576Y36521D01*
X73227Y36564D01*
X73151Y36558D01*
D02*
G37*
G36*
X86521Y38924D02*
X86675Y38831D01*
X86859Y38750D01*
X87072Y38680D01*
X87315Y38622D01*
X87588Y38575D01*
X87890Y38539D01*
X88584Y38502D01*
X88975Y38500D01*
X86500Y36025D01*
X86498Y36416D01*
X86425Y37412D01*
X86378Y37685D01*
X86320Y37928D01*
X86250Y38141D01*
X86169Y38325D01*
X86076Y38479D01*
X85972Y38603D01*
X86396Y39028D01*
X86521Y38924D01*
D02*
G37*
G36*
X121502Y35584D02*
X121575Y34588D01*
X121622Y34315D01*
X121680Y34072D01*
X121750Y33859D01*
X121831Y33675D01*
X121924Y33521D01*
X122028Y33397D01*
X121604Y32972D01*
X121479Y33076D01*
X121325Y33169D01*
X121141Y33250D01*
X120928Y33320D01*
X120685Y33378D01*
X120412Y33425D01*
X120110Y33461D01*
X119416Y33498D01*
X119025Y33500D01*
X121500Y35975D01*
X121502Y35584D01*
D02*
G37*
G36*
X81505Y35701D02*
X81526Y35439D01*
X81564Y35190D01*
X81618Y34952D01*
X81687Y34727D01*
X81773Y34514D01*
X81875Y34313D01*
X81993Y34124D01*
X82127Y33948D01*
X82277Y33783D01*
X81217Y32723D01*
X81052Y32873D01*
X80876Y33007D01*
X80687Y33125D01*
X80486Y33227D01*
X80273Y33313D01*
X80048Y33382D01*
X79810Y33436D01*
X79561Y33474D01*
X79299Y33495D01*
X79025Y33500D01*
X81500Y35975D01*
X81505Y35701D01*
D02*
G37*
G36*
X110475Y33937D02*
X109822Y33181D01*
X109662Y32955D01*
X109532Y32742D01*
X109431Y32541D01*
X109358Y32354D01*
X109315Y32180D01*
X109300Y32018D01*
X108700D01*
X108686Y32180D01*
X108642Y32354D01*
X108570Y32541D01*
X108468Y32742D01*
X108337Y32955D01*
X108178Y33181D01*
X107990Y33420D01*
X107526Y33937D01*
X107250Y34215D01*
X110750D01*
X110475Y33937D01*
D02*
G37*
G36*
X100475D02*
X99822Y33181D01*
X99663Y32955D01*
X99532Y32742D01*
X99431Y32541D01*
X99358Y32354D01*
X99314Y32180D01*
X99300Y32018D01*
X98700D01*
X98685Y32180D01*
X98642Y32354D01*
X98570Y32541D01*
X98468Y32742D01*
X98338Y32955D01*
X98178Y33181D01*
X97989Y33420D01*
X97526Y33937D01*
X97250Y34215D01*
X100750D01*
X100475Y33937D01*
D02*
G37*
G36*
X47822Y33307D02*
X47998Y33164D01*
X48073Y33119D01*
X48139Y33091D01*
X48195Y33080D01*
X48233Y33086D01*
X48234Y33093D01*
Y33086D01*
X48243Y33088D01*
X48282Y33112D01*
X48311Y33154D01*
X48332Y33214D01*
X48234Y32794D01*
Y31907D01*
X48226Y31962D01*
X48203Y32012D01*
X48164Y32056D01*
X48110Y32094D01*
X48040Y32127D01*
X47955Y32153D01*
X47855Y32174D01*
X47739Y32188D01*
X47607Y32197D01*
X47460Y32200D01*
Y32800D01*
X47475Y32800D01*
X47398Y32878D01*
X47720Y33405D01*
X47822Y33307D01*
D02*
G37*
G36*
X60411Y30587D02*
X60345Y30516D01*
X60286Y30442D01*
X60235Y30367D01*
X60192Y30289D01*
X60157Y30210D01*
X60129Y30128D01*
X60110Y30044D01*
X60098Y29958D01*
X60093Y29870D01*
X60097Y29780D01*
X59180Y30697D01*
X59270Y30693D01*
X59358Y30698D01*
X59444Y30710D01*
X59528Y30729D01*
X59610Y30757D01*
X59689Y30792D01*
X59767Y30835D01*
X59842Y30886D01*
X59916Y30945D01*
X59987Y31011D01*
X60411Y30587D01*
D02*
G37*
G36*
X79603Y29456D02*
X79612Y29352D01*
X79627Y29260D01*
X79648Y29181D01*
X79675Y29113D01*
X79708Y29058D01*
X79747Y29015D01*
X79792Y28985D01*
X79843Y28966D01*
X79900Y28960D01*
X78700D01*
X78757Y28966D01*
X78808Y28985D01*
X78853Y29015D01*
X78892Y29058D01*
X78925Y29113D01*
X78952Y29181D01*
X78973Y29260D01*
X78988Y29352D01*
X78997Y29456D01*
X79000Y29572D01*
X79600D01*
X79603Y29456D01*
D02*
G37*
G36*
X66181Y41378D02*
X63651Y38849D01*
X63452Y38551D01*
X63382Y38200D01*
Y24200D01*
X63452Y23849D01*
X63651Y23551D01*
X64885Y22318D01*
X64910Y22249D01*
X64950Y22205D01*
X64968Y22181D01*
X64984Y22155D01*
X64999Y22126D01*
X65013Y22092D01*
X65025Y22051D01*
X65036Y22004D01*
X65044Y21950D01*
X65049Y21887D01*
X65051Y21798D01*
X65100Y21685D01*
Y21482D01*
X65344Y20894D01*
X65794Y20444D01*
X66382Y20200D01*
X67018D01*
X67606Y20444D01*
X68056Y20894D01*
X68197Y21234D01*
X68605Y21331D01*
X68762Y21327D01*
X69240Y21008D01*
X69858Y20885D01*
X73008D01*
X73626Y21008D01*
X74150Y21358D01*
X74204Y21439D01*
X74225Y21448D01*
X74251Y21509D01*
X74267Y21533D01*
X74430Y21548D01*
X74552Y21551D01*
X74625Y21582D01*
X77637D01*
X77707Y21551D01*
X77716Y21551D01*
Y21416D01*
X78233D01*
X78320Y21378D01*
X78381Y21403D01*
X78445Y21389D01*
X78486Y21416D01*
X80616D01*
X80884Y21416D01*
X81384Y21416D01*
X84284D01*
Y22051D01*
X84289Y22051D01*
X84360Y22082D01*
X94020D01*
X96282Y19820D01*
Y16900D01*
X96352Y16549D01*
X96551Y16251D01*
X106404Y6399D01*
Y338D01*
X106372Y269D01*
X106369Y175D01*
X106362Y109D01*
X106350Y49D01*
X106334Y-8D01*
X106315Y-62D01*
X106291Y-114D01*
X106262Y-165D01*
X106227Y-216D01*
X106186Y-268D01*
X106122Y-336D01*
X106095Y-407D01*
X80520Y-25982D01*
X48100D01*
X47749Y-26052D01*
X47451Y-26251D01*
X41247Y-32455D01*
X41187Y-32473D01*
X41101Y-32545D01*
X41025Y-32591D01*
X40908Y-32642D01*
X40751Y-32694D01*
X40553Y-32742D01*
X40333Y-32780D01*
X39391Y-32849D01*
X39022Y-32850D01*
X38905Y-32900D01*
X38592D01*
X37803Y-33111D01*
X37097Y-33519D01*
X36519Y-34096D01*
X36111Y-34803D01*
X35900Y-35592D01*
Y-36408D01*
X36111Y-37196D01*
X36519Y-37903D01*
X37097Y-38480D01*
X37803Y-38888D01*
X38592Y-39100D01*
X39408D01*
X40197Y-38888D01*
X40903Y-38480D01*
X41481Y-37903D01*
X41889Y-37196D01*
X42100Y-36408D01*
Y-36095D01*
X42149Y-35977D01*
X42151Y-35602D01*
X42186Y-34945D01*
X42217Y-34681D01*
X42258Y-34446D01*
X42305Y-34249D01*
X42357Y-34091D01*
X42409Y-33974D01*
X42455Y-33898D01*
X42526Y-33812D01*
X42545Y-33752D01*
X48480Y-27818D01*
X80575D01*
X80782Y-28318D01*
X78351Y-30748D01*
X78152Y-31046D01*
X78082Y-31397D01*
Y-31904D01*
X78053Y-31960D01*
X78043Y-32071D01*
X78022Y-32157D01*
X77975Y-32276D01*
X77900Y-32425D01*
X77795Y-32597D01*
X77666Y-32780D01*
X77049Y-33495D01*
X76789Y-33757D01*
X76740Y-33875D01*
X76519Y-34096D01*
X76111Y-34803D01*
X75918Y-35526D01*
X75418Y-35460D01*
Y-33203D01*
X75348Y-32852D01*
X75149Y-32554D01*
X72546Y-29951D01*
X72248Y-29752D01*
X71897Y-29682D01*
X65300D01*
X64949Y-29752D01*
X64651Y-29951D01*
X61741Y-32862D01*
X61724Y-32864D01*
X61689Y-32910D01*
X61633Y-32928D01*
X61535Y-33010D01*
X61464Y-33052D01*
X61369Y-33089D01*
X61244Y-33119D01*
X61086Y-33139D01*
X60896Y-33143D01*
X60684Y-33129D01*
X60132Y-33037D01*
X59818Y-32958D01*
X59696Y-32977D01*
X59408Y-32900D01*
X58592D01*
X57803Y-33111D01*
X57097Y-33519D01*
X56519Y-34096D01*
X56111Y-34803D01*
X55900Y-35592D01*
Y-36408D01*
X56111Y-37196D01*
X56519Y-37903D01*
X57097Y-38480D01*
X57803Y-38888D01*
X57715Y-39382D01*
X53680D01*
X52545Y-38247D01*
X52526Y-38187D01*
X52455Y-38101D01*
X52409Y-38025D01*
X52357Y-37908D01*
X52306Y-37750D01*
X52258Y-37553D01*
X52220Y-37332D01*
X52151Y-36391D01*
X52149Y-36022D01*
X52100Y-35904D01*
Y-35592D01*
X51889Y-34803D01*
X51481Y-34096D01*
X50903Y-33519D01*
X50197Y-33111D01*
X49408Y-32900D01*
X48592D01*
X47803Y-33111D01*
X47097Y-33519D01*
X46519Y-34096D01*
X46111Y-34803D01*
X45900Y-35592D01*
Y-36408D01*
X46111Y-37196D01*
X46519Y-37903D01*
X47097Y-38480D01*
X47803Y-38888D01*
X48592Y-39100D01*
X48905D01*
X49022Y-39149D01*
X49397Y-39151D01*
X50054Y-39186D01*
X50319Y-39217D01*
X50553Y-39258D01*
X50751Y-39305D01*
X50908Y-39357D01*
X51025Y-39408D01*
X51101Y-39454D01*
X51187Y-39526D01*
X51247Y-39545D01*
X52652Y-40949D01*
X52949Y-41148D01*
X53300Y-41218D01*
X61500D01*
X61851Y-41148D01*
X62149Y-40949D01*
X64349Y-38749D01*
X64548Y-38451D01*
X64618Y-38100D01*
Y-35080D01*
X66980Y-32718D01*
X67485D01*
X67619Y-33218D01*
X67097Y-33519D01*
X66519Y-34096D01*
X66111Y-34803D01*
X65900Y-35592D01*
Y-36408D01*
X66111Y-37196D01*
X66519Y-37903D01*
X67097Y-38480D01*
X67803Y-38888D01*
X68592Y-39100D01*
X69408D01*
X70197Y-38888D01*
X70903Y-38480D01*
X71481Y-37903D01*
X71889Y-37196D01*
X72382Y-37286D01*
Y-37897D01*
X72452Y-38248D01*
X72651Y-38546D01*
X75454Y-41349D01*
X75498Y-41379D01*
X75347Y-41879D01*
X7000D01*
X7000Y-41878D01*
Y-41878D01*
X5853Y-41765D01*
X4750Y-41431D01*
X3734Y-40888D01*
X2843Y-40157D01*
X2112Y-39266D01*
X1569Y-38249D01*
X1235Y-37147D01*
X1122Y-36000D01*
X1122D01*
Y36000D01*
X1122D01*
X1235Y37147D01*
X1569Y38249D01*
X2112Y39266D01*
X2843Y40157D01*
X3734Y40888D01*
X4750Y41431D01*
X5853Y41765D01*
X7000Y41878D01*
Y41878D01*
X40694D01*
X40824Y41660D01*
X40881Y41378D01*
X39151Y39649D01*
X38952Y39351D01*
X38914Y39158D01*
X38881Y39084D01*
X38216D01*
Y35916D01*
X41116D01*
X41384Y35916D01*
X41884Y35916D01*
X43191D01*
X43219Y35899D01*
X43273Y35912D01*
X43324Y35890D01*
X43385Y35916D01*
X43404D01*
X43428Y35899D01*
X43611Y35742D01*
X43721Y35637D01*
X43795Y35607D01*
X45523Y33880D01*
X45331Y33418D01*
X36900D01*
X36549Y33348D01*
X36251Y33149D01*
X31247Y28145D01*
X31187Y28126D01*
X31101Y28055D01*
X31025Y28009D01*
X30908Y27957D01*
X30751Y27905D01*
X30553Y27858D01*
X30333Y27820D01*
X29391Y27751D01*
X29022Y27749D01*
X28905Y27700D01*
X28592D01*
X27803Y27489D01*
X27097Y27081D01*
X26519Y26503D01*
X26111Y25797D01*
X25900Y25008D01*
Y24192D01*
X26111Y23403D01*
X26519Y22697D01*
X27097Y22119D01*
X27803Y21711D01*
X28592Y21500D01*
X29408D01*
X30197Y21711D01*
X30903Y22119D01*
X31481Y22697D01*
X31889Y23403D01*
X32100Y24192D01*
Y24505D01*
X32149Y24622D01*
X32151Y24997D01*
X32186Y25654D01*
X32217Y25919D01*
X32258Y26153D01*
X32305Y26351D01*
X32357Y26508D01*
X32409Y26625D01*
X32455Y26701D01*
X32526Y26787D01*
X32545Y26847D01*
X37280Y31582D01*
X47375D01*
X47448Y31551D01*
X47579Y31548D01*
X47676Y31542D01*
X47732Y31534D01*
X47749Y31509D01*
X47774Y31447D01*
X47796Y31438D01*
X47850Y31358D01*
X48374Y31008D01*
X48992Y30885D01*
X52142D01*
X52760Y31008D01*
X53284Y31358D01*
X53634Y31882D01*
X53757Y32500D01*
X53634Y33118D01*
X53284Y33642D01*
X52760Y33992D01*
X52142Y34115D01*
X48992D01*
X48374Y33992D01*
X48180Y33863D01*
X48169Y33874D01*
X48101Y33900D01*
X48059Y33959D01*
X48035Y33962D01*
X45098Y36900D01*
X45072Y36970D01*
X44864Y37193D01*
X44806Y37265D01*
X44784Y37296D01*
Y37315D01*
X44810Y37376D01*
X44789Y37427D01*
X44801Y37481D01*
X44784Y37509D01*
Y39084D01*
X41943D01*
X41752Y39527D01*
X42037Y39882D01*
X55520D01*
X59282Y36120D01*
Y31843D01*
X59264Y31725D01*
X59180Y31346D01*
X59068Y31300D01*
X58782D01*
X58194Y31056D01*
X57744Y30606D01*
X57500Y30018D01*
Y29382D01*
X57744Y28794D01*
X58194Y28344D01*
X58782Y28100D01*
X59418D01*
X60006Y28344D01*
X60456Y28794D01*
X60700Y29382D01*
Y29668D01*
X60746Y29780D01*
X60741Y29792D01*
X60746Y29805D01*
X60743Y29867D01*
X60745Y29897D01*
X60749Y29924D01*
X60755Y29949D01*
X60763Y29974D01*
X60774Y29999D01*
X60790Y30027D01*
X60810Y30057D01*
X60837Y30091D01*
X60886Y30144D01*
X60939Y30287D01*
X61048Y30449D01*
X61118Y30800D01*
Y36500D01*
X61048Y36851D01*
X60849Y37149D01*
X56619Y41378D01*
X56675Y41660D01*
X56806Y41878D01*
X65974D01*
X66181Y41378D01*
D02*
G37*
G36*
X83666Y28543D02*
X83685Y28492D01*
X83715Y28447D01*
X83758Y28408D01*
X83813Y28375D01*
X83881Y28348D01*
X83960Y28327D01*
X84052Y28312D01*
X84156Y28303D01*
X84272Y28300D01*
Y27700D01*
X84156Y27697D01*
X84052Y27688D01*
X83960Y27673D01*
X83881Y27652D01*
X83813Y27625D01*
X83758Y27592D01*
X83715Y27553D01*
X83685Y27508D01*
X83666Y27457D01*
X83660Y27400D01*
Y28600D01*
X83666Y28543D01*
D02*
G37*
G36*
X85486Y27300D02*
X85407Y27376D01*
X85327Y27444D01*
X85246Y27504D01*
X85163Y27556D01*
X85080Y27600D01*
X84995Y27636D01*
X84910Y27664D01*
X84823Y27684D01*
X84735Y27696D01*
X84646Y27700D01*
Y28300D01*
X84735Y28304D01*
X84823Y28316D01*
X84910Y28336D01*
X84995Y28364D01*
X85080Y28400D01*
X85163Y28444D01*
X85246Y28496D01*
X85327Y28556D01*
X85407Y28624D01*
X85486Y28700D01*
Y27300D01*
D02*
G37*
G36*
X69100Y26907D02*
X69092Y26962D01*
X69069Y27012D01*
X69030Y27056D01*
X68976Y27094D01*
X68906Y27127D01*
X68822Y27153D01*
X68721Y27174D01*
X68605Y27188D01*
X68474Y27197D01*
X68327Y27200D01*
Y27800D01*
X68474Y27803D01*
X68721Y27826D01*
X68822Y27847D01*
X68906Y27873D01*
X68976Y27906D01*
X69030Y27944D01*
X69069Y27988D01*
X69092Y28038D01*
X69100Y28093D01*
Y26907D01*
D02*
G37*
G36*
X134493Y28024D02*
X134573Y27956D01*
X134654Y27896D01*
X134737Y27844D01*
X134820Y27800D01*
X134905Y27764D01*
X134990Y27736D01*
X135077Y27716D01*
X135165Y27704D01*
X135254Y27700D01*
Y27100D01*
X135165Y27096D01*
X135077Y27084D01*
X134990Y27064D01*
X134905Y27036D01*
X134820Y27000D01*
X134737Y26956D01*
X134654Y26904D01*
X134573Y26844D01*
X134493Y26776D01*
X134414Y26700D01*
Y28100D01*
X134493Y28024D01*
D02*
G37*
G36*
X132986Y26700D02*
X132907Y26776D01*
X132827Y26844D01*
X132746Y26904D01*
X132663Y26956D01*
X132580Y27000D01*
X132495Y27036D01*
X132410Y27064D01*
X132323Y27084D01*
X132235Y27096D01*
X132146Y27100D01*
Y27700D01*
X132235Y27704D01*
X132323Y27716D01*
X132410Y27736D01*
X132495Y27764D01*
X132580Y27800D01*
X132663Y27844D01*
X132746Y27896D01*
X132827Y27956D01*
X132907Y28024D01*
X132986Y28100D01*
Y26700D01*
D02*
G37*
G36*
X32028Y27204D02*
X31924Y27079D01*
X31831Y26925D01*
X31750Y26741D01*
X31680Y26528D01*
X31622Y26285D01*
X31575Y26012D01*
X31539Y25710D01*
X31501Y25016D01*
X31500Y24625D01*
X29025Y27100D01*
X29416Y27101D01*
X30412Y27175D01*
X30685Y27222D01*
X30928Y27280D01*
X31141Y27350D01*
X31325Y27431D01*
X31479Y27524D01*
X31604Y27628D01*
X32028Y27204D01*
D02*
G37*
G36*
X157056Y25766D02*
X157245Y25661D01*
X157337Y25618D01*
X157429Y25582D01*
X157519Y25553D01*
X157607Y25530D01*
X157695Y25513D01*
X157781Y25503D01*
X157865Y25500D01*
X157994Y24900D01*
X157902Y24896D01*
X157814Y24882D01*
X157729Y24860D01*
X157648Y24829D01*
X157571Y24789D01*
X157497Y24740D01*
X157427Y24683D01*
X157360Y24617D01*
X157298Y24541D01*
X157239Y24457D01*
X156959Y25829D01*
X157056Y25766D01*
D02*
G37*
G36*
X152679Y24551D02*
X152750Y24497D01*
X152825Y24450D01*
X152906Y24409D01*
X152991Y24375D01*
X153081Y24347D01*
X153176Y24326D01*
X153276Y24311D01*
X153380Y24302D01*
X153490Y24300D01*
X152500Y23310D01*
X152498Y23420D01*
X152489Y23524D01*
X152474Y23624D01*
X152453Y23719D01*
X152425Y23809D01*
X152391Y23894D01*
X152350Y23975D01*
X152303Y24050D01*
X152249Y24121D01*
X152189Y24187D01*
X152613Y24611D01*
X152679Y24551D01*
D02*
G37*
G36*
X83666Y23543D02*
X83685Y23492D01*
X83715Y23447D01*
X83758Y23408D01*
X83813Y23375D01*
X83881Y23348D01*
X83960Y23327D01*
X84052Y23312D01*
X84156Y23303D01*
X84272Y23300D01*
Y22700D01*
X84156Y22697D01*
X84052Y22688D01*
X83960Y22673D01*
X83881Y22652D01*
X83813Y22625D01*
X83758Y22592D01*
X83715Y22553D01*
X83685Y22508D01*
X83666Y22457D01*
X83660Y22400D01*
Y23600D01*
X83666Y23543D01*
D02*
G37*
G36*
X78328Y22028D02*
X78322Y22061D01*
X78304Y22090D01*
X78274Y22116D01*
X78232Y22138D01*
X78178Y22157D01*
X78112Y22172D01*
X78034Y22185D01*
X77944Y22193D01*
X77728Y22200D01*
Y22800D01*
X77843Y22803D01*
X77947Y22812D01*
X78039Y22827D01*
X78118Y22848D01*
X78185Y22875D01*
X78240Y22908D01*
X78283Y22947D01*
X78314Y22992D01*
X78333Y23043D01*
X78340Y23100D01*
X78328Y22028D01*
D02*
G37*
G36*
X73774Y23038D02*
X73797Y22988D01*
X73836Y22944D01*
X73890Y22906D01*
X73960Y22873D01*
X74045Y22847D01*
X74145Y22826D01*
X74261Y22812D01*
X74393Y22803D01*
X74540Y22800D01*
Y22200D01*
X74393Y22197D01*
X74145Y22174D01*
X74045Y22153D01*
X73960Y22127D01*
X73890Y22094D01*
X73836Y22056D01*
X73797Y22012D01*
X73774Y21962D01*
X73766Y21907D01*
Y23093D01*
X73774Y23038D01*
D02*
G37*
G36*
X65879Y23051D02*
X65950Y22997D01*
X66025Y22950D01*
X66106Y22909D01*
X66191Y22875D01*
X66281Y22847D01*
X66376Y22826D01*
X66476Y22811D01*
X66580Y22802D01*
X66690Y22800D01*
X65700Y21810D01*
X65698Y21920D01*
X65689Y22024D01*
X65674Y22124D01*
X65653Y22219D01*
X65625Y22309D01*
X65591Y22394D01*
X65550Y22475D01*
X65503Y22550D01*
X65449Y22621D01*
X65389Y22687D01*
X65813Y23111D01*
X65879Y23051D01*
D02*
G37*
G36*
X133593Y23024D02*
X133673Y22956D01*
X133754Y22896D01*
X133837Y22844D01*
X133920Y22800D01*
X134005Y22764D01*
X134090Y22736D01*
X134177Y22716D01*
X134265Y22704D01*
X134354Y22700D01*
Y22100D01*
X134265Y22096D01*
X134177Y22084D01*
X134090Y22064D01*
X134005Y22036D01*
X133920Y22000D01*
X133837Y21956D01*
X133754Y21904D01*
X133673Y21844D01*
X133593Y21776D01*
X133514Y21700D01*
Y23100D01*
X133593Y23024D01*
D02*
G37*
G36*
X141352Y21276D02*
X141574Y21087D01*
X141672Y21018D01*
X141761Y20966D01*
X141842Y20931D01*
X141913Y20913D01*
X141976Y20912D01*
X142031Y20928D01*
X142076Y20960D01*
X141240Y20124D01*
X141272Y20169D01*
X141288Y20224D01*
X141287Y20287D01*
X141269Y20358D01*
X141234Y20439D01*
X141182Y20528D01*
X141113Y20626D01*
X141026Y20733D01*
X140804Y20972D01*
X141228Y21396D01*
X141352Y21276D01*
D02*
G37*
G36*
X137952D02*
X138174Y21087D01*
X138272Y21018D01*
X138361Y20966D01*
X138442Y20931D01*
X138513Y20913D01*
X138576Y20912D01*
X138631Y20928D01*
X138676Y20960D01*
X137840Y20124D01*
X137873Y20169D01*
X137888Y20224D01*
X137887Y20287D01*
X137869Y20358D01*
X137834Y20439D01*
X137782Y20528D01*
X137713Y20626D01*
X137627Y20733D01*
X137404Y20972D01*
X137828Y21396D01*
X137952Y21276D01*
D02*
G37*
G36*
X170179Y21151D02*
X170250Y21097D01*
X170325Y21050D01*
X170406Y21009D01*
X170491Y20975D01*
X170581Y20947D01*
X170676Y20926D01*
X170776Y20911D01*
X170880Y20902D01*
X170990Y20900D01*
X170000Y19910D01*
X169998Y20020D01*
X169989Y20124D01*
X169974Y20224D01*
X169953Y20319D01*
X169925Y20409D01*
X169891Y20494D01*
X169850Y20575D01*
X169803Y20650D01*
X169749Y20721D01*
X169689Y20787D01*
X170113Y21211D01*
X170179Y21151D01*
D02*
G37*
G36*
X158166Y20543D02*
X158185Y20492D01*
X158215Y20447D01*
X158258Y20408D01*
X158313Y20375D01*
X158381Y20348D01*
X158460Y20327D01*
X158552Y20312D01*
X158656Y20303D01*
X158772Y20300D01*
Y19700D01*
X158656Y19697D01*
X158552Y19688D01*
X158460Y19673D01*
X158381Y19652D01*
X158313Y19625D01*
X158258Y19592D01*
X158215Y19553D01*
X158185Y19508D01*
X158166Y19457D01*
X158160Y19400D01*
Y20600D01*
X158166Y20543D01*
D02*
G37*
G36*
X152840Y19400D02*
X152834Y19457D01*
X152815Y19508D01*
X152785Y19553D01*
X152742Y19592D01*
X152687Y19625D01*
X152619Y19652D01*
X152540Y19673D01*
X152448Y19688D01*
X152344Y19697D01*
X152228Y19700D01*
Y20300D01*
X152344Y20303D01*
X152448Y20312D01*
X152540Y20327D01*
X152619Y20348D01*
X152687Y20375D01*
X152742Y20408D01*
X152785Y20447D01*
X152815Y20492D01*
X152834Y20543D01*
X152840Y20600D01*
Y19400D01*
D02*
G37*
G36*
X146688Y20627D02*
X146767Y20558D01*
X146847Y20498D01*
X146929Y20445D01*
X147012Y20401D01*
X147096Y20365D01*
X147181Y20336D01*
X147268Y20316D01*
X147356Y20304D01*
X147445Y20300D01*
X147437Y19700D01*
X147349Y19696D01*
X147261Y19684D01*
X147174Y19664D01*
X147088Y19637D01*
X147003Y19601D01*
X146919Y19557D01*
X146836Y19506D01*
X146754Y19446D01*
X146673Y19379D01*
X146593Y19304D01*
X146610Y20704D01*
X146688Y20627D01*
D02*
G37*
G36*
X135924Y19007D02*
X135856Y18927D01*
X135796Y18846D01*
X135744Y18763D01*
X135700Y18680D01*
X135664Y18595D01*
X135636Y18510D01*
X135616Y18423D01*
X135604Y18335D01*
X135600Y18246D01*
X135000D01*
X134996Y18335D01*
X134984Y18423D01*
X134964Y18510D01*
X134936Y18595D01*
X134900Y18680D01*
X134856Y18763D01*
X134804Y18846D01*
X134744Y18927D01*
X134676Y19007D01*
X134600Y19086D01*
X136000D01*
X135924Y19007D01*
D02*
G37*
G36*
X158166Y16043D02*
X158185Y15992D01*
X158215Y15947D01*
X158258Y15908D01*
X158313Y15875D01*
X158381Y15848D01*
X158460Y15827D01*
X158552Y15812D01*
X158656Y15803D01*
X158772Y15800D01*
Y15200D01*
X158656Y15197D01*
X158552Y15188D01*
X158460Y15173D01*
X158381Y15152D01*
X158313Y15125D01*
X158258Y15092D01*
X158215Y15053D01*
X158185Y15008D01*
X158166Y14957D01*
X158160Y14900D01*
Y16100D01*
X158166Y16043D01*
D02*
G37*
G36*
X152840Y14900D02*
X152834Y14957D01*
X152815Y15008D01*
X152785Y15053D01*
X152742Y15092D01*
X152687Y15125D01*
X152619Y15152D01*
X152540Y15173D01*
X152448Y15188D01*
X152344Y15197D01*
X152228Y15200D01*
Y15800D01*
X152344Y15803D01*
X152448Y15812D01*
X152540Y15827D01*
X152619Y15848D01*
X152687Y15875D01*
X152742Y15908D01*
X152785Y15947D01*
X152815Y15992D01*
X152834Y16043D01*
X152840Y16100D01*
Y14900D01*
D02*
G37*
G36*
X137840D02*
X137834Y14957D01*
X137815Y15008D01*
X137785Y15053D01*
X137742Y15092D01*
X137687Y15125D01*
X137619Y15152D01*
X137540Y15173D01*
X137448Y15188D01*
X137344Y15197D01*
X137228Y15200D01*
Y15800D01*
X137344Y15803D01*
X137448Y15812D01*
X137540Y15827D01*
X137619Y15848D01*
X137687Y15875D01*
X137742Y15908D01*
X137785Y15947D01*
X137815Y15992D01*
X137834Y16043D01*
X137840Y16100D01*
Y14900D01*
D02*
G37*
G36*
X147493Y16124D02*
X147573Y16056D01*
X147654Y15996D01*
X147737Y15944D01*
X147820Y15900D01*
X147905Y15864D01*
X147990Y15836D01*
X148077Y15816D01*
X148165Y15804D01*
X148254Y15800D01*
Y15200D01*
X148165Y15196D01*
X148077Y15184D01*
X147990Y15164D01*
X147905Y15136D01*
X147820Y15100D01*
X147737Y15056D01*
X147654Y15004D01*
X147573Y14944D01*
X147493Y14876D01*
X147414Y14800D01*
Y16200D01*
X147493Y16124D01*
D02*
G37*
G36*
X142743Y14522D02*
X142692Y14504D01*
X142647Y14474D01*
X142608Y14432D01*
X142575Y14378D01*
X142548Y14312D01*
X142527Y14234D01*
X142512Y14144D01*
X142503Y14042D01*
X142500Y13928D01*
X141900D01*
X141897Y14042D01*
X141888Y14144D01*
X141873Y14234D01*
X141852Y14312D01*
X141825Y14378D01*
X141792Y14432D01*
X141753Y14474D01*
X141708Y14504D01*
X141657Y14522D01*
X141600Y14528D01*
X142800D01*
X142743Y14522D01*
D02*
G37*
G36*
X114324Y14207D02*
X114256Y14127D01*
X114196Y14046D01*
X114144Y13963D01*
X114100Y13880D01*
X114064Y13795D01*
X114036Y13710D01*
X114016Y13623D01*
X114004Y13535D01*
X114000Y13446D01*
X113400D01*
X113396Y13535D01*
X113384Y13623D01*
X113364Y13710D01*
X113336Y13795D01*
X113300Y13880D01*
X113256Y13963D01*
X113204Y14046D01*
X113144Y14127D01*
X113076Y14207D01*
X113000Y14286D01*
X114400D01*
X114324Y14207D01*
D02*
G37*
G36*
X145111Y9987D02*
X145051Y9921D01*
X144997Y9850D01*
X144950Y9775D01*
X144909Y9694D01*
X144875Y9609D01*
X144847Y9519D01*
X144826Y9424D01*
X144811Y9324D01*
X144802Y9220D01*
X144800Y9110D01*
X143810Y10100D01*
X143920Y10102D01*
X144024Y10111D01*
X144124Y10126D01*
X144219Y10147D01*
X144309Y10175D01*
X144394Y10209D01*
X144475Y10250D01*
X144550Y10297D01*
X144621Y10351D01*
X144687Y10411D01*
X145111Y9987D01*
D02*
G37*
G36*
X141304Y7669D02*
X141316Y7581D01*
X141336Y7494D01*
X141364Y7409D01*
X141400Y7324D01*
X141444Y7241D01*
X141496Y7159D01*
X141557Y7078D01*
X141625Y6998D01*
X141701Y6920D01*
X140301Y6915D01*
X140377Y6994D01*
X140445Y7075D01*
X140504Y7156D01*
X140556Y7239D01*
X140600Y7322D01*
X140636Y7407D01*
X140664Y7492D01*
X140684Y7579D01*
X140696Y7667D01*
X140700Y7756D01*
X141300Y7758D01*
X141304Y7669D01*
D02*
G37*
G36*
X113282Y37720D02*
Y32200D01*
X113352Y31849D01*
X113551Y31551D01*
X118351Y26751D01*
X118649Y26552D01*
X119000Y26482D01*
X131883D01*
X131984Y26418D01*
X131984Y26418D01*
X131829Y26015D01*
X131744Y25935D01*
X131706Y25918D01*
X131300D01*
X130949Y25848D01*
X130651Y25649D01*
X129151Y24149D01*
X128952Y23851D01*
X128882Y23500D01*
Y20100D01*
X128952Y19749D01*
X129151Y19451D01*
X135982Y12620D01*
Y5023D01*
X135482Y4815D01*
X109918Y30380D01*
Y31904D01*
X109947Y31960D01*
X109957Y32071D01*
X109978Y32157D01*
X110024Y32277D01*
X110099Y32425D01*
X110205Y32598D01*
X110334Y32781D01*
X110951Y33495D01*
X111211Y33757D01*
X111259Y33875D01*
X111481Y34097D01*
X111889Y34803D01*
X112100Y35592D01*
Y36408D01*
X111889Y37197D01*
X111481Y37903D01*
X110903Y38481D01*
X110197Y38889D01*
X109408Y39100D01*
X108592D01*
X107803Y38889D01*
X107097Y38481D01*
X106519Y37903D01*
X106111Y37197D01*
X105900Y36408D01*
Y35592D01*
X106111Y34803D01*
X106519Y34097D01*
X106740Y33875D01*
X106789Y33757D01*
X107053Y33491D01*
X107492Y33002D01*
X107657Y32792D01*
X107795Y32598D01*
X107901Y32425D01*
X107975Y32277D01*
X108022Y32157D01*
X108043Y32071D01*
X108053Y31960D01*
X108082Y31904D01*
Y30000D01*
X108152Y29649D01*
X108351Y29351D01*
X137151Y551D01*
X137449Y352D01*
X137800Y282D01*
X139231D01*
X139450Y-210D01*
X139251Y-461D01*
X119609D01*
X119456Y-186D01*
X119375Y39D01*
X119600Y582D01*
Y1218D01*
X119356Y1806D01*
X118906Y2256D01*
X118318Y2500D01*
X118254D01*
X118184Y2562D01*
X117961Y3000D01*
X118132Y3414D01*
Y4050D01*
X117889Y4639D01*
X117439Y5089D01*
X116850Y5332D01*
X116648D01*
X116535Y5382D01*
X116446Y5383D01*
X116383Y5388D01*
X116328Y5397D01*
X116281Y5407D01*
X116241Y5420D01*
X116207Y5433D01*
X116177Y5448D01*
X116151Y5464D01*
X116128Y5482D01*
X116084Y5523D01*
X116015Y5548D01*
X114618Y6945D01*
Y13350D01*
X114649Y13417D01*
X114651Y13476D01*
X114655Y13506D01*
X114662Y13535D01*
X114673Y13567D01*
X114687Y13601D01*
X114707Y13638D01*
X114732Y13679D01*
X114765Y13723D01*
X114806Y13771D01*
X114868Y13836D01*
X114913Y13950D01*
X115056Y14094D01*
X115300Y14682D01*
Y15318D01*
X115056Y15906D01*
X114606Y16356D01*
X114018Y16600D01*
X113382D01*
X112794Y16356D01*
X112344Y15906D01*
X112100Y15318D01*
Y14682D01*
X112344Y14094D01*
X112487Y13950D01*
X112532Y13836D01*
X112594Y13771D01*
X112635Y13723D01*
X112668Y13679D01*
X112693Y13638D01*
X112713Y13601D01*
X112727Y13567D01*
X112738Y13535D01*
X112744Y13506D01*
X112749Y13476D01*
X112751Y13417D01*
X112782Y13350D01*
Y6565D01*
X112852Y6213D01*
X113051Y5916D01*
X114717Y4250D01*
X114742Y4181D01*
X114782Y4137D01*
X114800Y4113D01*
X114816Y4087D01*
X114831Y4058D01*
X114845Y4024D01*
X114857Y3984D01*
X114868Y3937D01*
X114876Y3882D01*
X114881Y3819D01*
X114883Y3730D01*
X114804Y3601D01*
X114180Y3517D01*
X99918Y17780D01*
Y31904D01*
X99947Y31960D01*
X99957Y32071D01*
X99978Y32157D01*
X100024Y32277D01*
X100100Y32425D01*
X100205Y32598D01*
X100334Y32781D01*
X100951Y33495D01*
X101211Y33757D01*
X101260Y33875D01*
X101481Y34097D01*
X101889Y34803D01*
X102100Y35592D01*
Y36408D01*
X101889Y37197D01*
X101481Y37903D01*
X100903Y38481D01*
X100197Y38889D01*
X99408Y39100D01*
X98592D01*
X97803Y38889D01*
X97097Y38481D01*
X96519Y37903D01*
X96111Y37197D01*
X95900Y36408D01*
Y35592D01*
X96111Y34803D01*
X96519Y34097D01*
X96741Y33875D01*
X96789Y33757D01*
X97053Y33491D01*
X97492Y33002D01*
X97657Y32792D01*
X97795Y32598D01*
X97900Y32425D01*
X97975Y32277D01*
X98022Y32157D01*
X98043Y32071D01*
X98053Y31960D01*
X98082Y31904D01*
Y21323D01*
X97582Y21115D01*
X95049Y23649D01*
X94751Y23848D01*
X94400Y23918D01*
X84360D01*
X84289Y23949D01*
X84284Y23949D01*
Y24584D01*
X81384D01*
X81116Y24584D01*
X80616Y24584D01*
X77716D01*
Y23449D01*
X77711Y23449D01*
X77640Y23418D01*
X74625D01*
X74552Y23449D01*
X74421Y23452D01*
X74324Y23458D01*
X74268Y23465D01*
X74251Y23491D01*
X74225Y23552D01*
X74204Y23562D01*
X74150Y23642D01*
X73626Y23992D01*
X73008Y24115D01*
X69858D01*
X69240Y23992D01*
X68716Y23642D01*
X68366Y23118D01*
X68364Y23106D01*
X67821Y22942D01*
X67606Y23156D01*
X67018Y23400D01*
X66815D01*
X66702Y23449D01*
X66613Y23451D01*
X66550Y23456D01*
X66496Y23464D01*
X66449Y23475D01*
X66408Y23487D01*
X66374Y23501D01*
X66345Y23516D01*
X66319Y23532D01*
X66295Y23550D01*
X66251Y23590D01*
X66182Y23615D01*
X65218Y24580D01*
Y28031D01*
X65680Y28223D01*
X67051Y26851D01*
X67349Y26652D01*
X67700Y26582D01*
X68241D01*
X68314Y26551D01*
X68445Y26548D01*
X68542Y26542D01*
X68598Y26535D01*
X68615Y26509D01*
X68641Y26447D01*
X68662Y26439D01*
X68716Y26358D01*
X69240Y26008D01*
X69858Y25885D01*
X73008D01*
X73626Y26008D01*
X74150Y26358D01*
X74500Y26882D01*
X74623Y27500D01*
X74500Y28118D01*
X74150Y28642D01*
X73626Y28992D01*
X73008Y29115D01*
X69858D01*
X69240Y28992D01*
X68716Y28642D01*
X68662Y28561D01*
X68641Y28553D01*
X68615Y28491D01*
X68599Y28467D01*
X68436Y28452D01*
X68314Y28449D01*
X68241Y28418D01*
X68080D01*
X66618Y29880D01*
Y37320D01*
X67873Y38575D01*
X68052Y38548D01*
X68191Y38358D01*
X68342Y38000D01*
X68243Y37500D01*
X68366Y36882D01*
X68716Y36358D01*
X69240Y36008D01*
X69858Y35885D01*
X71527D01*
X71556Y35872D01*
X71601Y35870D01*
X71613Y35868D01*
X71632Y35864D01*
X71658Y35854D01*
X71692Y35839D01*
X71734Y35815D01*
X71775Y35788D01*
X71906Y35681D01*
X71976Y35614D01*
X72049Y35586D01*
X77583Y30053D01*
X77716Y29584D01*
X77716D01*
X77716Y29584D01*
Y26416D01*
X80616D01*
X80884Y26416D01*
X81384Y26416D01*
X84284D01*
Y26689D01*
X84326Y26735D01*
X84536Y26923D01*
X84663Y26996D01*
X84767Y27027D01*
X84801Y27013D01*
X84838Y26993D01*
X84879Y26968D01*
X84923Y26935D01*
X84971Y26894D01*
X85036Y26832D01*
X85150Y26787D01*
X85294Y26644D01*
X85882Y26400D01*
X86518D01*
X87106Y26644D01*
X87556Y27094D01*
X87800Y27682D01*
Y28318D01*
X87556Y28906D01*
X87106Y29356D01*
X86518Y29600D01*
X85882D01*
X85294Y29356D01*
X85150Y29213D01*
X85036Y29168D01*
X84971Y29106D01*
X84923Y29065D01*
X84879Y29032D01*
X84838Y29007D01*
X84801Y28987D01*
X84767Y28973D01*
X84663Y29004D01*
X84536Y29077D01*
X84326Y29265D01*
X84284Y29311D01*
Y29584D01*
X81384D01*
X81116Y29584D01*
X80249Y29584D01*
X80249Y29589D01*
X80208Y29682D01*
X80148Y29984D01*
X79949Y30282D01*
X77551Y32680D01*
X77803Y33111D01*
X78592Y32900D01*
X78900D01*
X79013Y32851D01*
X79266Y32846D01*
X79486Y32828D01*
X79690Y32797D01*
X79880Y32755D01*
X80055Y32700D01*
X80217Y32635D01*
X80367Y32559D01*
X80506Y32472D01*
X80636Y32374D01*
X80778Y32243D01*
X80828Y32225D01*
X82427Y30627D01*
X82873Y30328D01*
X83400Y30224D01*
X87830D01*
X90420Y27633D01*
X90644Y27094D01*
X91094Y26644D01*
X91682Y26400D01*
X92318D01*
X92906Y26644D01*
X93356Y27094D01*
X93600Y27682D01*
Y28318D01*
X93356Y28906D01*
X92906Y29356D01*
X92367Y29580D01*
X89528Y32418D01*
X89634Y32927D01*
X89665Y32969D01*
X90197Y33111D01*
X90903Y33519D01*
X91481Y34097D01*
X91889Y34803D01*
X92100Y35592D01*
Y36408D01*
X91889Y37197D01*
X91481Y37903D01*
X90903Y38481D01*
X90197Y38889D01*
X89408Y39100D01*
X89095D01*
X88978Y39149D01*
X88603Y39151D01*
X87946Y39186D01*
X87681Y39217D01*
X87447Y39258D01*
X87249Y39305D01*
X87092Y39357D01*
X86975Y39409D01*
X86899Y39455D01*
X86813Y39526D01*
X86774Y39682D01*
X87137Y40182D01*
X110820D01*
X113282Y37720D01*
D02*
G37*
G36*
X147824Y5507D02*
X147756Y5427D01*
X147696Y5346D01*
X147644Y5263D01*
X147600Y5180D01*
X147564Y5095D01*
X147536Y5010D01*
X147516Y4923D01*
X147504Y4835D01*
X147500Y4746D01*
X146900D01*
X146896Y4835D01*
X146884Y4923D01*
X146864Y5010D01*
X146836Y5095D01*
X146800Y5180D01*
X146756Y5263D01*
X146704Y5346D01*
X146644Y5427D01*
X146576Y5507D01*
X146500Y5586D01*
X147900D01*
X147824Y5507D01*
D02*
G37*
G36*
X115711Y4983D02*
X115782Y4930D01*
X115858Y4882D01*
X115938Y4842D01*
X116023Y4807D01*
X116113Y4779D01*
X116208Y4758D01*
X116308Y4743D01*
X116413Y4734D01*
X116522Y4732D01*
X115532Y3742D01*
X115530Y3852D01*
X115522Y3957D01*
X115507Y4056D01*
X115485Y4151D01*
X115457Y4242D01*
X115423Y4327D01*
X115382Y4407D01*
X115335Y4483D01*
X115281Y4553D01*
X115221Y4619D01*
X115646Y5043D01*
X115711Y4983D01*
D02*
G37*
G36*
X151862Y4007D02*
X151874Y3919D01*
X151894Y3832D01*
X151922Y3746D01*
X151958Y3662D01*
X152002Y3578D01*
X152054Y3496D01*
X152114Y3415D01*
X152182Y3335D01*
X152258Y3256D01*
X150858D01*
X150934Y3335D01*
X151002Y3415D01*
X151062Y3496D01*
X151114Y3578D01*
X151158Y3662D01*
X151194Y3746D01*
X151222Y3832D01*
X151242Y3919D01*
X151254Y4007D01*
X151258Y4096D01*
X151858D01*
X151862Y4007D01*
D02*
G37*
G36*
X147500Y4121D02*
X147504Y4003D01*
X147517Y3888D01*
X147538Y3777D01*
X147568Y3669D01*
X147606Y3565D01*
X147653Y3465D01*
X147708Y3367D01*
X147772Y3274D01*
X147844Y3184D01*
X147924Y3097D01*
X147500Y2673D01*
X147413Y2753D01*
X147323Y2826D01*
X147230Y2889D01*
X147133Y2944D01*
X147032Y2991D01*
X146928Y3029D01*
X146820Y3059D01*
X146709Y3080D01*
X146594Y3093D01*
X146476Y3097D01*
X146300Y3697D01*
X146414Y3703D01*
X146516Y3721D01*
X146606Y3751D01*
X146684Y3793D01*
X146750Y3847D01*
X146804Y3913D01*
X146846Y3991D01*
X146876Y4081D01*
X146894Y4183D01*
X146900Y4297D01*
X147500Y4121D01*
D02*
G37*
G36*
X152560Y2422D02*
X152569Y2317D01*
X152584Y2218D01*
X152605Y2123D01*
X152633Y2032D01*
X152667Y1947D01*
X152708Y1867D01*
X152755Y1791D01*
X152809Y1721D01*
X152869Y1655D01*
X152445Y1231D01*
X152379Y1291D01*
X152309Y1345D01*
X152233Y1392D01*
X152153Y1433D01*
X152067Y1467D01*
X151977Y1495D01*
X151882Y1516D01*
X151783Y1531D01*
X151678Y1540D01*
X151568Y1542D01*
X152558Y2532D01*
X152560Y2422D01*
D02*
G37*
G36*
X117286Y200D02*
X117207Y276D01*
X117127Y344D01*
X117046Y404D01*
X116963Y456D01*
X116880Y500D01*
X116795Y536D01*
X116710Y564D01*
X116623Y584D01*
X116535Y596D01*
X116446Y600D01*
Y1200D01*
X116535Y1204D01*
X116623Y1216D01*
X116710Y1236D01*
X116795Y1264D01*
X116880Y1300D01*
X116963Y1344D01*
X117046Y1396D01*
X117127Y1456D01*
X117207Y1524D01*
X117286Y1600D01*
Y200D01*
D02*
G37*
G36*
X183504Y-335D02*
X183516Y-423D01*
X183536Y-510D01*
X183564Y-595D01*
X183600Y-680D01*
X183644Y-763D01*
X183696Y-846D01*
X183756Y-927D01*
X183824Y-1007D01*
X183900Y-1086D01*
X182500D01*
X182576Y-1007D01*
X182644Y-927D01*
X182704Y-846D01*
X182756Y-763D01*
X182800Y-680D01*
X182836Y-595D01*
X182864Y-510D01*
X182884Y-423D01*
X182896Y-335D01*
X182900Y-246D01*
X183500D01*
X183504Y-335D01*
D02*
G37*
G36*
X107625Y127D02*
X107638Y13D01*
X107659Y-99D01*
X107689Y-206D01*
X107727Y-310D01*
X107774Y-411D01*
X107829Y-508D01*
X107893Y-602D01*
X107965Y-692D01*
X108045Y-779D01*
X107746Y-1327D01*
X107661Y-1251D01*
X107576Y-1192D01*
X107491Y-1149D01*
X107406Y-1124D01*
X107321Y-1115D01*
X107236Y-1124D01*
X107151Y-1149D01*
X107067Y-1192D01*
X106982Y-1251D01*
X106897Y-1327D01*
X106597Y-779D01*
X106678Y-692D01*
X106750Y-602D01*
X106813Y-508D01*
X106869Y-411D01*
X106915Y-310D01*
X106953Y-206D01*
X106983Y-99D01*
X107004Y13D01*
X107017Y127D01*
X107021Y246D01*
X107621D01*
X107625Y127D01*
D02*
G37*
G36*
X142845Y-3534D02*
X142759Y-3508D01*
X142499Y-3448D01*
X142411Y-3433D01*
X142148Y-3405D01*
X142060Y-3401D01*
X141971Y-3400D01*
X141567Y-2800D01*
X141662Y-2795D01*
X141750Y-2782D01*
X141830Y-2760D01*
X141902Y-2729D01*
X141966Y-2688D01*
X142022Y-2639D01*
X142070Y-2581D01*
X142110Y-2514D01*
X142143Y-2438D01*
X142167Y-2354D01*
X142845Y-3534D01*
D02*
G37*
G36*
X144813Y-5247D02*
X144734Y-5171D01*
X144654Y-5103D01*
X144572Y-5043D01*
X144490Y-4991D01*
X144407Y-4947D01*
X144322Y-4911D01*
X144236Y-4883D01*
X144150Y-4863D01*
X144062Y-4851D01*
X143973Y-4847D01*
Y-4247D01*
X144062Y-4243D01*
X144150Y-4231D01*
X144236Y-4211D01*
X144322Y-4183D01*
X144407Y-4147D01*
X144490Y-4103D01*
X144572Y-4051D01*
X144654Y-3991D01*
X144734Y-3923D01*
X144813Y-3847D01*
Y-5247D01*
D02*
G37*
G36*
X148782Y-3880D02*
Y-8131D01*
X148320Y-8323D01*
X147249Y-7251D01*
X146951Y-7052D01*
X146600Y-6982D01*
X140600D01*
X140249Y-7052D01*
X139951Y-7251D01*
X136220Y-10982D01*
X119780D01*
X117315Y-8518D01*
X117290Y-8449D01*
X117250Y-8405D01*
X117232Y-8381D01*
X117216Y-8355D01*
X117201Y-8326D01*
X117187Y-8292D01*
X117175Y-8251D01*
X117164Y-8204D01*
X117156Y-8150D01*
X117151Y-8087D01*
X117149Y-7998D01*
X117100Y-7885D01*
Y-7682D01*
X116856Y-7094D01*
X116406Y-6644D01*
X115818Y-6400D01*
X115182D01*
X114594Y-6644D01*
X114144Y-7094D01*
X113900Y-7682D01*
Y-8318D01*
X114144Y-8906D01*
X114594Y-9356D01*
X115182Y-9600D01*
X115385D01*
X115498Y-9649D01*
X115587Y-9651D01*
X115650Y-9656D01*
X115704Y-9664D01*
X115751Y-9675D01*
X115792Y-9687D01*
X115826Y-9701D01*
X115855Y-9716D01*
X115881Y-9732D01*
X115904Y-9750D01*
X115948Y-9790D01*
X116018Y-9815D01*
X117923Y-11720D01*
X117731Y-12182D01*
X101863D01*
X101671Y-11720D01*
X107927Y-5465D01*
X143877D01*
X143944Y-5496D01*
X144003Y-5499D01*
X144033Y-5503D01*
X144062Y-5510D01*
X144094Y-5520D01*
X144128Y-5534D01*
X144165Y-5554D01*
X144205Y-5580D01*
X144250Y-5613D01*
X144298Y-5653D01*
X144362Y-5715D01*
X144477Y-5760D01*
X144620Y-5904D01*
X145209Y-6147D01*
X145845D01*
X146433Y-5904D01*
X146883Y-5454D01*
X147127Y-4865D01*
Y-4229D01*
X146883Y-3641D01*
X146433Y-3191D01*
X145845Y-2947D01*
X145209D01*
X144742Y-2599D01*
Y-2261D01*
X144498Y-1672D01*
X144243Y-1418D01*
X144450Y-918D01*
X145820D01*
X148782Y-3880D01*
D02*
G37*
G36*
X177582Y1929D02*
Y-5497D01*
X177652Y-5848D01*
X177851Y-6146D01*
X178230Y-6525D01*
X177947Y-6949D01*
X177792Y-6884D01*
X177155D01*
X176567Y-7128D01*
X176117Y-7578D01*
X175873Y-8166D01*
Y-8369D01*
X175824Y-8482D01*
X175822Y-8571D01*
X175817Y-8634D01*
X175809Y-8688D01*
X175798Y-8736D01*
X175786Y-8776D01*
X175772Y-8810D01*
X175757Y-8839D01*
X175741Y-8865D01*
X175723Y-8889D01*
X175683Y-8933D01*
X175658Y-9002D01*
X153077Y-31582D01*
X152500D01*
X152148Y-31652D01*
X151851Y-31851D01*
X151247Y-32455D01*
X151187Y-32473D01*
X151101Y-32545D01*
X151025Y-32591D01*
X150908Y-32642D01*
X150751Y-32694D01*
X150553Y-32742D01*
X150333Y-32780D01*
X149391Y-32849D01*
X149022Y-32850D01*
X148905Y-32900D01*
X148592D01*
X147803Y-33111D01*
X147097Y-33519D01*
X146519Y-34096D01*
X146111Y-34803D01*
X145900Y-35592D01*
Y-36408D01*
X146111Y-37196D01*
X146519Y-37903D01*
X147097Y-38480D01*
X147803Y-38888D01*
X148592Y-39100D01*
X149408D01*
X150197Y-38888D01*
X150903Y-38480D01*
X151481Y-37903D01*
X151889Y-37196D01*
X152100Y-36408D01*
Y-36095D01*
X152149Y-35977D01*
X152151Y-35602D01*
X152186Y-34945D01*
X152217Y-34681D01*
X152258Y-34446D01*
X152305Y-34249D01*
X152357Y-34091D01*
X152409Y-33974D01*
X152455Y-33898D01*
X152526Y-33812D01*
X152545Y-33752D01*
X152880Y-33418D01*
X153457D01*
X153809Y-33348D01*
X154106Y-33149D01*
X157582Y-29673D01*
X158082Y-29880D01*
Y-31904D01*
X158053Y-31960D01*
X158043Y-32071D01*
X158022Y-32157D01*
X157975Y-32276D01*
X157901Y-32425D01*
X157795Y-32597D01*
X157666Y-32780D01*
X157049Y-33495D01*
X156789Y-33757D01*
X156740Y-33875D01*
X156519Y-34096D01*
X156111Y-34803D01*
X155900Y-35592D01*
Y-36408D01*
X156111Y-37196D01*
X156519Y-37903D01*
X157097Y-38480D01*
X157803Y-38888D01*
X158592Y-39100D01*
X159408D01*
X160197Y-38888D01*
X160903Y-38480D01*
X161481Y-37903D01*
X161889Y-37196D01*
X162100Y-36408D01*
Y-35592D01*
X161889Y-34803D01*
X161481Y-34096D01*
X161259Y-33875D01*
X161211Y-33757D01*
X160947Y-33491D01*
X160508Y-33001D01*
X160343Y-32792D01*
X160205Y-32598D01*
X160099Y-32425D01*
X160024Y-32276D01*
X159978Y-32157D01*
X159957Y-32071D01*
X159947Y-31960D01*
X159918Y-31904D01*
Y-29780D01*
X164720Y-24977D01*
X165182Y-25169D01*
Y-30320D01*
X165018Y-30485D01*
X164948Y-30510D01*
X164905Y-30550D01*
X164881Y-30568D01*
X164855Y-30584D01*
X164826Y-30599D01*
X164792Y-30613D01*
X164751Y-30625D01*
X164704Y-30636D01*
X164650Y-30644D01*
X164587Y-30649D01*
X164498Y-30651D01*
X164385Y-30700D01*
X164182D01*
X163594Y-30944D01*
X163144Y-31394D01*
X162900Y-31982D01*
Y-32618D01*
X163144Y-33206D01*
X163594Y-33656D01*
X164182Y-33900D01*
X164818D01*
X165406Y-33656D01*
X165856Y-33206D01*
X166100Y-32618D01*
Y-32415D01*
X166149Y-32302D01*
X166151Y-32213D01*
X166156Y-32150D01*
X166164Y-32096D01*
X166175Y-32049D01*
X166187Y-32008D01*
X166201Y-31974D01*
X166216Y-31945D01*
X166232Y-31919D01*
X166250Y-31895D01*
X166290Y-31852D01*
X166315Y-31782D01*
X166749Y-31349D01*
X166948Y-31051D01*
X167018Y-30700D01*
Y-28968D01*
X167518Y-28918D01*
X167542Y-29041D01*
X167741Y-29339D01*
X172682Y-34280D01*
Y-38897D01*
X172752Y-39248D01*
X172951Y-39546D01*
X174822Y-41416D01*
X174630Y-41879D01*
X81959D01*
X81808Y-41379D01*
X81852Y-41349D01*
X84649Y-38552D01*
X84848Y-38254D01*
X84918Y-37903D01*
Y-32434D01*
X85067Y-32354D01*
X85418Y-32280D01*
X85794Y-32656D01*
X86382Y-32900D01*
X87018D01*
X87551Y-32679D01*
X87773Y-33129D01*
X87097Y-33519D01*
X86519Y-34096D01*
X86111Y-34803D01*
X85900Y-35592D01*
Y-36408D01*
X86111Y-37196D01*
X86519Y-37903D01*
X87097Y-38480D01*
X87803Y-38888D01*
X88592Y-39100D01*
X89408D01*
X90197Y-38888D01*
X90903Y-38480D01*
X91481Y-37903D01*
X91889Y-37196D01*
X92100Y-36408D01*
Y-36095D01*
X92149Y-35977D01*
X92151Y-35602D01*
X92186Y-34945D01*
X92217Y-34681D01*
X92258Y-34446D01*
X92305Y-34249D01*
X92357Y-34091D01*
X92409Y-33974D01*
X92455Y-33898D01*
X92526Y-33812D01*
X92545Y-33752D01*
X95180Y-31118D01*
X101931D01*
X102122Y-31580D01*
X101247Y-32455D01*
X101187Y-32473D01*
X101101Y-32545D01*
X101025Y-32591D01*
X100908Y-32642D01*
X100751Y-32694D01*
X100553Y-32742D01*
X100333Y-32780D01*
X99391Y-32849D01*
X99022Y-32850D01*
X98905Y-32900D01*
X98592D01*
X97803Y-33111D01*
X97097Y-33519D01*
X96519Y-34096D01*
X96111Y-34803D01*
X95900Y-35592D01*
Y-36408D01*
X96111Y-37196D01*
X96519Y-37903D01*
X97097Y-38480D01*
X97803Y-38888D01*
X98592Y-39100D01*
X99408D01*
X100197Y-38888D01*
X100903Y-38480D01*
X101481Y-37903D01*
X101889Y-37196D01*
X102100Y-36408D01*
Y-36095D01*
X102149Y-35977D01*
X102151Y-35602D01*
X102186Y-34945D01*
X102217Y-34681D01*
X102258Y-34446D01*
X102305Y-34249D01*
X102357Y-34091D01*
X102409Y-33974D01*
X102455Y-33898D01*
X102526Y-33812D01*
X102545Y-33752D01*
X103980Y-32318D01*
X140200D01*
X140551Y-32248D01*
X140849Y-32049D01*
X153949Y-18949D01*
X154148Y-18651D01*
X154218Y-18300D01*
Y800D01*
X154148Y1151D01*
X153949Y1449D01*
X153374Y2024D01*
X153349Y2093D01*
X153308Y2137D01*
X153290Y2161D01*
X153274Y2187D01*
X153259Y2216D01*
X153246Y2250D01*
X153233Y2290D01*
X153223Y2337D01*
X153214Y2392D01*
X153209Y2455D01*
X153208Y2544D01*
X153158Y2657D01*
Y2860D01*
X152915Y3448D01*
X152771Y3592D01*
X152726Y3706D01*
X152664Y3771D01*
X152624Y3819D01*
X152591Y3863D01*
X152565Y3904D01*
X152545Y3941D01*
X152531Y3975D01*
X152521Y4006D01*
X152514Y4036D01*
X152510Y4065D01*
X152507Y4125D01*
X152476Y4191D01*
Y5942D01*
X152406Y6293D01*
X152207Y6591D01*
X149649Y9149D01*
X149351Y9348D01*
X149000Y9418D01*
X146400D01*
X146049Y9348D01*
X145741Y9744D01*
X146880Y10882D01*
X168629D01*
X177582Y1929D01*
D02*
G37*
G36*
X116502Y-8120D02*
X116511Y-8224D01*
X116526Y-8324D01*
X116547Y-8419D01*
X116575Y-8509D01*
X116609Y-8594D01*
X116650Y-8675D01*
X116697Y-8750D01*
X116751Y-8821D01*
X116811Y-8887D01*
X116387Y-9311D01*
X116321Y-9251D01*
X116250Y-9197D01*
X116175Y-9150D01*
X116094Y-9109D01*
X116009Y-9075D01*
X115919Y-9047D01*
X115824Y-9026D01*
X115724Y-9011D01*
X115620Y-9002D01*
X115510Y-9000D01*
X116500Y-8010D01*
X116502Y-8120D01*
D02*
G37*
G36*
X177463Y-9484D02*
X177354Y-9486D01*
X177249Y-9495D01*
X177149Y-9510D01*
X177054Y-9531D01*
X176964Y-9559D01*
X176879Y-9594D01*
X176798Y-9634D01*
X176723Y-9681D01*
X176652Y-9735D01*
X176587Y-9795D01*
X176162Y-9371D01*
X176222Y-9305D01*
X176276Y-9235D01*
X176323Y-9159D01*
X176364Y-9079D01*
X176398Y-8993D01*
X176426Y-8903D01*
X176448Y-8808D01*
X176463Y-8709D01*
X176471Y-8604D01*
X176473Y-8494D01*
X177463Y-9484D01*
D02*
G37*
G36*
X144813Y-11153D02*
X144734Y-11077D01*
X144654Y-11009D01*
X144572Y-10949D01*
X144490Y-10897D01*
X144407Y-10853D01*
X144322Y-10817D01*
X144236Y-10789D01*
X144150Y-10769D01*
X144062Y-10757D01*
X143973Y-10753D01*
Y-10153D01*
X144062Y-10149D01*
X144150Y-10137D01*
X144236Y-10117D01*
X144322Y-10089D01*
X144407Y-10053D01*
X144490Y-10009D01*
X144572Y-9957D01*
X144654Y-9897D01*
X144734Y-9829D01*
X144813Y-9753D01*
Y-11153D01*
D02*
G37*
G36*
X142428Y-13121D02*
X142349Y-13045D01*
X142269Y-12977D01*
X142187Y-12917D01*
X142105Y-12865D01*
X142022Y-12821D01*
X141937Y-12785D01*
X141851Y-12757D01*
X141765Y-12737D01*
X141677Y-12725D01*
X141588Y-12721D01*
Y-12121D01*
X141677Y-12117D01*
X141765Y-12105D01*
X141851Y-12085D01*
X141937Y-12057D01*
X142022Y-12021D01*
X142105Y-11977D01*
X142187Y-11925D01*
X142269Y-11865D01*
X142349Y-11797D01*
X142428Y-11721D01*
Y-13121D01*
D02*
G37*
G36*
X179144Y-15090D02*
X179065Y-15014D01*
X178985Y-14946D01*
X178904Y-14886D01*
X178822Y-14834D01*
X178738Y-14790D01*
X178654Y-14754D01*
X178568Y-14726D01*
X178481Y-14706D01*
X178393Y-14694D01*
X178304Y-14690D01*
Y-14090D01*
X178393Y-14086D01*
X178481Y-14074D01*
X178568Y-14054D01*
X178654Y-14026D01*
X178738Y-13990D01*
X178822Y-13946D01*
X178904Y-13894D01*
X178985Y-13834D01*
X179065Y-13766D01*
X179144Y-13690D01*
Y-15090D01*
D02*
G37*
G36*
X144813D02*
X144734Y-15014D01*
X144654Y-14946D01*
X144572Y-14886D01*
X144490Y-14834D01*
X144407Y-14790D01*
X144322Y-14754D01*
X144236Y-14726D01*
X144150Y-14706D01*
X144062Y-14694D01*
X143973Y-14690D01*
Y-14090D01*
X144062Y-14086D01*
X144150Y-14074D01*
X144236Y-14054D01*
X144322Y-14026D01*
X144407Y-13990D01*
X144490Y-13946D01*
X144572Y-13894D01*
X144654Y-13834D01*
X144734Y-13766D01*
X144813Y-13690D01*
Y-15090D01*
D02*
G37*
G36*
X180860Y-14512D02*
X180868Y-14616D01*
X180883Y-14716D01*
X180904Y-14811D01*
X180932Y-14901D01*
X180966Y-14986D01*
X181007Y-15067D01*
X181054Y-15142D01*
X181108Y-15213D01*
X181168Y-15279D01*
X180743Y-15702D01*
X180677Y-15642D01*
X180606Y-15588D01*
X180531Y-15541D01*
X180450Y-15500D01*
X180365Y-15466D01*
X180275Y-15438D01*
X180180Y-15416D01*
X180080Y-15401D01*
X179975Y-15392D01*
X179866Y-15390D01*
X180858Y-14402D01*
X180860Y-14512D01*
D02*
G37*
G36*
X143935Y-15734D02*
X144015Y-15802D01*
X144096Y-15862D01*
X144178Y-15914D01*
X144262Y-15958D01*
X144346Y-15994D01*
X144432Y-16022D01*
X144519Y-16042D01*
X144607Y-16054D01*
X144696Y-16058D01*
Y-16658D01*
X144607Y-16662D01*
X144519Y-16674D01*
X144432Y-16694D01*
X144346Y-16722D01*
X144262Y-16758D01*
X144178Y-16802D01*
X144096Y-16854D01*
X144015Y-16914D01*
X143935Y-16982D01*
X143856Y-17058D01*
Y-15658D01*
X143935Y-15734D01*
D02*
G37*
G36*
X119093Y-16676D02*
X119173Y-16744D01*
X119254Y-16804D01*
X119337Y-16856D01*
X119420Y-16900D01*
X119505Y-16936D01*
X119590Y-16964D01*
X119677Y-16984D01*
X119765Y-16996D01*
X119854Y-17000D01*
Y-17600D01*
X119765Y-17604D01*
X119677Y-17616D01*
X119590Y-17636D01*
X119505Y-17664D01*
X119420Y-17700D01*
X119337Y-17744D01*
X119254Y-17796D01*
X119173Y-17856D01*
X119093Y-17924D01*
X119014Y-18000D01*
Y-16600D01*
X119093Y-16676D01*
D02*
G37*
G36*
X146320Y-17703D02*
X146400Y-17771D01*
X146481Y-17831D01*
X146563Y-17883D01*
X146647Y-17927D01*
X146731Y-17963D01*
X146817Y-17991D01*
X146904Y-18011D01*
X146992Y-18023D01*
X147081Y-18027D01*
Y-18627D01*
X146992Y-18631D01*
X146904Y-18643D01*
X146817Y-18663D01*
X146731Y-18691D01*
X146647Y-18727D01*
X146563Y-18771D01*
X146481Y-18823D01*
X146400Y-18883D01*
X146320Y-18951D01*
X146241Y-19027D01*
Y-17627D01*
X146320Y-17703D01*
D02*
G37*
G36*
X122930Y-19530D02*
X123003Y-19588D01*
X123078Y-19638D01*
X123156Y-19682D01*
X123238Y-19719D01*
X123322Y-19749D01*
X123409Y-19772D01*
X123500Y-19788D01*
X123593Y-19798D01*
X123690Y-19800D01*
X122700Y-20790D01*
X122698Y-20694D01*
X122688Y-20600D01*
X122672Y-20509D01*
X122649Y-20422D01*
X122619Y-20338D01*
X122582Y-20256D01*
X122538Y-20178D01*
X122488Y-20102D01*
X122430Y-20030D01*
X122366Y-19961D01*
X122861Y-19466D01*
X122930Y-19530D01*
D02*
G37*
G36*
X140299Y-13407D02*
X140447Y-13855D01*
X139251Y-15051D01*
X139052Y-15349D01*
X138982Y-15700D01*
Y-18000D01*
X139052Y-18351D01*
X139251Y-18649D01*
X142151Y-21549D01*
X142449Y-21748D01*
X142800Y-21818D01*
X146134D01*
X146326Y-22280D01*
X139323Y-29282D01*
X94800D01*
X94449Y-29352D01*
X94151Y-29551D01*
X91247Y-32455D01*
X91187Y-32473D01*
X91101Y-32545D01*
X91025Y-32591D01*
X90908Y-32642D01*
X90751Y-32694D01*
X90553Y-32742D01*
X90333Y-32780D01*
X89391Y-32849D01*
X89022Y-32850D01*
X88905Y-32900D01*
X88592D01*
X87876Y-33091D01*
X87595Y-32688D01*
X87606Y-32656D01*
X88056Y-32206D01*
X88300Y-31618D01*
Y-30982D01*
X88056Y-30394D01*
X87913Y-30250D01*
X87868Y-30136D01*
X87806Y-30071D01*
X87765Y-30023D01*
X87732Y-29979D01*
X87707Y-29938D01*
X87687Y-29901D01*
X87673Y-29867D01*
X87662Y-29836D01*
X87656Y-29806D01*
X87651Y-29776D01*
X87649Y-29717D01*
X87618Y-29650D01*
Y-29168D01*
X101568Y-15218D01*
X117939D01*
X117982Y-15700D01*
X117394Y-15944D01*
X116944Y-16394D01*
X116700Y-16982D01*
Y-17618D01*
X116871Y-18031D01*
X116615Y-18531D01*
X100700D01*
X100329Y-18605D01*
X100015Y-18815D01*
X92466Y-26364D01*
X92397Y-26390D01*
X92346Y-26437D01*
X92314Y-26463D01*
X92282Y-26484D01*
X92251Y-26502D01*
X92219Y-26516D01*
X92186Y-26528D01*
X92150Y-26537D01*
X92110Y-26544D01*
X92066Y-26549D01*
X91993Y-26551D01*
X91883Y-26600D01*
X91682D01*
X91094Y-26844D01*
X90644Y-27294D01*
X90400Y-27882D01*
Y-28518D01*
X90644Y-29106D01*
X91094Y-29556D01*
X91682Y-29800D01*
X92318D01*
X92906Y-29556D01*
X93356Y-29106D01*
X93600Y-28518D01*
Y-28317D01*
X93649Y-28207D01*
X93651Y-28134D01*
X93655Y-28090D01*
X93663Y-28050D01*
X93672Y-28014D01*
X93684Y-27981D01*
X93698Y-27949D01*
X93716Y-27918D01*
X93737Y-27886D01*
X93763Y-27854D01*
X93810Y-27803D01*
X93835Y-27734D01*
X101101Y-20469D01*
X121949D01*
X121963Y-20486D01*
X121984Y-20518D01*
X122002Y-20549D01*
X122016Y-20581D01*
X122028Y-20614D01*
X122037Y-20650D01*
X122045Y-20690D01*
X122049Y-20734D01*
X122051Y-20807D01*
X122100Y-20917D01*
Y-21118D01*
X122344Y-21706D01*
X122794Y-22156D01*
X123382Y-22400D01*
X124018D01*
X124606Y-22156D01*
X125056Y-21706D01*
X125300Y-21118D01*
Y-20482D01*
X125056Y-19894D01*
X124606Y-19444D01*
X124018Y-19200D01*
X123817D01*
X123706Y-19151D01*
X123634Y-19149D01*
X123590Y-19145D01*
X123550Y-19137D01*
X123514Y-19128D01*
X123481Y-19116D01*
X123449Y-19102D01*
X123418Y-19084D01*
X123386Y-19063D01*
X123354Y-19037D01*
X123303Y-18990D01*
X123234Y-18965D01*
X123085Y-18815D01*
X122939Y-18718D01*
X123091Y-18218D01*
X124920D01*
X125882Y-19180D01*
Y-22720D01*
X122920Y-25682D01*
X101350D01*
X101283Y-25651D01*
X101224Y-25649D01*
X101194Y-25644D01*
X101164Y-25638D01*
X101133Y-25627D01*
X101099Y-25613D01*
X101062Y-25593D01*
X101021Y-25568D01*
X100977Y-25535D01*
X100929Y-25494D01*
X100865Y-25432D01*
X100750Y-25387D01*
X100606Y-25244D01*
X100018Y-25000D01*
X99382D01*
X98794Y-25244D01*
X98344Y-25694D01*
X98100Y-26282D01*
Y-26918D01*
X98344Y-27506D01*
X98794Y-27956D01*
X99382Y-28200D01*
X100018D01*
X100606Y-27956D01*
X100750Y-27813D01*
X100865Y-27768D01*
X100929Y-27706D01*
X100977Y-27665D01*
X101021Y-27632D01*
X101062Y-27607D01*
X101099Y-27587D01*
X101133Y-27573D01*
X101164Y-27562D01*
X101194Y-27556D01*
X101224Y-27551D01*
X101283Y-27549D01*
X101350Y-27518D01*
X123300D01*
X123651Y-27448D01*
X123949Y-27249D01*
X127449Y-23749D01*
X127648Y-23451D01*
X127718Y-23100D01*
Y-18800D01*
X127648Y-18449D01*
X127449Y-18151D01*
X125949Y-16651D01*
X125651Y-16452D01*
X125300Y-16382D01*
X119950D01*
X119883Y-16351D01*
X119824Y-16349D01*
X119794Y-16344D01*
X119764Y-16338D01*
X119733Y-16328D01*
X119699Y-16313D01*
X119662Y-16293D01*
X119621Y-16268D01*
X119577Y-16235D01*
X119529Y-16194D01*
X119465Y-16132D01*
X119350Y-16087D01*
X119206Y-15944D01*
X118618Y-15700D01*
X118661Y-15218D01*
X137594D01*
X137945Y-15148D01*
X138243Y-14949D01*
X139810Y-13382D01*
X140299Y-13407D01*
D02*
G37*
G36*
X169014Y-26283D02*
X168946Y-26363D01*
X168886Y-26444D01*
X168834Y-26526D01*
X168790Y-26610D01*
X168754Y-26694D01*
X168726Y-26780D01*
X168706Y-26867D01*
X168694Y-26955D01*
X168690Y-27044D01*
X168090D01*
X168086Y-26955D01*
X168074Y-26867D01*
X168054Y-26780D01*
X168026Y-26694D01*
X167990Y-26610D01*
X167946Y-26526D01*
X167894Y-26444D01*
X167834Y-26363D01*
X167766Y-26283D01*
X167690Y-26204D01*
X169090D01*
X169014Y-26283D01*
D02*
G37*
G36*
X100493Y-25976D02*
X100573Y-26044D01*
X100654Y-26104D01*
X100737Y-26156D01*
X100820Y-26200D01*
X100905Y-26236D01*
X100990Y-26264D01*
X101077Y-26284D01*
X101165Y-26296D01*
X101254Y-26300D01*
Y-26900D01*
X101165Y-26904D01*
X101077Y-26916D01*
X100990Y-26936D01*
X100905Y-26964D01*
X100820Y-27000D01*
X100737Y-27044D01*
X100654Y-27096D01*
X100573Y-27156D01*
X100493Y-27224D01*
X100414Y-27300D01*
Y-25900D01*
X100493Y-25976D01*
D02*
G37*
G36*
X93334Y-27361D02*
X93270Y-27430D01*
X93212Y-27503D01*
X93162Y-27578D01*
X93118Y-27656D01*
X93081Y-27738D01*
X93051Y-27822D01*
X93028Y-27909D01*
X93012Y-28000D01*
X93002Y-28093D01*
X93000Y-28190D01*
X92010Y-27200D01*
X92106Y-27198D01*
X92200Y-27188D01*
X92291Y-27172D01*
X92378Y-27149D01*
X92462Y-27119D01*
X92544Y-27082D01*
X92622Y-27038D01*
X92698Y-26988D01*
X92770Y-26930D01*
X92839Y-26866D01*
X93334Y-27361D01*
D02*
G37*
G36*
X174486Y-29300D02*
X174407Y-29224D01*
X174327Y-29156D01*
X174246Y-29096D01*
X174163Y-29044D01*
X174080Y-29000D01*
X173995Y-28964D01*
X173910Y-28936D01*
X173823Y-28916D01*
X173735Y-28904D01*
X173646Y-28900D01*
Y-28300D01*
X173735Y-28296D01*
X173823Y-28284D01*
X173910Y-28264D01*
X173995Y-28236D01*
X174080Y-28200D01*
X174163Y-28156D01*
X174246Y-28104D01*
X174327Y-28044D01*
X174407Y-27976D01*
X174486Y-27900D01*
Y-29300D01*
D02*
G37*
G36*
X87004Y-29835D02*
X87016Y-29923D01*
X87036Y-30010D01*
X87064Y-30095D01*
X87100Y-30180D01*
X87144Y-30263D01*
X87196Y-30346D01*
X87256Y-30427D01*
X87324Y-30507D01*
X87400Y-30586D01*
X86000D01*
X86076Y-30507D01*
X86144Y-30427D01*
X86204Y-30346D01*
X86256Y-30263D01*
X86300Y-30180D01*
X86336Y-30095D01*
X86364Y-30010D01*
X86384Y-29923D01*
X86396Y-29835D01*
X86400Y-29746D01*
X87000D01*
X87004Y-29835D01*
D02*
G37*
G36*
X165811Y-31413D02*
X165751Y-31479D01*
X165697Y-31550D01*
X165650Y-31625D01*
X165609Y-31706D01*
X165575Y-31791D01*
X165547Y-31881D01*
X165526Y-31976D01*
X165511Y-32076D01*
X165502Y-32180D01*
X165500Y-32290D01*
X164510Y-31300D01*
X164620Y-31298D01*
X164724Y-31289D01*
X164824Y-31274D01*
X164919Y-31253D01*
X165009Y-31225D01*
X165094Y-31191D01*
X165175Y-31150D01*
X165250Y-31103D01*
X165321Y-31049D01*
X165387Y-30989D01*
X165811Y-31413D01*
D02*
G37*
G36*
X62362Y-33962D02*
X62288Y-34054D01*
X62209Y-34183D01*
X62127Y-34352D01*
X62039Y-34559D01*
X61852Y-35089D01*
X61537Y-36173D01*
X61424Y-36612D01*
X59661Y-33589D01*
X59999Y-33673D01*
X60610Y-33775D01*
X60882Y-33792D01*
X61132Y-33787D01*
X61360Y-33760D01*
X61566Y-33710D01*
X61749Y-33637D01*
X61911Y-33543D01*
X62050Y-33425D01*
X62362Y-33962D01*
D02*
G37*
G36*
X159315Y-32179D02*
X159358Y-32354D01*
X159431Y-32541D01*
X159532Y-32741D01*
X159662Y-32954D01*
X159822Y-33181D01*
X160011Y-33420D01*
X160475Y-33937D01*
X160750Y-34214D01*
X157250D01*
X157526Y-33937D01*
X158178Y-33181D01*
X158337Y-32954D01*
X158468Y-32741D01*
X158570Y-32541D01*
X158642Y-32354D01*
X158686Y-32179D01*
X158700Y-32018D01*
X159300D01*
X159315Y-32179D01*
D02*
G37*
G36*
X79315D02*
X79358Y-32354D01*
X79431Y-32541D01*
X79532Y-32741D01*
X79663Y-32954D01*
X79822Y-33181D01*
X80010Y-33420D01*
X80475Y-33937D01*
X80750Y-34214D01*
X77250D01*
X77526Y-33937D01*
X78178Y-33181D01*
X78338Y-32954D01*
X78468Y-32741D01*
X78570Y-32541D01*
X78642Y-32354D01*
X78685Y-32179D01*
X78700Y-32018D01*
X79300D01*
X79315Y-32179D01*
D02*
G37*
G36*
X181649Y-33008D02*
X181533Y-33146D01*
X181439Y-33307D01*
X181365Y-33492D01*
X181312Y-33699D01*
X181280Y-33930D01*
X181269Y-34184D01*
X181279Y-34462D01*
X181310Y-34762D01*
X181362Y-35086D01*
X181435Y-35433D01*
X178482Y-33554D01*
X178914Y-33459D01*
X180515Y-33011D01*
X180724Y-32925D01*
X180896Y-32842D01*
X181032Y-32760D01*
X181130Y-32679D01*
X181649Y-33008D01*
D02*
G37*
G36*
X152028Y-33396D02*
X151924Y-33521D01*
X151831Y-33675D01*
X151750Y-33858D01*
X151680Y-34072D01*
X151622Y-34315D01*
X151575Y-34588D01*
X151539Y-34890D01*
X151502Y-35583D01*
X151500Y-35975D01*
X149025Y-33500D01*
X149416Y-33498D01*
X150412Y-33425D01*
X150685Y-33378D01*
X150928Y-33320D01*
X151141Y-33250D01*
X151325Y-33168D01*
X151479Y-33076D01*
X151603Y-32972D01*
X152028Y-33396D01*
D02*
G37*
G36*
X102028Y-33396D02*
X101924Y-33521D01*
X101831Y-33675D01*
X101750Y-33858D01*
X101680Y-34072D01*
X101622Y-34315D01*
X101575Y-34588D01*
X101539Y-34890D01*
X101502Y-35583D01*
X101500Y-35975D01*
X99025Y-33500D01*
X99416Y-33498D01*
X100412Y-33425D01*
X100685Y-33378D01*
X100928Y-33320D01*
X101141Y-33250D01*
X101325Y-33168D01*
X101479Y-33076D01*
X101603Y-32972D01*
X102028Y-33396D01*
D02*
G37*
G36*
X92028D02*
X91924Y-33521D01*
X91831Y-33675D01*
X91750Y-33858D01*
X91680Y-34072D01*
X91622Y-34315D01*
X91575Y-34588D01*
X91539Y-34890D01*
X91501Y-35583D01*
X91500Y-35975D01*
X89025Y-33500D01*
X89416Y-33498D01*
X90412Y-33425D01*
X90685Y-33378D01*
X90928Y-33320D01*
X91141Y-33250D01*
X91325Y-33168D01*
X91479Y-33076D01*
X91603Y-32972D01*
X92028Y-33396D01*
D02*
G37*
G36*
X42028D02*
X41924Y-33521D01*
X41831Y-33675D01*
X41750Y-33858D01*
X41680Y-34072D01*
X41622Y-34315D01*
X41575Y-34588D01*
X41539Y-34890D01*
X41502Y-35583D01*
X41500Y-35975D01*
X39025Y-33500D01*
X39416Y-33498D01*
X40412Y-33425D01*
X40685Y-33378D01*
X40928Y-33320D01*
X41141Y-33250D01*
X41325Y-33168D01*
X41479Y-33076D01*
X41603Y-32972D01*
X42028Y-33396D01*
D02*
G37*
G36*
X186221Y-33375D02*
X186382Y-33470D01*
X186566Y-33546D01*
X186776Y-33602D01*
X187010Y-33639D01*
X187269Y-33658D01*
X187553Y-33657D01*
X187861Y-33637D01*
X188551Y-33540D01*
X186532Y-36399D01*
X186460Y-35977D01*
X186155Y-34640D01*
X186074Y-34393D01*
X185992Y-34182D01*
X185908Y-34006D01*
X185822Y-33865D01*
X185735Y-33759D01*
X186086Y-33261D01*
X186221Y-33375D01*
D02*
G37*
G36*
X51502Y-36416D02*
X51575Y-37412D01*
X51622Y-37685D01*
X51680Y-37927D01*
X51750Y-38141D01*
X51831Y-38325D01*
X51924Y-38479D01*
X52028Y-38603D01*
X51604Y-39028D01*
X51479Y-38923D01*
X51325Y-38831D01*
X51141Y-38750D01*
X50928Y-38680D01*
X50685Y-38621D01*
X50412Y-38574D01*
X50110Y-38539D01*
X49416Y-38501D01*
X49025Y-38500D01*
X51500Y-36025D01*
X51502Y-36416D01*
D02*
G37*
G36*
X201000Y41878D02*
X202147Y41765D01*
X203250Y41431D01*
X204266Y40888D01*
X205157Y40157D01*
X205888Y39266D01*
X206431Y38249D01*
X206765Y37147D01*
X206878Y36000D01*
X206878D01*
Y21000D01*
X189000D01*
Y-21500D01*
X206878D01*
Y-36000D01*
X206878D01*
X206765Y-37147D01*
X206431Y-38249D01*
X205888Y-39266D01*
X205157Y-40157D01*
X204266Y-40888D01*
X203250Y-41431D01*
X202147Y-41765D01*
X201000Y-41878D01*
Y-41878D01*
X201000Y-41879D01*
X192370D01*
X192178Y-41416D01*
X194249Y-39346D01*
X194448Y-39048D01*
X194518Y-38697D01*
Y-33600D01*
X194448Y-33249D01*
X194249Y-32951D01*
X186918Y-25620D01*
Y8800D01*
X186848Y9151D01*
X186649Y9449D01*
X166049Y30049D01*
X165751Y30248D01*
X165400Y30318D01*
X125980D01*
X122545Y33753D01*
X122526Y33813D01*
X122455Y33899D01*
X122409Y33975D01*
X122357Y34092D01*
X122306Y34249D01*
X122258Y34447D01*
X122220Y34667D01*
X122151Y35609D01*
X122149Y35978D01*
X122100Y36095D01*
Y36408D01*
X121889Y37197D01*
X121481Y37903D01*
X120903Y38481D01*
X120197Y38889D01*
X119408Y39100D01*
X118592D01*
X117803Y38889D01*
X117097Y38481D01*
X116519Y37903D01*
X116111Y37197D01*
X115900Y36408D01*
Y35592D01*
X116111Y34803D01*
X116519Y34097D01*
X117097Y33519D01*
X117803Y33111D01*
X118592Y32900D01*
X118905D01*
X119022Y32851D01*
X119397Y32849D01*
X120054Y32814D01*
X120319Y32783D01*
X120553Y32742D01*
X120751Y32695D01*
X120908Y32643D01*
X121025Y32591D01*
X121101Y32545D01*
X121187Y32474D01*
X121247Y32455D01*
X124885Y28818D01*
X124834Y28549D01*
X124700Y28318D01*
X119380D01*
X115118Y32580D01*
Y38100D01*
X115048Y38451D01*
X114849Y38749D01*
X112219Y41378D01*
X112426Y41878D01*
X201000D01*
Y41878D01*
D02*
G37*
%LPC*%
G36*
X52142Y39115D02*
X48992D01*
X48374Y38992D01*
X47850Y38642D01*
X47500Y38118D01*
X47377Y37500D01*
X47500Y36882D01*
X47850Y36358D01*
X48374Y36008D01*
X48992Y35885D01*
X52142D01*
X52760Y36008D01*
X53284Y36358D01*
X53634Y36882D01*
X53757Y37500D01*
X53634Y38118D01*
X53284Y38642D01*
X52760Y38992D01*
X52142Y39115D01*
D02*
G37*
G36*
X53818Y29300D02*
X53182D01*
X52594Y29056D01*
X52568Y29030D01*
X52142Y29115D01*
X48992D01*
X48374Y28992D01*
X47850Y28642D01*
X47796Y28561D01*
X47774Y28553D01*
X47749Y28491D01*
X47733Y28467D01*
X47570Y28452D01*
X47448Y28449D01*
X47375Y28418D01*
X41900D01*
X41549Y28348D01*
X41251Y28149D01*
X41247Y28145D01*
X41187Y28126D01*
X41101Y28055D01*
X41025Y28009D01*
X40908Y27957D01*
X40751Y27905D01*
X40553Y27858D01*
X40333Y27820D01*
X39391Y27751D01*
X39022Y27749D01*
X38905Y27700D01*
X38592D01*
X37803Y27489D01*
X37097Y27081D01*
X36519Y26503D01*
X36111Y25797D01*
X35900Y25008D01*
Y24192D01*
X36111Y23403D01*
X36519Y22697D01*
X37097Y22119D01*
X37803Y21711D01*
X38592Y21500D01*
X39408D01*
X40197Y21711D01*
X40903Y22119D01*
X41481Y22697D01*
X41889Y23403D01*
X42100Y24192D01*
Y24505D01*
X42149Y24622D01*
X42151Y24997D01*
X42186Y25654D01*
X42217Y25919D01*
X42258Y26153D01*
X42305Y26351D01*
X42357Y26508D01*
X42390Y26582D01*
X47375D01*
X47448Y26551D01*
X47579Y26548D01*
X47676Y26542D01*
X47732Y26535D01*
X47749Y26509D01*
X47774Y26447D01*
X47796Y26439D01*
X47850Y26358D01*
X48374Y26008D01*
X48992Y25885D01*
X52142D01*
X52760Y26008D01*
X53007Y26173D01*
X53182Y26100D01*
X53818D01*
X54406Y26344D01*
X54856Y26794D01*
X55100Y27382D01*
Y28018D01*
X54856Y28606D01*
X54406Y29056D01*
X53818Y29300D01*
D02*
G37*
G36*
X52142Y24115D02*
X48992D01*
X48374Y23992D01*
X47850Y23642D01*
X47500Y23118D01*
X47377Y22500D01*
X47500Y21882D01*
X47850Y21358D01*
X48374Y21008D01*
X48992Y20885D01*
X52142D01*
X52760Y21008D01*
X53284Y21358D01*
X53634Y21882D01*
X53757Y22500D01*
X53634Y23118D01*
X53284Y23642D01*
X52760Y23992D01*
X52142Y24115D01*
D02*
G37*
G36*
X86218Y16700D02*
X85582D01*
X85042Y16476D01*
X53900D01*
X53373Y16372D01*
X52927Y16073D01*
X47533Y10680D01*
X46994Y10456D01*
X46544Y10006D01*
X46300Y9418D01*
Y8782D01*
X46544Y8194D01*
X46994Y7744D01*
X47582Y7500D01*
X48218D01*
X48806Y7744D01*
X49256Y8194D01*
X49480Y8733D01*
X54470Y13724D01*
X85042D01*
X85582Y13500D01*
X86218D01*
X86806Y13744D01*
X87256Y14194D01*
X87500Y14782D01*
Y15418D01*
X87256Y16006D01*
X86806Y16456D01*
X86218Y16700D01*
D02*
G37*
G36*
X24732Y13258D02*
X23984D01*
X23294Y12971D01*
X22765Y12443D01*
X22479Y11752D01*
Y11004D01*
X22765Y10313D01*
X23294Y9785D01*
X23984Y9498D01*
X24732D01*
X25423Y9785D01*
X25952Y10313D01*
X26238Y11004D01*
Y11752D01*
X25952Y12443D01*
X25423Y12971D01*
X24732Y13258D01*
D02*
G37*
G36*
X25818Y3700D02*
X25182D01*
X24594Y3456D01*
X24144Y3006D01*
X23900Y2418D01*
Y1782D01*
X24144Y1194D01*
X24594Y744D01*
X25182Y500D01*
X25818D01*
X26406Y744D01*
X26548Y886D01*
X26662Y929D01*
X26714Y979D01*
X26748Y1007D01*
X26782Y1030D01*
X26814Y1049D01*
X26846Y1064D01*
X26878Y1077D01*
X26913Y1086D01*
X26950Y1094D01*
X26991Y1098D01*
X27061Y1101D01*
X27127Y1131D01*
X43999D01*
X46064Y-934D01*
X46090Y-1003D01*
X46137Y-1054D01*
X46163Y-1086D01*
X46184Y-1118D01*
X46202Y-1149D01*
X46216Y-1181D01*
X46228Y-1214D01*
X46237Y-1250D01*
X46244Y-1290D01*
X46249Y-1334D01*
X46251Y-1407D01*
X46300Y-1517D01*
Y-1718D01*
X46544Y-2306D01*
X46959Y-2722D01*
X46944Y-2884D01*
X46812Y-3222D01*
X44992D01*
X44038Y-2268D01*
X43723Y-2058D01*
X43353Y-1984D01*
X26280D01*
X26213Y-1954D01*
X26144Y-1951D01*
X26103Y-1946D01*
X26065Y-1939D01*
X26031Y-1929D01*
X25998Y-1917D01*
X25967Y-1902D01*
X25934Y-1883D01*
X25901Y-1860D01*
X25867Y-1832D01*
X25814Y-1782D01*
X25701Y-1739D01*
X25559Y-1596D01*
X24971Y-1353D01*
X24335D01*
X23746Y-1596D01*
X23296Y-2046D01*
X23053Y-2634D01*
Y-3271D01*
X23296Y-3859D01*
X23746Y-4309D01*
X24335Y-4553D01*
X24971D01*
X25559Y-4309D01*
X25701Y-4167D01*
X25814Y-4123D01*
X25867Y-4074D01*
X25901Y-4045D01*
X25934Y-4022D01*
X25967Y-4004D01*
X25998Y-3988D01*
X26031Y-3976D01*
X26065Y-3966D01*
X26103Y-3959D01*
X26144Y-3954D01*
X26213Y-3952D01*
X26280Y-3921D01*
X42952D01*
X43906Y-4876D01*
X44220Y-5086D01*
X44591Y-5159D01*
X48309D01*
X48680Y-5086D01*
X48994Y-4876D01*
X50534Y-3336D01*
X50603Y-3310D01*
X50654Y-3263D01*
X50686Y-3237D01*
X50718Y-3216D01*
X50749Y-3198D01*
X50781Y-3184D01*
X50814Y-3172D01*
X50850Y-3163D01*
X50890Y-3156D01*
X50934Y-3151D01*
X51007Y-3149D01*
X51117Y-3100D01*
X51318D01*
X51906Y-2856D01*
X52356Y-2406D01*
X52600Y-1818D01*
Y-1182D01*
X52356Y-594D01*
X51906Y-144D01*
X51318Y100D01*
X50682D01*
X50094Y-144D01*
X49782Y-455D01*
X49363Y-486D01*
X49177Y-414D01*
X48806Y-44D01*
X48218Y200D01*
X48017D01*
X47907Y249D01*
X47834Y251D01*
X47790Y255D01*
X47750Y263D01*
X47714Y272D01*
X47681Y284D01*
X47649Y298D01*
X47618Y316D01*
X47586Y337D01*
X47554Y363D01*
X47503Y410D01*
X47434Y435D01*
X45085Y2785D01*
X44771Y2995D01*
X44400Y3069D01*
X27127D01*
X27061Y3099D01*
X26991Y3102D01*
X26950Y3106D01*
X26913Y3114D01*
X26878Y3123D01*
X26846Y3136D01*
X26814Y3151D01*
X26782Y3170D01*
X26749Y3193D01*
X26714Y3221D01*
X26662Y3271D01*
X26548Y3314D01*
X26406Y3456D01*
X25818Y3700D01*
D02*
G37*
G36*
X24732Y-9498D02*
X23984D01*
X23294Y-9785D01*
X22765Y-10313D01*
X22479Y-11004D01*
Y-11752D01*
X22765Y-12443D01*
X23294Y-12971D01*
X23984Y-13258D01*
X24732D01*
X25423Y-12971D01*
X25952Y-12443D01*
X26238Y-11752D01*
Y-11004D01*
X25952Y-10313D01*
X25423Y-9785D01*
X24732Y-9498D01*
D02*
G37*
%LPD*%
G36*
X48234Y26907D02*
X48226Y26962D01*
X48203Y27012D01*
X48164Y27056D01*
X48110Y27094D01*
X48040Y27127D01*
X47955Y27153D01*
X47855Y27174D01*
X47739Y27188D01*
X47607Y27197D01*
X47460Y27200D01*
Y27800D01*
X47607Y27803D01*
X47855Y27826D01*
X47955Y27847D01*
X48040Y27873D01*
X48110Y27906D01*
X48164Y27944D01*
X48203Y27988D01*
X48226Y28038D01*
X48234Y28093D01*
Y26907D01*
D02*
G37*
G36*
X52940Y26871D02*
X52844Y26934D01*
X52654Y27039D01*
X52562Y27082D01*
X52470Y27118D01*
X52380Y27147D01*
X52292Y27170D01*
X52205Y27187D01*
X52119Y27197D01*
X52034Y27200D01*
X51905Y27800D01*
X51997Y27804D01*
X52085Y27818D01*
X52170Y27840D01*
X52251Y27871D01*
X52328Y27911D01*
X52402Y27959D01*
X52472Y28017D01*
X52538Y28084D01*
X52601Y28159D01*
X52660Y28243D01*
X52940Y26871D01*
D02*
G37*
G36*
X42028Y27204D02*
X41924Y27079D01*
X41831Y26925D01*
X41750Y26741D01*
X41680Y26528D01*
X41622Y26285D01*
X41575Y26012D01*
X41539Y25710D01*
X41502Y25016D01*
X41500Y24625D01*
X39025Y27100D01*
X39416Y27101D01*
X40412Y27175D01*
X40685Y27222D01*
X40928Y27280D01*
X41141Y27350D01*
X41325Y27431D01*
X41479Y27524D01*
X41603Y27628D01*
X42028Y27204D01*
D02*
G37*
G36*
X26284Y2733D02*
X26357Y2674D01*
X26432Y2622D01*
X26510Y2576D01*
X26591Y2537D01*
X26675Y2506D01*
X26761Y2482D01*
X26850Y2464D01*
X26942Y2454D01*
X27037Y2450D01*
Y1750D01*
X26942Y1746D01*
X26850Y1736D01*
X26761Y1719D01*
X26675Y1694D01*
X26591Y1663D01*
X26510Y1624D01*
X26432Y1578D01*
X26357Y1526D01*
X26284Y1467D01*
X26214Y1400D01*
Y2800D01*
X26284Y2733D01*
D02*
G37*
G36*
X47130Y-130D02*
X47203Y-188D01*
X47278Y-238D01*
X47356Y-282D01*
X47438Y-319D01*
X47522Y-349D01*
X47609Y-372D01*
X47700Y-388D01*
X47793Y-398D01*
X47890Y-400D01*
X46900Y-1390D01*
X46898Y-1293D01*
X46888Y-1200D01*
X46872Y-1110D01*
X46849Y-1022D01*
X46819Y-938D01*
X46782Y-856D01*
X46738Y-778D01*
X46688Y-703D01*
X46630Y-630D01*
X46566Y-561D01*
X47061Y-66D01*
X47130Y-130D01*
D02*
G37*
G36*
X50990Y-2500D02*
X50893Y-2502D01*
X50800Y-2512D01*
X50709Y-2528D01*
X50622Y-2551D01*
X50538Y-2581D01*
X50456Y-2618D01*
X50378Y-2662D01*
X50302Y-2712D01*
X50230Y-2770D01*
X50161Y-2834D01*
X49666Y-2339D01*
X49730Y-2270D01*
X49788Y-2197D01*
X49838Y-2122D01*
X49882Y-2044D01*
X49919Y-1962D01*
X49949Y-1878D01*
X49972Y-1791D01*
X49988Y-1700D01*
X49998Y-1606D01*
X50000Y-1510D01*
X50990Y-2500D01*
D02*
G37*
G36*
X25437Y-2319D02*
X25510Y-2379D01*
X25585Y-2431D01*
X25663Y-2477D01*
X25744Y-2515D01*
X25828Y-2547D01*
X25914Y-2571D01*
X26003Y-2589D01*
X26095Y-2599D01*
X26190Y-2603D01*
Y-3303D01*
X26095Y-3306D01*
X26003Y-3317D01*
X25914Y-3334D01*
X25828Y-3359D01*
X25744Y-3390D01*
X25663Y-3429D01*
X25585Y-3474D01*
X25510Y-3527D01*
X25437Y-3586D01*
X25367Y-3653D01*
Y-2253D01*
X25437Y-2319D01*
D02*
G37*
%LPC*%
G36*
X169408Y-32900D02*
X168592D01*
X167803Y-33111D01*
X167097Y-33519D01*
X166519Y-34096D01*
X166111Y-34803D01*
X165900Y-35592D01*
Y-36408D01*
X166111Y-37196D01*
X166519Y-37903D01*
X167097Y-38480D01*
X167803Y-38888D01*
X168592Y-39100D01*
X169408D01*
X170197Y-38888D01*
X170903Y-38480D01*
X171481Y-37903D01*
X171889Y-37196D01*
X172100Y-36408D01*
Y-35592D01*
X171889Y-34803D01*
X171481Y-34096D01*
X170903Y-33519D01*
X170197Y-33111D01*
X169408Y-32900D01*
D02*
G37*
G36*
X139408D02*
X138592D01*
X137803Y-33111D01*
X137097Y-33519D01*
X136519Y-34096D01*
X136111Y-34803D01*
X135900Y-35592D01*
Y-36408D01*
X136111Y-37196D01*
X136519Y-37903D01*
X137097Y-38480D01*
X137803Y-38888D01*
X138592Y-39100D01*
X139408D01*
X140197Y-38888D01*
X140903Y-38480D01*
X141481Y-37903D01*
X141889Y-37196D01*
X142100Y-36408D01*
Y-35592D01*
X141889Y-34803D01*
X141481Y-34096D01*
X140903Y-33519D01*
X140197Y-33111D01*
X139408Y-32900D01*
D02*
G37*
G36*
X129408D02*
X128592D01*
X127803Y-33111D01*
X127097Y-33519D01*
X126519Y-34096D01*
X126111Y-34803D01*
X125900Y-35592D01*
Y-36408D01*
X126111Y-37196D01*
X126519Y-37903D01*
X127097Y-38480D01*
X127803Y-38888D01*
X128592Y-39100D01*
X129408D01*
X130197Y-38888D01*
X130903Y-38480D01*
X131481Y-37903D01*
X131889Y-37196D01*
X132100Y-36408D01*
Y-35592D01*
X131889Y-34803D01*
X131481Y-34096D01*
X130903Y-33519D01*
X130197Y-33111D01*
X129408Y-32900D01*
D02*
G37*
G36*
X119408D02*
X118592D01*
X117803Y-33111D01*
X117097Y-33519D01*
X116519Y-34096D01*
X116111Y-34803D01*
X115900Y-35592D01*
Y-36408D01*
X116111Y-37196D01*
X116519Y-37903D01*
X117097Y-38480D01*
X117803Y-38888D01*
X118592Y-39100D01*
X119408D01*
X120197Y-38888D01*
X120903Y-38480D01*
X121481Y-37903D01*
X121889Y-37196D01*
X122100Y-36408D01*
Y-35592D01*
X121889Y-34803D01*
X121481Y-34096D01*
X120903Y-33519D01*
X120197Y-33111D01*
X119408Y-32900D01*
D02*
G37*
G36*
X109408D02*
X108592D01*
X107803Y-33111D01*
X107097Y-33519D01*
X106519Y-34096D01*
X106111Y-34803D01*
X105900Y-35592D01*
Y-36408D01*
X106111Y-37196D01*
X106519Y-37903D01*
X107097Y-38480D01*
X107803Y-38888D01*
X108592Y-39100D01*
X109408D01*
X110197Y-38888D01*
X110903Y-38480D01*
X111481Y-37903D01*
X111889Y-37196D01*
X112100Y-36408D01*
Y-35592D01*
X111889Y-34803D01*
X111481Y-34096D01*
X110903Y-33519D01*
X110197Y-33111D01*
X109408Y-32900D01*
D02*
G37*
G36*
X189408Y39100D02*
X188592D01*
X187803Y38889D01*
X187097Y38481D01*
X186519Y37903D01*
X186111Y37197D01*
X185900Y36408D01*
Y35592D01*
X186111Y34803D01*
X186519Y34097D01*
X187097Y33519D01*
X187803Y33111D01*
X188592Y32900D01*
X189408D01*
X190197Y33111D01*
X190903Y33519D01*
X191481Y34097D01*
X191889Y34803D01*
X192100Y35592D01*
Y36408D01*
X191889Y37197D01*
X191481Y37903D01*
X190903Y38481D01*
X190197Y38889D01*
X189408Y39100D01*
D02*
G37*
G36*
X179408D02*
X178592D01*
X177803Y38889D01*
X177097Y38481D01*
X176519Y37903D01*
X176111Y37197D01*
X175900Y36408D01*
Y35592D01*
X176111Y34803D01*
X176519Y34097D01*
X177097Y33519D01*
X177803Y33111D01*
X178592Y32900D01*
X179408D01*
X180197Y33111D01*
X180903Y33519D01*
X181481Y34097D01*
X181889Y34803D01*
X182100Y35592D01*
Y36408D01*
X181889Y37197D01*
X181481Y37903D01*
X180903Y38481D01*
X180197Y38889D01*
X179408Y39100D01*
D02*
G37*
G36*
X169408D02*
X168592D01*
X167803Y38889D01*
X167097Y38481D01*
X166519Y37903D01*
X166111Y37197D01*
X165900Y36408D01*
Y35592D01*
X166111Y34803D01*
X166519Y34097D01*
X167097Y33519D01*
X167803Y33111D01*
X168592Y32900D01*
X169408D01*
X170197Y33111D01*
X170903Y33519D01*
X171481Y34097D01*
X171889Y34803D01*
X172100Y35592D01*
Y36408D01*
X171889Y37197D01*
X171481Y37903D01*
X170903Y38481D01*
X170197Y38889D01*
X169408Y39100D01*
D02*
G37*
G36*
X159408D02*
X158592D01*
X157803Y38889D01*
X157097Y38481D01*
X156519Y37903D01*
X156111Y37197D01*
X155900Y36408D01*
Y35592D01*
X156111Y34803D01*
X156519Y34097D01*
X157097Y33519D01*
X157803Y33111D01*
X158592Y32900D01*
X159408D01*
X160197Y33111D01*
X160903Y33519D01*
X161481Y34097D01*
X161889Y34803D01*
X162100Y35592D01*
Y36408D01*
X161889Y37197D01*
X161481Y37903D01*
X160903Y38481D01*
X160197Y38889D01*
X159408Y39100D01*
D02*
G37*
G36*
X149408D02*
X148592D01*
X147803Y38889D01*
X147097Y38481D01*
X146519Y37903D01*
X146111Y37197D01*
X145900Y36408D01*
Y35592D01*
X146111Y34803D01*
X146519Y34097D01*
X147097Y33519D01*
X147803Y33111D01*
X148592Y32900D01*
X149408D01*
X150197Y33111D01*
X150903Y33519D01*
X151481Y34097D01*
X151889Y34803D01*
X152100Y35592D01*
Y36408D01*
X151889Y37197D01*
X151481Y37903D01*
X150903Y38481D01*
X150197Y38889D01*
X149408Y39100D01*
D02*
G37*
G36*
X139408D02*
X138592D01*
X137803Y38889D01*
X137097Y38481D01*
X136519Y37903D01*
X136111Y37197D01*
X135900Y36408D01*
Y35592D01*
X136111Y34803D01*
X136519Y34097D01*
X137097Y33519D01*
X137803Y33111D01*
X138592Y32900D01*
X139408D01*
X140197Y33111D01*
X140903Y33519D01*
X141481Y34097D01*
X141889Y34803D01*
X142100Y35592D01*
Y36408D01*
X141889Y37197D01*
X141481Y37903D01*
X140903Y38481D01*
X140197Y38889D01*
X139408Y39100D01*
D02*
G37*
G36*
X129408D02*
X128592D01*
X127803Y38889D01*
X127097Y38481D01*
X126519Y37903D01*
X126111Y37197D01*
X125900Y36408D01*
Y35592D01*
X126111Y34803D01*
X126519Y34097D01*
X127097Y33519D01*
X127803Y33111D01*
X128592Y32900D01*
X129408D01*
X130197Y33111D01*
X130903Y33519D01*
X131481Y34097D01*
X131889Y34803D01*
X132100Y35592D01*
Y36408D01*
X131889Y37197D01*
X131481Y37903D01*
X130903Y38481D01*
X130197Y38889D01*
X129408Y39100D01*
D02*
G37*
%LPD*%
D15*
X85200Y39800D02*
X89000Y36000D01*
X142621Y-3100D02*
X143142Y-2579D01*
X107297Y-3100D02*
X142621D01*
X79000Y-31397D02*
X107297Y-3100D01*
X108221Y-1379D02*
X139721D01*
X107321Y-479D02*
X108221Y-1379D01*
X48100Y-26900D02*
X80900D01*
X107321Y-479D01*
Y6779D01*
X156599Y25200D02*
X165700D01*
X171000Y19900D01*
X156399Y25000D02*
X156599Y25200D01*
X82700Y23000D02*
X94400D01*
X97200Y16900D02*
Y20200D01*
X94400Y23000D02*
X97200Y20200D01*
Y16900D02*
X107321Y6779D01*
X99000Y17400D02*
Y36000D01*
Y17400D02*
X115500Y900D01*
X82700Y28000D02*
X86200D01*
X65700Y29500D02*
Y37700D01*
X67700Y27500D02*
X71433D01*
X65700Y29500D02*
X67700Y27500D01*
X65700Y37700D02*
X67800Y39800D01*
X64300Y24200D02*
Y38200D01*
Y24200D02*
X66700Y21800D01*
X64300Y38200D02*
X67200Y41100D01*
X67800Y39800D02*
X85200D01*
X111200Y41100D02*
X114200Y38100D01*
X67200Y41100D02*
X111200D01*
X78800Y22500D02*
X79300Y23000D01*
X71433Y22500D02*
X78800D01*
X79300Y28000D02*
Y29633D01*
X71433Y37500D02*
X79300Y29633D01*
X48200Y32500D02*
X50567D01*
X36900D02*
X48200D01*
X43200Y37500D02*
X48200Y32500D01*
X59100Y29700D02*
X60200Y30800D01*
Y36500D01*
X55900Y40800D02*
X60200Y36500D01*
X41600Y40800D02*
X55900D01*
X39800Y39000D02*
X41600Y40800D01*
X39800Y37500D02*
Y39000D01*
X53300Y27500D02*
X53500Y27700D01*
X50567Y27500D02*
X53300D01*
X29000Y24600D02*
X36900Y32500D01*
X39000Y24600D02*
X41900Y27500D01*
X50567D01*
X193600Y-38697D02*
Y-33600D01*
X186000Y-26000D02*
Y8800D01*
X184800Y-26497D02*
Y-8100D01*
X186000Y-26000D02*
X193600Y-33600D01*
X184800Y-26497D02*
X192400Y-34097D01*
Y-38200D02*
Y-34097D01*
X178500Y-5497D02*
X182400Y-9397D01*
X181200Y-27300D02*
Y-15735D01*
X179700Y-5000D02*
X183600Y-8900D01*
Y-31200D02*
X188400Y-36000D01*
X174800Y-33700D02*
X181200Y-27300D01*
X179858Y-14393D02*
X181200Y-15735D01*
X179000Y-35233D02*
X182400Y-31833D01*
X181000Y-4300D02*
X184800Y-8100D01*
X183600Y-31200D02*
Y-8900D01*
X179000Y-36000D02*
Y-35233D01*
X165400Y29400D02*
X186000Y8800D01*
X182400Y-31833D02*
Y-9397D01*
X179858Y-14393D02*
Y-14390D01*
X143800Y9100D02*
X146500Y11800D01*
X169009D02*
X178500Y2309D01*
X146500Y11800D02*
X169009D01*
X141000Y9700D02*
X144400Y13100D01*
X169406D02*
X179700Y2806D01*
X144400Y13100D02*
X169406D01*
X86700Y-31300D02*
Y-28788D01*
X190400Y-40200D02*
X192400Y-38200D01*
X190897Y-41400D02*
X193600Y-38697D01*
X176600Y-40200D02*
X190400D01*
X172900Y-28600D02*
X175200D01*
X171400Y-27100D02*
X172900Y-28600D01*
X171400Y-27100D02*
Y-24500D01*
X169400Y-22500D02*
X171400Y-24500D01*
X167597Y-22500D02*
X169400D01*
X159000Y-36000D02*
Y-29400D01*
X174010Y-14390D02*
X179858D01*
X166100Y-30700D02*
Y-23997D01*
X159000Y-29400D02*
X174010Y-14390D01*
X166100Y-23997D02*
X167597Y-22500D01*
X164500Y-32300D02*
X166100Y-30700D01*
X177473Y-8484D02*
Y-8484D01*
X152500Y-32500D02*
X153457D01*
X177473Y-8484D01*
X125600Y29400D02*
X165400D01*
X119000Y36000D02*
X125600Y29400D01*
X109000Y30000D02*
X137800Y1200D01*
X145700D01*
X109000Y30000D02*
Y36000D01*
X115500Y900D02*
X118000D01*
X84000Y-29791D02*
X100691Y-13100D01*
X107547Y-4547D02*
X145527D01*
X101188Y-14300D02*
X137594D01*
X82800Y-29294D02*
X107547Y-4547D01*
X84000Y-37903D02*
Y-29791D01*
X86700Y-28788D02*
X101188Y-14300D01*
X79000Y-36000D02*
Y-31397D01*
X100691Y-13100D02*
X137097D01*
X82800Y-37406D02*
Y-29294D01*
X71897Y-30600D02*
X74500Y-33203D01*
X71400Y-31800D02*
X73300Y-33700D01*
X63700Y-34700D02*
X66600Y-31800D01*
X59900Y-36000D02*
X65300Y-30600D01*
X71897D01*
X66600Y-31800D02*
X71400D01*
X73300Y-37897D02*
Y-33700D01*
X74500Y-34200D02*
Y-33203D01*
X59000Y-36000D02*
X59900D01*
X61500Y-40300D02*
X63700Y-38100D01*
X49000Y-36000D02*
X53300Y-40300D01*
X61500D01*
X63700Y-38100D02*
Y-34700D01*
X73300Y-37897D02*
X76103Y-40700D01*
X80706Y-39500D02*
X82800Y-37406D01*
X74500Y-37400D02*
X76600Y-39500D01*
X80706D01*
X81203Y-40700D02*
X84000Y-37903D01*
X76103Y-40700D02*
X81203D01*
X74500Y-37400D02*
Y-34200D01*
X94800Y-30200D02*
X139703D01*
X103600Y-31400D02*
X140200D01*
X89000Y-36000D02*
X94800Y-30200D01*
X139703D02*
X152100Y-17803D01*
X99000Y-36000D02*
X103600Y-31400D01*
X140200D02*
X153300Y-18300D01*
X152100Y-17803D02*
Y-1503D01*
X153300Y-18300D02*
Y800D01*
X150900Y-17100D02*
Y-3003D01*
X147100Y-20900D02*
X150900Y-17100D01*
X142800Y-20900D02*
X147100D01*
X139900Y-15700D02*
X141210Y-14390D01*
X139900Y-18000D02*
X142800Y-20900D01*
X139900Y-18000D02*
Y-15700D01*
X147273Y-18327D02*
X149700Y-15900D01*
Y-3500D01*
X145527Y-18327D02*
X147273D01*
X139721Y-1379D02*
X141100Y0D01*
X146600Y-7900D02*
X148500Y-9800D01*
Y-14700D02*
Y-9800D01*
X140600Y-7900D02*
X146600D01*
X146697Y1200D02*
X150900Y-3003D01*
X146200Y0D02*
X149700Y-3500D01*
X141100Y0D02*
X146200D01*
X145700Y1200D02*
X146697D01*
X129800Y20100D02*
X136900Y13000D01*
Y4700D02*
Y13000D01*
X129800Y20100D02*
Y23500D01*
X136900Y4700D02*
X138700Y2900D01*
X144000D01*
X144497Y3397D01*
X138500Y5200D02*
X139600Y4100D01*
X142000D01*
X146400Y8500D01*
X149000D02*
X151558Y5942D01*
X146400Y8500D02*
X149000D01*
X151558Y2542D02*
Y5942D01*
X138500Y9400D02*
X142200Y13100D01*
X138500Y5200D02*
Y9400D01*
X142200Y13100D02*
Y15500D01*
X141000Y6206D02*
Y9700D01*
X157200Y20000D02*
X165900D01*
X183200Y-1800D02*
Y2700D01*
X179700Y-5000D02*
Y2806D01*
X157200Y15500D02*
X168703D01*
X165900Y20000D02*
X183200Y2700D01*
X181000Y-4300D02*
Y3203D01*
X178500Y-5497D02*
Y2309D01*
X168703Y15500D02*
X181000Y3203D01*
X149000Y-36000D02*
X152500Y-32500D01*
X149000Y-36000D02*
Y-36000D01*
X168390Y-28690D02*
X173600Y-33900D01*
Y-38897D02*
Y-33900D01*
X168390Y-28690D02*
Y-25490D01*
X174800Y-38400D02*
Y-33700D01*
X188400Y-36000D02*
X189000D01*
X113700Y6565D02*
X116532Y3732D01*
X113700Y6565D02*
Y15000D01*
X118300Y-17300D02*
X125300D01*
X126800Y-18800D01*
Y-23100D02*
Y-18800D01*
X123300Y-26600D02*
X126800Y-23100D01*
X99700Y-26600D02*
X123300D01*
X114200Y32200D02*
Y38100D01*
Y32200D02*
X119000Y27400D01*
X133700D01*
X149400D01*
X153500Y23300D01*
X145900Y20000D02*
X153800D01*
X145887Y20012D02*
X145900Y20000D01*
X146700Y15500D02*
X153800D01*
X137200Y25000D02*
X142200Y20000D01*
X131300Y25000D02*
X137200D01*
X129800Y23500D02*
X131300Y25000D01*
X144497Y3397D02*
X147200D01*
X152100Y-1503D01*
X147200Y3397D02*
Y6300D01*
X136400Y22400D02*
X138800Y20000D01*
X132800Y22400D02*
X136400D01*
X136900Y15500D02*
X138800D01*
X135300Y17100D02*
X136900Y15500D01*
X135300Y17100D02*
Y19800D01*
X115500Y-8000D02*
X119400Y-11900D01*
X136600D01*
X137097Y-13100D02*
X139744Y-10453D01*
X137594Y-14300D02*
X139473Y-12421D01*
X136600Y-11900D02*
X140600Y-7900D01*
X139473Y-12421D02*
X143142D01*
X139744Y-10453D02*
X145527D01*
X151558Y2542D02*
X153300Y800D01*
X146842Y-16358D02*
X148500Y-14700D01*
X143142Y-16358D02*
X146842D01*
X176103Y-41400D02*
X190897D01*
X173600Y-38897D02*
X176103Y-41400D01*
X174800Y-38400D02*
X176600Y-40200D01*
X141210Y-14390D02*
X145527D01*
X141000Y6206D02*
X141003Y6203D01*
X39000Y-36000D02*
X48100Y-26900D01*
D57*
X88400Y31600D02*
X92000Y28000D01*
X83400Y31600D02*
X88400D01*
X79000Y36000D02*
X83400Y31600D01*
X53900Y15100D02*
X85900D01*
X47900Y9100D02*
X53900Y15100D01*
D58*
X122400Y-19500D02*
X123700Y-20800D01*
X100700Y-19500D02*
X122400D01*
X92000Y-28200D02*
X100700Y-19500D01*
X48309Y-4191D02*
X51000Y-1500D01*
X44591Y-4191D02*
X48309D01*
X43353Y-2953D02*
X44591Y-4191D01*
X24653Y-2953D02*
X43353D01*
X44400Y2100D02*
X47900Y-1400D01*
X25500Y2100D02*
X44400D01*
D60*
X39000Y24600D02*
D03*
X29000D02*
D03*
X109000Y36000D02*
D03*
X99000D02*
D03*
X159000D02*
D03*
X149000D02*
D03*
X169000D02*
D03*
X189000D02*
D03*
X179000D02*
D03*
X139000D02*
D03*
X119000D02*
D03*
X129000D02*
D03*
X79000D02*
D03*
X89000D02*
D03*
X69000Y-36000D02*
D03*
X109000D02*
D03*
X99000D02*
D03*
X159000D02*
D03*
X149000D02*
D03*
X169000D02*
D03*
X189000D02*
D03*
X179000D02*
D03*
X139000D02*
D03*
X119000D02*
D03*
X129000D02*
D03*
X79000D02*
D03*
X89000D02*
D03*
X59000D02*
D03*
X49000D02*
D03*
X29000D02*
D03*
X39000D02*
D03*
X19000D02*
D03*
D61*
X7500Y35500D02*
D03*
Y-35500D02*
D03*
X200500D02*
D03*
Y35500D02*
D03*
D62*
X26327Y17028D02*
D03*
Y-17028D02*
D03*
D63*
X10579Y17028D02*
D03*
Y-17028D02*
D03*
D64*
X24358Y-11378D02*
D03*
Y11378D02*
D03*
D65*
X132800Y22400D02*
D03*
X135300Y19800D02*
D03*
X116532Y3732D02*
D03*
X92000Y28000D02*
D03*
X115600Y40300D02*
D03*
X121700D02*
D03*
X130100Y31600D02*
D03*
X126400Y31900D02*
D03*
X85600Y-40200D02*
D03*
X93900Y-36100D02*
D03*
X64400Y-21400D02*
D03*
X65700Y-24200D02*
D03*
X130900Y-25000D02*
D03*
X151558Y2542D02*
D03*
X183200Y-1800D02*
D03*
X145527Y-14390D02*
D03*
X171000Y19900D02*
D03*
X179858Y-14390D02*
D03*
X177473Y-8484D02*
D03*
X143142Y-16358D02*
D03*
X147200Y6300D02*
D03*
X168390Y-25490D02*
D03*
X175200Y-28600D02*
D03*
X141003Y6203D02*
D03*
X145527Y-18327D02*
D03*
X143800Y9100D02*
D03*
X143142Y-12421D02*
D03*
X145527Y-10453D02*
D03*
Y-4547D02*
D03*
X143142Y-2579D02*
D03*
X86200Y28000D02*
D03*
X44100Y30300D02*
D03*
X65100Y18000D02*
D03*
X60600Y40000D02*
D03*
X55700Y36300D02*
D03*
X59100Y29700D02*
D03*
X53500Y27700D02*
D03*
X203000Y-23000D02*
D03*
X200000D02*
D03*
X197000D02*
D03*
X194000D02*
D03*
X191000D02*
D03*
X188000D02*
D03*
Y-20000D02*
D03*
Y-17000D02*
D03*
Y-14000D02*
D03*
Y-11000D02*
D03*
Y-8000D02*
D03*
Y-5000D02*
D03*
Y-2000D02*
D03*
Y1000D02*
D03*
Y4000D02*
D03*
Y7000D02*
D03*
X187000Y14000D02*
D03*
Y17000D02*
D03*
Y20000D02*
D03*
Y23000D02*
D03*
X190000D02*
D03*
X193000D02*
D03*
X196000D02*
D03*
X199000D02*
D03*
X202000D02*
D03*
X205000D02*
D03*
X133400Y1500D02*
D03*
X101900Y29800D02*
D03*
X103600Y22800D02*
D03*
Y26700D02*
D03*
X132300Y-16800D02*
D03*
X104500Y-23500D02*
D03*
X107900Y-23400D02*
D03*
X151400Y-24800D02*
D03*
X119500Y-7500D02*
D03*
X125100D02*
D03*
X132800Y-7700D02*
D03*
X137700Y-7200D02*
D03*
X136400Y-24500D02*
D03*
X142400Y-23400D02*
D03*
X102100Y-40300D02*
D03*
X93500Y-39800D02*
D03*
X155000Y9500D02*
D03*
X126000Y24500D02*
D03*
X122000D02*
D03*
X118000D02*
D03*
X115500Y27000D02*
D03*
X42900Y20800D02*
D03*
X38000Y12500D02*
D03*
Y17500D02*
D03*
X56500Y11000D02*
D03*
X66000Y-5000D02*
D03*
Y-500D02*
D03*
X61000Y1000D02*
D03*
X49000Y-17000D02*
D03*
X53000Y-13000D02*
D03*
Y-17000D02*
D03*
X49000Y-13000D02*
D03*
X166500Y-12000D02*
D03*
Y-7500D02*
D03*
Y-3000D02*
D03*
X161500Y-12000D02*
D03*
Y-7500D02*
D03*
Y-3000D02*
D03*
X156500Y-12000D02*
D03*
Y-7500D02*
D03*
Y-3000D02*
D03*
X71500Y8000D02*
D03*
X71000Y11500D02*
D03*
X74500Y-500D02*
D03*
X89000Y0D02*
D03*
X84500D02*
D03*
X87500Y-5500D02*
D03*
X83000D02*
D03*
X83500Y-17000D02*
D03*
X88000Y-14000D02*
D03*
X83500D02*
D03*
X86700Y-31300D02*
D03*
X164500Y-32300D02*
D03*
X118000Y900D02*
D03*
X113700Y15000D02*
D03*
X118300Y-17300D02*
D03*
X99700Y-26600D02*
D03*
X123700Y-20800D02*
D03*
X92000Y-28200D02*
D03*
X66700Y21800D02*
D03*
X153500Y23300D02*
D03*
X156399Y25000D02*
D03*
X145887Y20012D02*
D03*
X146700Y15500D02*
D03*
X133700Y27400D02*
D03*
X115500Y-8000D02*
D03*
X85900Y15100D02*
D03*
X47900Y9100D02*
D03*
X24653Y-2953D02*
D03*
X25500Y2100D02*
D03*
X51000Y-1500D02*
D03*
X47900Y-1400D02*
D03*
D66*
X79300Y23000D02*
D03*
X82700D02*
D03*
X79300Y28000D02*
D03*
X82700D02*
D03*
X43200Y37500D02*
D03*
X39800D02*
D03*
X153800Y15500D02*
D03*
X157200D02*
D03*
X153800Y20000D02*
D03*
X157200D02*
D03*
X138800Y15500D02*
D03*
X142200D02*
D03*
X138800Y20000D02*
D03*
X142200D02*
D03*
D67*
X71433Y37500D02*
D03*
Y32500D02*
D03*
Y27500D02*
D03*
Y22500D02*
D03*
X50567Y37500D02*
D03*
Y32500D02*
D03*
Y27500D02*
D03*
Y22500D02*
D03*
M02*
