G04*
G04 #@! TF.GenerationSoftware,Altium Limited,Altium Designer,21.3.2 (30)*
G04*
G04 Layer_Color=8388736*
%FSLAX25Y25*%
%MOIN*%
G70*
G04*
G04 #@! TF.SameCoordinates,B89B57CD-9D52-4E16-9C0F-ECFA6D911EF0*
G04*
G04*
G04 #@! TF.FilePolarity,Negative*
G04*
G01*
G75*
%ADD34R,0.22500X0.42500*%
%ADD35O,0.01584X0.03356*%
%ADD36O,0.03356X0.01584*%
%ADD37R,0.11230X0.11624*%
G04:AMPARAMS|DCode=38|XSize=26mil|YSize=26mil|CornerRadius=8mil|HoleSize=0mil|Usage=FLASHONLY|Rotation=270.000|XOffset=0mil|YOffset=0mil|HoleType=Round|Shape=RoundedRectangle|*
%AMROUNDEDRECTD38*
21,1,0.02600,0.01000,0,0,270.0*
21,1,0.01000,0.02600,0,0,270.0*
1,1,0.01600,-0.00500,-0.00500*
1,1,0.01600,-0.00500,0.00500*
1,1,0.01600,0.00500,0.00500*
1,1,0.01600,0.00500,-0.00500*
%
%ADD38ROUNDEDRECTD38*%
G04:AMPARAMS|DCode=39|XSize=26mil|YSize=26mil|CornerRadius=8mil|HoleSize=0mil|Usage=FLASHONLY|Rotation=180.000|XOffset=0mil|YOffset=0mil|HoleType=Round|Shape=RoundedRectangle|*
%AMROUNDEDRECTD39*
21,1,0.02600,0.01000,0,0,180.0*
21,1,0.01000,0.02600,0,0,180.0*
1,1,0.01600,-0.00500,0.00500*
1,1,0.01600,0.00500,0.00500*
1,1,0.01600,0.00500,-0.00500*
1,1,0.01600,-0.00500,-0.00500*
%
%ADD39ROUNDEDRECTD39*%
G04:AMPARAMS|DCode=40|XSize=166mil|YSize=166mil|CornerRadius=19mil|HoleSize=0mil|Usage=FLASHONLY|Rotation=270.000|XOffset=0mil|YOffset=0mil|HoleType=Round|Shape=RoundedRectangle|*
%AMROUNDEDRECTD40*
21,1,0.16600,0.12800,0,0,270.0*
21,1,0.12800,0.16600,0,0,270.0*
1,1,0.03800,-0.06400,-0.06400*
1,1,0.03800,-0.06400,0.06400*
1,1,0.03800,0.06400,0.06400*
1,1,0.03800,0.06400,-0.06400*
%
%ADD40ROUNDEDRECTD40*%
G04:AMPARAMS|DCode=41|XSize=32.58mil|YSize=15.84mil|CornerRadius=5.46mil|HoleSize=0mil|Usage=FLASHONLY|Rotation=270.000|XOffset=0mil|YOffset=0mil|HoleType=Round|Shape=RoundedRectangle|*
%AMROUNDEDRECTD41*
21,1,0.03258,0.00492,0,0,270.0*
21,1,0.02165,0.01584,0,0,270.0*
1,1,0.01092,-0.00246,-0.01083*
1,1,0.01092,-0.00246,0.01083*
1,1,0.01092,0.00246,0.01083*
1,1,0.01092,0.00246,-0.01083*
%
%ADD41ROUNDEDRECTD41*%
G04:AMPARAMS|DCode=42|XSize=32.58mil|YSize=15.84mil|CornerRadius=5.46mil|HoleSize=0mil|Usage=FLASHONLY|Rotation=0.000|XOffset=0mil|YOffset=0mil|HoleType=Round|Shape=RoundedRectangle|*
%AMROUNDEDRECTD42*
21,1,0.03258,0.00492,0,0,0.0*
21,1,0.02165,0.01584,0,0,0.0*
1,1,0.01092,0.01083,-0.00246*
1,1,0.01092,-0.01083,-0.00246*
1,1,0.01092,-0.01083,0.00246*
1,1,0.01092,0.01083,0.00246*
%
%ADD42ROUNDEDRECTD42*%
G04:AMPARAMS|DCode=43|XSize=43.4mil|YSize=45.37mil|CornerRadius=12.35mil|HoleSize=0mil|Usage=FLASHONLY|Rotation=0.000|XOffset=0mil|YOffset=0mil|HoleType=Round|Shape=RoundedRectangle|*
%AMROUNDEDRECTD43*
21,1,0.04340,0.02067,0,0,0.0*
21,1,0.01870,0.04537,0,0,0.0*
1,1,0.02470,0.00935,-0.01034*
1,1,0.02470,-0.00935,-0.01034*
1,1,0.02470,-0.00935,0.01034*
1,1,0.02470,0.00935,0.01034*
%
%ADD43ROUNDEDRECTD43*%
G04:AMPARAMS|DCode=44|XSize=21.75mil|YSize=143.79mil|CornerRadius=6.94mil|HoleSize=0mil|Usage=FLASHONLY|Rotation=270.000|XOffset=0mil|YOffset=0mil|HoleType=Round|Shape=RoundedRectangle|*
%AMROUNDEDRECTD44*
21,1,0.02175,0.12992,0,0,270.0*
21,1,0.00787,0.14379,0,0,270.0*
1,1,0.01387,-0.06496,-0.00394*
1,1,0.01387,-0.06496,0.00394*
1,1,0.01387,0.06496,0.00394*
1,1,0.01387,0.06496,-0.00394*
%
%ADD44ROUNDEDRECTD44*%
%ADD45R,0.11624X0.11230*%
G04:AMPARAMS|DCode=46|XSize=22mil|YSize=48mil|CornerRadius=8mil|HoleSize=0mil|Usage=FLASHONLY|Rotation=90.000|XOffset=0mil|YOffset=0mil|HoleType=Round|Shape=RoundedRectangle|*
%AMROUNDEDRECTD46*
21,1,0.02200,0.03200,0,0,90.0*
21,1,0.00600,0.04800,0,0,90.0*
1,1,0.01600,0.01600,0.00300*
1,1,0.01600,0.01600,-0.00300*
1,1,0.01600,-0.01600,-0.00300*
1,1,0.01600,-0.01600,0.00300*
%
%ADD46ROUNDEDRECTD46*%
G04:AMPARAMS|DCode=47|XSize=22mil|YSize=48mil|CornerRadius=8mil|HoleSize=0mil|Usage=FLASHONLY|Rotation=180.000|XOffset=0mil|YOffset=0mil|HoleType=Round|Shape=RoundedRectangle|*
%AMROUNDEDRECTD47*
21,1,0.02200,0.03200,0,0,180.0*
21,1,0.00600,0.04800,0,0,180.0*
1,1,0.01600,-0.00300,0.01600*
1,1,0.01600,0.00300,0.01600*
1,1,0.01600,0.00300,-0.01600*
1,1,0.01600,-0.00300,-0.01600*
%
%ADD47ROUNDEDRECTD47*%
G04:AMPARAMS|DCode=48|XSize=29.62mil|YSize=41mil|CornerRadius=8.91mil|HoleSize=0mil|Usage=FLASHONLY|Rotation=90.000|XOffset=0mil|YOffset=0mil|HoleType=Round|Shape=RoundedRectangle|*
%AMROUNDEDRECTD48*
21,1,0.02962,0.02319,0,0,90.0*
21,1,0.01181,0.04100,0,0,90.0*
1,1,0.01781,0.01159,0.00591*
1,1,0.01781,0.01159,-0.00591*
1,1,0.01781,-0.01159,-0.00591*
1,1,0.01781,-0.01159,0.00591*
%
%ADD48ROUNDEDRECTD48*%
G04:AMPARAMS|DCode=49|XSize=37.5mil|YSize=76.87mil|CornerRadius=10.87mil|HoleSize=0mil|Usage=FLASHONLY|Rotation=270.000|XOffset=0mil|YOffset=0mil|HoleType=Round|Shape=RoundedRectangle|*
%AMROUNDEDRECTD49*
21,1,0.03750,0.05512,0,0,270.0*
21,1,0.01575,0.07687,0,0,270.0*
1,1,0.02175,-0.02756,-0.00787*
1,1,0.02175,-0.02756,0.00787*
1,1,0.02175,0.02756,0.00787*
1,1,0.02175,0.02756,-0.00787*
%
%ADD49ROUNDEDRECTD49*%
G04:AMPARAMS|DCode=50|XSize=65.06mil|YSize=17.81mil|CornerRadius=5.95mil|HoleSize=0mil|Usage=FLASHONLY|Rotation=0.000|XOffset=0mil|YOffset=0mil|HoleType=Round|Shape=RoundedRectangle|*
%AMROUNDEDRECTD50*
21,1,0.06506,0.00591,0,0,0.0*
21,1,0.05315,0.01781,0,0,0.0*
1,1,0.01191,0.02657,-0.00295*
1,1,0.01191,-0.02657,-0.00295*
1,1,0.01191,-0.02657,0.00295*
1,1,0.01191,0.02657,0.00295*
%
%ADD50ROUNDEDRECTD50*%
G04:AMPARAMS|DCode=51|XSize=56mil|YSize=36mil|CornerRadius=10.5mil|HoleSize=0mil|Usage=FLASHONLY|Rotation=180.000|XOffset=0mil|YOffset=0mil|HoleType=Round|Shape=RoundedRectangle|*
%AMROUNDEDRECTD51*
21,1,0.05600,0.01500,0,0,180.0*
21,1,0.03500,0.03600,0,0,180.0*
1,1,0.02100,-0.01750,0.00750*
1,1,0.02100,0.01750,0.00750*
1,1,0.02100,0.01750,-0.00750*
1,1,0.02100,-0.01750,-0.00750*
%
%ADD51ROUNDEDRECTD51*%
%ADD52C,0.05600*%
%ADD53C,0.12411*%
%ADD54O,0.08868X0.04537*%
%ADD55O,0.06899X0.04537*%
%ADD56C,0.03159*%
G36*
X71339Y28295D02*
X71389D01*
X71450Y28290D01*
X71522Y28279D01*
X71600Y28262D01*
X71683Y28245D01*
X71777Y28223D01*
X71872Y28190D01*
X71972Y28157D01*
X72066Y28112D01*
X72166Y28062D01*
X72266Y28001D01*
X72360Y27929D01*
X72455Y27851D01*
X72110Y27463D01*
X72105Y27468D01*
X72094Y27474D01*
X72072Y27491D01*
X72044Y27507D01*
X72010Y27535D01*
X71972Y27557D01*
X71922Y27585D01*
X71872Y27613D01*
X71750Y27668D01*
X71616Y27718D01*
X71467Y27751D01*
X71389Y27757D01*
X71306Y27763D01*
X71261D01*
X71217Y27757D01*
X71161Y27751D01*
X71095Y27735D01*
X71023Y27718D01*
X70956Y27691D01*
X70895Y27657D01*
X70889Y27652D01*
X70873Y27641D01*
X70845Y27618D01*
X70823Y27585D01*
X70795Y27546D01*
X70767Y27496D01*
X70751Y27441D01*
X70745Y27374D01*
Y27369D01*
Y27358D01*
X70751Y27335D01*
Y27308D01*
X70773Y27241D01*
X70784Y27208D01*
X70806Y27174D01*
X70812Y27169D01*
X70817Y27158D01*
X70834Y27147D01*
X70862Y27124D01*
X70889Y27102D01*
X70928Y27074D01*
X70978Y27047D01*
X71034Y27019D01*
X71039Y27013D01*
X71061Y27008D01*
X71100Y26991D01*
X71150Y26969D01*
X71217Y26947D01*
X71300Y26919D01*
X71394Y26886D01*
X71500Y26852D01*
X71505D01*
X71522Y26847D01*
X71550Y26836D01*
X71583Y26825D01*
X71622Y26808D01*
X71672Y26791D01*
X71783Y26747D01*
X71905Y26691D01*
X72033Y26625D01*
X72155Y26547D01*
X72266Y26458D01*
X72271D01*
X72277Y26447D01*
X72310Y26414D01*
X72355Y26359D01*
X72404Y26281D01*
X72455Y26186D01*
X72493Y26064D01*
X72527Y25926D01*
X72532Y25848D01*
X72538Y25765D01*
Y25759D01*
Y25748D01*
Y25731D01*
Y25709D01*
X72532Y25648D01*
X72515Y25576D01*
X72499Y25487D01*
X72471Y25393D01*
X72432Y25293D01*
X72377Y25199D01*
X72371Y25187D01*
X72349Y25160D01*
X72310Y25115D01*
X72260Y25065D01*
X72194Y25004D01*
X72110Y24943D01*
X72016Y24882D01*
X71911Y24827D01*
X71905D01*
X71899Y24821D01*
X71877Y24816D01*
X71855Y24804D01*
X71827Y24799D01*
X71794Y24788D01*
X71705Y24766D01*
X71600Y24738D01*
X71478Y24721D01*
X71345Y24705D01*
X71195Y24699D01*
X71161D01*
X71117Y24705D01*
X71061D01*
X70995Y24716D01*
X70917Y24727D01*
X70828Y24738D01*
X70734Y24760D01*
X70628Y24788D01*
X70523Y24821D01*
X70418Y24860D01*
X70312Y24904D01*
X70201Y24960D01*
X70096Y25027D01*
X69996Y25104D01*
X69902Y25187D01*
X70262Y25593D01*
X70268Y25587D01*
X70279Y25576D01*
X70301Y25559D01*
X70334Y25537D01*
X70373Y25509D01*
X70418Y25476D01*
X70473Y25448D01*
X70529Y25415D01*
X70595Y25376D01*
X70667Y25348D01*
X70828Y25287D01*
X70912Y25265D01*
X71006Y25249D01*
X71095Y25237D01*
X71195Y25232D01*
X71245D01*
X71295Y25237D01*
X71361Y25249D01*
X71433Y25265D01*
X71511Y25287D01*
X71589Y25315D01*
X71661Y25359D01*
X71666Y25365D01*
X71689Y25382D01*
X71716Y25415D01*
X71755Y25454D01*
X71789Y25509D01*
X71816Y25570D01*
X71838Y25648D01*
X71844Y25731D01*
Y25737D01*
Y25754D01*
Y25781D01*
X71838Y25815D01*
X71822Y25887D01*
X71789Y25959D01*
Y25964D01*
X71777Y25975D01*
X71766Y25992D01*
X71744Y26014D01*
X71722Y26042D01*
X71689Y26070D01*
X71650Y26103D01*
X71600Y26131D01*
X71594Y26136D01*
X71572Y26142D01*
X71544Y26159D01*
X71494Y26181D01*
X71439Y26203D01*
X71367Y26231D01*
X71284Y26259D01*
X71189Y26286D01*
X71184D01*
X71167Y26292D01*
X71134Y26303D01*
X71095Y26320D01*
X71050Y26336D01*
X70995Y26353D01*
X70934Y26375D01*
X70867Y26403D01*
X70728Y26464D01*
X70590Y26531D01*
X70456Y26614D01*
X70395Y26653D01*
X70340Y26697D01*
X70334Y26703D01*
X70329Y26708D01*
X70296Y26741D01*
X70251Y26797D01*
X70201Y26869D01*
X70151Y26963D01*
X70107Y27074D01*
X70074Y27196D01*
X70068Y27269D01*
X70063Y27341D01*
Y27346D01*
Y27352D01*
Y27369D01*
Y27391D01*
X70074Y27441D01*
X70085Y27507D01*
X70101Y27585D01*
X70129Y27674D01*
X70168Y27757D01*
X70218Y27840D01*
X70223Y27851D01*
X70246Y27879D01*
X70284Y27918D01*
X70334Y27968D01*
X70395Y28023D01*
X70468Y28079D01*
X70556Y28129D01*
X70651Y28179D01*
X70656D01*
X70662Y28184D01*
X70679Y28190D01*
X70701Y28196D01*
X70756Y28218D01*
X70834Y28240D01*
X70923Y28262D01*
X71028Y28284D01*
X71145Y28295D01*
X71272Y28301D01*
X71306D01*
X71339Y28295D01*
D02*
G37*
G36*
X75568Y27679D02*
X74602D01*
Y24760D01*
X73931D01*
Y27679D01*
X72915D01*
Y28234D01*
X75635D01*
X75568Y27679D01*
D02*
G37*
G36*
X68242Y28229D02*
X68281D01*
X68370Y28218D01*
X68470Y28201D01*
X68586Y28179D01*
X68708Y28151D01*
X68841Y28107D01*
X68969Y28051D01*
X69091Y27985D01*
X69208Y27901D01*
X69308Y27801D01*
X69397Y27685D01*
X69435Y27618D01*
X69463Y27546D01*
X69491Y27468D01*
X69507Y27391D01*
X69519Y27302D01*
X69524Y27208D01*
Y27202D01*
Y27191D01*
Y27174D01*
X69519Y27147D01*
Y27113D01*
X69513Y27074D01*
X69496Y26991D01*
X69469Y26891D01*
X69430Y26791D01*
X69374Y26686D01*
X69302Y26586D01*
X69291Y26575D01*
X69263Y26547D01*
X69213Y26503D01*
X69152Y26453D01*
X69069Y26397D01*
X68975Y26342D01*
X68869Y26292D01*
X68753Y26248D01*
X69713Y24760D01*
X68975D01*
X68120Y26148D01*
X67831D01*
Y24760D01*
X67165D01*
Y28234D01*
X68214D01*
X68242Y28229D01*
D02*
G37*
G36*
X20244Y26089D02*
Y24763D01*
X19572D01*
Y26084D01*
X18440Y28237D01*
X19151D01*
X19917Y26639D01*
X20694Y28237D01*
X21376D01*
X20244Y26089D01*
D02*
G37*
G36*
X18002Y27710D02*
X16609D01*
Y26783D01*
X17830D01*
Y26267D01*
X16609D01*
Y25284D01*
X18102D01*
Y24763D01*
X15937D01*
Y28237D01*
X18074D01*
X18002Y27710D01*
D02*
G37*
G36*
X14122Y26650D02*
X15399Y24763D01*
X14639D01*
X13484Y26500D01*
Y26722D01*
X14600Y28237D01*
X15305D01*
X14122Y26650D01*
D02*
G37*
G36*
X13484Y26722D02*
X13407Y26617D01*
X13484Y26500D01*
Y24763D01*
X12813D01*
Y28237D01*
X13484D01*
Y26722D01*
D02*
G37*
%LPC*%
G36*
X68186Y27718D02*
X67831D01*
Y26658D01*
X68253D01*
X68309Y26664D01*
X68381Y26675D01*
X68453Y26691D01*
X68531Y26714D01*
X68603Y26741D01*
X68669Y26786D01*
X68675Y26791D01*
X68697Y26814D01*
X68719Y26841D01*
X68753Y26891D01*
X68780Y26947D01*
X68808Y27019D01*
X68825Y27108D01*
X68830Y27208D01*
Y27213D01*
Y27219D01*
Y27252D01*
X68825Y27302D01*
X68814Y27358D01*
X68792Y27424D01*
X68764Y27485D01*
X68725Y27546D01*
X68675Y27596D01*
X68669Y27602D01*
X68647Y27613D01*
X68608Y27635D01*
X68558Y27657D01*
X68492Y27679D01*
X68409Y27702D01*
X68303Y27713D01*
X68186Y27718D01*
D02*
G37*
%LPD*%
D34*
X200250Y-250D02*
D03*
D35*
X129921Y20268D02*
D03*
X127953D02*
D03*
X125984D02*
D03*
X124016D02*
D03*
X122047D02*
D03*
X120079D02*
D03*
Y3732D02*
D03*
X122047D02*
D03*
X124016D02*
D03*
X125984D02*
D03*
X127953D02*
D03*
X129921D02*
D03*
D36*
X116732Y16921D02*
D03*
Y14953D02*
D03*
Y12984D02*
D03*
Y11016D02*
D03*
Y9047D02*
D03*
Y7079D02*
D03*
X133268D02*
D03*
Y9047D02*
D03*
Y11016D02*
D03*
Y12984D02*
D03*
Y14953D02*
D03*
Y16921D02*
D03*
D37*
X125000Y12000D02*
D03*
D38*
X138000Y-21500D02*
D03*
X134000D02*
D03*
X55000Y28100D02*
D03*
X59000D02*
D03*
X120500Y-17500D02*
D03*
X124500D02*
D03*
Y-21500D02*
D03*
X120500D02*
D03*
X59500Y5000D02*
D03*
X63500D02*
D03*
X134000Y-17000D02*
D03*
X138000D02*
D03*
X152800Y15389D02*
D03*
X156800D02*
D03*
Y11889D02*
D03*
X152800D02*
D03*
X41500Y-2500D02*
D03*
X37500D02*
D03*
X41500Y1500D02*
D03*
X37500D02*
D03*
X74500Y8000D02*
D03*
X78500D02*
D03*
X55000Y20400D02*
D03*
X59000D02*
D03*
X51000D02*
D03*
X47000D02*
D03*
X55000Y24400D02*
D03*
X59000D02*
D03*
X51000D02*
D03*
X47000D02*
D03*
X74500Y-9500D02*
D03*
X78500D02*
D03*
X74500Y-13000D02*
D03*
X78500D02*
D03*
X74500Y-6000D02*
D03*
X78500D02*
D03*
X74500Y1000D02*
D03*
X78500D02*
D03*
X74500Y4500D02*
D03*
X78500D02*
D03*
X74500Y-2500D02*
D03*
X78500D02*
D03*
X74500Y12000D02*
D03*
X78500D02*
D03*
D39*
X60000Y10000D02*
D03*
Y14000D02*
D03*
X64500D02*
D03*
Y10000D02*
D03*
X37000Y-12000D02*
D03*
Y-8000D02*
D03*
X129000Y-18000D02*
D03*
Y-22000D02*
D03*
X66000Y-13000D02*
D03*
Y-9000D02*
D03*
X111000Y15500D02*
D03*
Y19500D02*
D03*
Y12000D02*
D03*
Y8000D02*
D03*
X138600Y18200D02*
D03*
Y14200D02*
D03*
X111000Y4500D02*
D03*
Y500D02*
D03*
X63000Y20500D02*
D03*
Y24500D02*
D03*
D40*
X161500Y-7500D02*
D03*
D41*
X172327Y5738D02*
D03*
X170358D02*
D03*
X168390D02*
D03*
X166421D02*
D03*
X164453D02*
D03*
X162484D02*
D03*
X160516D02*
D03*
X158547D02*
D03*
X156579D02*
D03*
X154610D02*
D03*
X152642D02*
D03*
X150673D02*
D03*
Y-20738D02*
D03*
X152642D02*
D03*
X154610D02*
D03*
X156579D02*
D03*
X158547D02*
D03*
X160516D02*
D03*
X162484D02*
D03*
X164453D02*
D03*
X166421D02*
D03*
X168390D02*
D03*
X170358D02*
D03*
X172327D02*
D03*
D42*
X148262Y3327D02*
D03*
Y1358D02*
D03*
Y-610D02*
D03*
Y-2579D02*
D03*
Y-4547D02*
D03*
Y-6516D02*
D03*
Y-8484D02*
D03*
Y-10453D02*
D03*
Y-12421D02*
D03*
Y-14390D02*
D03*
Y-16358D02*
D03*
Y-18327D02*
D03*
X174738D02*
D03*
Y-16358D02*
D03*
Y-14390D02*
D03*
Y-12421D02*
D03*
Y-10453D02*
D03*
Y-8484D02*
D03*
Y-6516D02*
D03*
Y-4547D02*
D03*
Y-2579D02*
D03*
Y-610D02*
D03*
Y1358D02*
D03*
Y3327D02*
D03*
D43*
X129000Y-3571D02*
D03*
X132740Y-12429D02*
D03*
X125260Y-12429D02*
D03*
X115500Y-3571D02*
D03*
X119240Y-12429D02*
D03*
X111760Y-12429D02*
D03*
D44*
X99000Y8268D02*
D03*
Y0D02*
D03*
Y-8267D02*
D03*
Y-16535D02*
D03*
Y16536D02*
D03*
Y-11023D02*
D03*
Y-13779D02*
D03*
Y-2756D02*
D03*
Y-5511D02*
D03*
Y5512D02*
D03*
Y2756D02*
D03*
Y13780D02*
D03*
Y11024D02*
D03*
D45*
X51000Y-15000D02*
D03*
D46*
X60150Y-9094D02*
D03*
Y-11063D02*
D03*
Y-13032D02*
D03*
Y-15000D02*
D03*
Y-16969D02*
D03*
Y-18937D02*
D03*
Y-20906D02*
D03*
X41850D02*
D03*
Y-18937D02*
D03*
Y-16969D02*
D03*
Y-15000D02*
D03*
Y-13032D02*
D03*
Y-11063D02*
D03*
Y-9094D02*
D03*
D47*
X56906Y-24150D02*
D03*
X54937D02*
D03*
X52969D02*
D03*
X51000D02*
D03*
X49031D02*
D03*
X47063D02*
D03*
X45094D02*
D03*
Y-5850D02*
D03*
X47063D02*
D03*
X49031D02*
D03*
X51000D02*
D03*
X52969D02*
D03*
X54937D02*
D03*
X56906D02*
D03*
D48*
X42595Y7260D02*
D03*
Y11000D02*
D03*
Y14740D02*
D03*
X53995D02*
D03*
Y7260D02*
D03*
D49*
X198500Y-10091D02*
D03*
Y10000D02*
D03*
D50*
X30421Y13189D02*
D03*
Y12008D02*
D03*
Y10039D02*
D03*
Y8858D02*
D03*
Y6890D02*
D03*
Y4921D02*
D03*
Y2953D02*
D03*
Y984D02*
D03*
Y-984D02*
D03*
Y-2953D02*
D03*
Y-4921D02*
D03*
Y-6890D02*
D03*
Y-8858D02*
D03*
Y-10039D02*
D03*
Y-12008D02*
D03*
Y-13189D02*
D03*
D51*
X48500Y32800D02*
D03*
X65500D02*
D03*
X48500Y39200D02*
D03*
X65500D02*
D03*
X22500Y32800D02*
D03*
X39500D02*
D03*
X22500Y39200D02*
D03*
X39500D02*
D03*
D52*
X39000Y24600D02*
D03*
X29000D02*
D03*
X109000Y36000D02*
D03*
X99000D02*
D03*
X159000D02*
D03*
X149000D02*
D03*
X169000D02*
D03*
X189000D02*
D03*
X179000D02*
D03*
X139000D02*
D03*
X119000D02*
D03*
X129000D02*
D03*
X79000D02*
D03*
X89000D02*
D03*
X69000Y-36000D02*
D03*
X109000D02*
D03*
X99000D02*
D03*
X159000D02*
D03*
X149000D02*
D03*
X169000D02*
D03*
X189000D02*
D03*
X179000D02*
D03*
X139000D02*
D03*
X119000D02*
D03*
X129000D02*
D03*
X79000D02*
D03*
X89000D02*
D03*
X59000D02*
D03*
X49000D02*
D03*
X29000D02*
D03*
X39000D02*
D03*
X19000D02*
D03*
D53*
X7500Y35500D02*
D03*
Y-35500D02*
D03*
X200500D02*
D03*
Y35500D02*
D03*
D54*
X26327Y17028D02*
D03*
Y-17028D02*
D03*
D55*
X10579Y17028D02*
D03*
Y-17028D02*
D03*
D56*
X24358Y-11378D02*
D03*
Y11378D02*
D03*
M02*
