M48
;Layer_Color=9474304
;FILE_FORMAT=2:5
INCH,TZ
;TYPE=PLATED
T1F00S00C0.01000
T3F00S00C0.02559
T4F00S00C0.03200
T5F00S00C0.07874
%
T01
X24653Y-2953
X25500Y2100
X38000Y12500
X47900Y9100
X56500Y11000
X61000Y1000
X66000Y-500
Y-5000
X74500Y-500
X84500Y0
X89000
X87500Y-5500
X83000
X83500Y-14000
Y-17000
X88000Y-14000
X92000Y-28200
X86700Y-31300
X85600Y-40200
X93500Y-39800
X93900Y-36100
X102100Y-40300
X99700Y-26600
X104500Y-23500
X107900Y-23400
X118300Y-17300
X123700Y-20800
X130900Y-25000
X136400Y-24500
X142400Y-23400
X143142Y-16358
Y-12421
X145527Y-14390
Y-10453
Y-4547
X143142Y-2579
X137700Y-7200
X132800Y-7700
X125100Y-7500
X119500
X115500Y-8000
X118000Y900
X116532Y3732
X133400Y1500
X141003Y6203
X143800Y9100
X147200Y6300
X151558Y2542
X155000Y9500
X156500Y-3000
Y-7500
Y-12000
X161500
Y-7500
Y-3000
X166500
Y-7500
Y-12000
X177473Y-8484
X179858Y-14390
X188000Y-14000
Y-17000
Y-20000
Y-23000
X191000
X194000
X188000Y-11000
Y-8000
Y-5000
Y-2000
Y1000
Y4000
Y7000
X187000Y14000
X183200Y-1800
X175200Y-28600
X168390Y-25490
X164500Y-32300
X151400Y-24800
X145527Y-18327
X132300Y-16800
X64400Y-21400
X65700Y-24200
X53000Y-17000
X49000
Y-13000
X53000
X51000Y-1500
X47900Y-1400
X71500Y8000
X71000Y11500
X197000Y-23000
X200000
X203000
X202000Y23000
X199000
X205000
X196000
X193000
X190000
X187000
Y20000
Y17000
X171000Y19900
X156399Y25000
X153500Y23300
X145887Y20012
X146700Y15500
X135300Y19800
X132800Y22400
X133700Y27400
X130100Y31600
X126400Y31900
X126000Y24500
X122000
X118000
X115500Y27000
X103600Y26700
Y22800
X101900Y29800
X92000Y28000
X86200
X85900Y15100
X65100Y18000
X66700Y21800
X59100Y29700
X53500Y27700
X55700Y36300
X60600Y40000
X44100Y30300
X42900Y20800
X113700Y15000
X115600Y40300
X121700
X38000Y17500
T03
X24358Y-11378
Y11378
T04
X19000Y-36000
X29000
X39000
X49000
X59000
X69000
X79000
X89000
X99000
X109000
X119000
X129000
X139000
X149000
X159000
X169000
X179000
X189000
Y36000
X179000
X169000
X159000
X149000
X139000
X129000
X119000
X109000
X99000
X89000
X79000
X39000Y24600
X29000
T05
X7500Y-35500
X200500
Y35500
X7500
M30
