G04*
G04 #@! TF.GenerationSoftware,Altium Limited,Altium Designer,21.2.1 (34)*
G04*
G04 Layer_Color=255*
%FSLAX25Y25*%
%MOIN*%
G70*
G04*
G04 #@! TF.SameCoordinates,24BC1A3A-2B15-4BCB-8D07-746B5B0C7B57*
G04*
G04*
G04 #@! TF.FilePolarity,Positive*
G04*
G01*
G75*
%ADD64C,0.05000*%
%ADD65C,0.11811*%
%ADD66O,0.08268X0.03937*%
%ADD67O,0.06299X0.03937*%
%ADD68C,0.02559*%
%ADD70R,0.01968X0.01968*%
%ADD71O,0.05118X0.01968*%
D64*
X39000Y24600D02*
D03*
X29000D02*
D03*
X109000Y36000D02*
D03*
X99000D02*
D03*
X159000D02*
D03*
X149000D02*
D03*
X169000D02*
D03*
X189000D02*
D03*
X179000D02*
D03*
X139000D02*
D03*
X119000D02*
D03*
X129000D02*
D03*
X79000D02*
D03*
X89000D02*
D03*
X69000Y-36000D02*
D03*
X109000D02*
D03*
X99000D02*
D03*
X159000D02*
D03*
X149000D02*
D03*
X169000D02*
D03*
X189000D02*
D03*
X179000D02*
D03*
X139000D02*
D03*
X119000D02*
D03*
X129000D02*
D03*
X79000D02*
D03*
X89000D02*
D03*
X59000D02*
D03*
X49000D02*
D03*
X29000D02*
D03*
X39000D02*
D03*
X19000D02*
D03*
D65*
X7500Y35500D02*
D03*
Y-35500D02*
D03*
X200500D02*
D03*
Y35500D02*
D03*
D66*
X26327Y17028D02*
D03*
Y-17028D02*
D03*
D67*
X10579Y17028D02*
D03*
Y-17028D02*
D03*
D68*
X24358Y-11378D02*
D03*
Y11378D02*
D03*
D70*
X79300Y23000D02*
D03*
X82700D02*
D03*
X79300Y28000D02*
D03*
X82700D02*
D03*
X43200Y37500D02*
D03*
X39800D02*
D03*
X153800Y15500D02*
D03*
X157200D02*
D03*
X153800Y20000D02*
D03*
X157200D02*
D03*
X138800Y15500D02*
D03*
X142200D02*
D03*
X138800Y20000D02*
D03*
X142200D02*
D03*
D71*
X71433Y37500D02*
D03*
Y32500D02*
D03*
Y27500D02*
D03*
Y22500D02*
D03*
X50567Y37500D02*
D03*
Y32500D02*
D03*
Y27500D02*
D03*
Y22500D02*
D03*
M02*
