G04*
G04 #@! TF.GenerationSoftware,Altium Limited,Altium Designer,21.3.2 (30)*
G04*
G04 Layer_Color=8388736*
%FSLAX25Y25*%
%MOIN*%
G70*
G04*
G04 #@! TF.SameCoordinates,B89B57CD-9D52-4E16-9C0F-ECFA6D911EF0*
G04*
G04*
G04 #@! TF.FilePolarity,Positive*
G04*
G01*
G75*
%ADD73C,0.00200*%
G36*
X53500Y22100D02*
X54500D01*
Y21600D01*
Y21500D01*
X54424Y21317D01*
X54283Y21176D01*
X54100Y21100D01*
X54000D01*
D01*
X53500D01*
Y22100D01*
D02*
G37*
G36*
Y26100D02*
X54500D01*
Y25600D01*
Y25501D01*
X54424Y25317D01*
X54283Y25176D01*
X54100Y25100D01*
X54000D01*
D01*
X53500D01*
Y26100D01*
D02*
G37*
D73*
X132500Y-19800D02*
X139500D01*
Y-23200D02*
Y-19800D01*
X132500Y-23200D02*
Y-19800D01*
Y-23200D02*
X139500D01*
X61700Y8500D02*
Y15500D01*
X58300Y8500D02*
X61700D01*
X58300Y15500D02*
X61700D01*
X58300Y8500D02*
Y15500D01*
X24000Y19600D02*
X44000D01*
X24000D02*
Y29600D01*
X44000D01*
Y19600D02*
Y29600D01*
X53500Y29800D02*
X60500D01*
Y26400D02*
Y29800D01*
X53500Y26400D02*
Y29800D01*
Y26400D02*
X60500D01*
X74000Y31000D02*
Y41000D01*
Y31000D02*
X194000D01*
X74000Y41000D02*
X194000D01*
Y31000D02*
Y41000D01*
X119000Y-15800D02*
X126000D01*
Y-19200D02*
Y-15800D01*
X119000Y-19200D02*
Y-15800D01*
Y-19200D02*
X126000D01*
X119000Y-23200D02*
X126000D01*
X119000D02*
Y-19800D01*
X126000Y-23200D02*
Y-19800D01*
X119000D02*
X126000D01*
X58000Y3300D02*
X65000D01*
X58000D02*
Y6700D01*
X65000Y3300D02*
Y6700D01*
X58000D02*
X65000D01*
X62800Y8500D02*
Y15500D01*
X66200D01*
X62800Y8500D02*
X66200D01*
Y15500D01*
X35300Y-13500D02*
Y-6500D01*
X38700D01*
X35300Y-13500D02*
X38700D01*
Y-6500D01*
X130700Y-23500D02*
Y-16500D01*
X127300Y-23500D02*
X130700D01*
X127300Y-16500D02*
X130700D01*
X127300Y-23500D02*
Y-16500D01*
X64300Y-14500D02*
Y-7500D01*
X67700D01*
X64300Y-14500D02*
X67700D01*
Y-7500D01*
X132500Y-18700D02*
X139500D01*
X132500D02*
Y-15300D01*
X139500Y-18700D02*
Y-15300D01*
X132500D02*
X139500D01*
X151300Y17089D02*
X158300D01*
Y13689D02*
Y17089D01*
X151300Y13689D02*
Y17089D01*
Y13689D02*
X158300D01*
X112700Y14000D02*
Y21000D01*
X109300Y14000D02*
X112700D01*
X109300Y21000D02*
X112700D01*
X109300Y14000D02*
Y21000D01*
X151300Y13589D02*
X158300D01*
Y10189D02*
Y13589D01*
X151300Y10189D02*
Y13589D01*
Y10189D02*
X158300D01*
X109300Y6500D02*
Y13500D01*
X112700D01*
X109300Y6500D02*
X112700D01*
Y13500D01*
X136900Y12700D02*
Y19700D01*
X140300D01*
X136900Y12700D02*
X140300D01*
Y19700D01*
X36000Y-4200D02*
X43000D01*
X36000D02*
Y-800D01*
X43000Y-4200D02*
Y-800D01*
X36000D02*
X43000D01*
X36000Y-200D02*
X43000D01*
X36000D02*
Y3200D01*
X43000Y-200D02*
Y3200D01*
X36000D02*
X43000D01*
X109300Y-1000D02*
Y6000D01*
X112700D01*
X109300Y-1000D02*
X112700D01*
Y6000D01*
X73000Y6300D02*
X80000D01*
X73000D02*
Y9700D01*
X80000Y6300D02*
Y9700D01*
X73000D02*
X80000D01*
X53500Y22100D02*
X60500D01*
Y18700D02*
Y22100D01*
X53500Y18700D02*
Y22100D01*
Y18700D02*
X60500D01*
X45500D02*
X52500D01*
X45500D02*
Y22100D01*
X52500Y18700D02*
Y22100D01*
X45500D02*
X52500D01*
X53500Y26100D02*
X60500D01*
Y22700D02*
Y26100D01*
X53500Y22700D02*
Y26100D01*
Y22700D02*
X60500D01*
X45500D02*
X52500D01*
X45500D02*
Y26100D01*
X52500Y22700D02*
Y26100D01*
X45500D02*
X52500D01*
X73000Y-7800D02*
X80000D01*
Y-11200D02*
Y-7800D01*
X73000Y-11200D02*
Y-7800D01*
Y-11200D02*
X80000D01*
X73000Y-11300D02*
X80000D01*
Y-14700D02*
Y-11300D01*
X73000Y-14700D02*
Y-11300D01*
Y-14700D02*
X80000D01*
X73000Y-4300D02*
X80000D01*
Y-7700D02*
Y-4300D01*
X73000Y-7700D02*
Y-4300D01*
Y-7700D02*
X80000D01*
X44500Y43500D02*
X69500D01*
X44500Y28500D02*
Y43500D01*
Y28500D02*
X69500D01*
Y43500D01*
X61300Y19000D02*
Y26000D01*
X64700D01*
X61300Y19000D02*
X64700D01*
Y26000D01*
X73000Y2700D02*
X80000D01*
Y-700D02*
Y2700D01*
X73000Y-700D02*
Y2700D01*
Y-700D02*
X80000D01*
X73000Y6200D02*
X80000D01*
Y2800D02*
Y6200D01*
X73000Y2800D02*
Y6200D01*
Y2800D02*
X80000D01*
X73000Y-4200D02*
X80000D01*
X73000D02*
Y-800D01*
X80000Y-4200D02*
Y-800D01*
X73000D02*
X80000D01*
X18500Y43500D02*
X43500D01*
X18500Y28500D02*
Y43500D01*
Y28500D02*
X43500D01*
Y43500D01*
X73000Y10300D02*
X80000D01*
X73000D02*
Y13700D01*
X80000Y10300D02*
Y13700D01*
X73000D02*
X80000D01*
X14000Y-41000D02*
X194000D01*
X14000Y-31000D02*
X194000D01*
Y-41000D02*
Y-31000D01*
X14000Y-41000D02*
Y-31000D01*
M02*
