G04*
G04 #@! TF.GenerationSoftware,Altium Limited,Altium Designer,21.3.2 (30)*
G04*
G04 Layer_Color=2752767*
%FSLAX25Y25*%
%MOIN*%
G70*
G04*
G04 #@! TF.SameCoordinates,B89B57CD-9D52-4E16-9C0F-ECFA6D911EF0*
G04*
G04*
G04 #@! TF.FilePolarity,Positive*
G04*
G01*
G75*
%ADD14C,0.01000*%
%ADD57C,0.01500*%
%ADD73C,0.00200*%
%ADD74C,0.01600*%
%ADD75C,0.01400*%
D14*
X16396Y190727D02*
G03*
X16396Y190727I-3333J0D01*
G01*
X9729Y172394D02*
X16396D01*
Y179061D01*
X9729D02*
X16396D01*
X9729Y172394D02*
Y179061D01*
X13062Y157394D02*
X16396Y164061D01*
X9729D02*
X16396D01*
X9729D02*
X13062Y157394D01*
X9729Y142394D02*
X13062Y144061D01*
X16396Y142394D01*
X14729Y145728D02*
X16396Y142394D01*
X14729Y145728D02*
X16396Y149061D01*
X13062Y147394D02*
X16396Y149061D01*
X9729D02*
X13062Y147394D01*
X9729Y149061D02*
X11396Y145728D01*
X9729Y142394D02*
X11396Y145728D01*
Y129061D02*
X13062Y127394D01*
X9729Y129061D02*
X11396D01*
X9729D02*
X11396Y130728D01*
X9729Y132394D02*
X11396Y130728D01*
X9729Y132394D02*
X11396D01*
X13062Y134061D01*
X14729Y132394D01*
X16396D01*
X14729Y130728D02*
X16396Y132394D01*
X14729Y130728D02*
X16396Y129061D01*
X14729D02*
X16396D01*
X13062Y127394D02*
X14729Y129061D01*
X9729Y114061D02*
X11396D01*
X9729D02*
Y117394D01*
X11396D01*
Y119061D01*
X14729D01*
Y117394D02*
Y119061D01*
Y117394D02*
X16396D01*
Y114061D02*
Y117394D01*
X14729Y114061D02*
X16396D01*
X14729Y112394D02*
Y114061D01*
X11396Y112394D02*
X14729D01*
X11396D02*
Y114061D01*
X1192818Y187394D02*
X1188819D01*
X1192818Y191393D01*
Y192393D01*
X1191818Y193392D01*
X1189819D01*
X1188819Y192393D01*
X1194817D02*
X1195817Y193392D01*
X1197816D01*
X1198816Y192393D01*
Y191393D01*
X1197816Y190393D01*
X1196817D01*
X1197816D01*
X1198816Y189393D01*
Y188394D01*
X1197816Y187394D01*
X1195817D01*
X1194817Y188394D01*
X1200815Y187394D02*
Y188394D01*
X1201815D01*
Y187394D01*
X1200815D01*
X1209812Y193392D02*
X1207813Y192393D01*
X1205814Y190393D01*
Y188394D01*
X1206813Y187394D01*
X1208813D01*
X1209812Y188394D01*
Y189393D01*
X1208813Y190393D01*
X1205814D01*
X1215810Y187394D02*
X1211812D01*
X1215810Y191393D01*
Y192393D01*
X1214811Y193392D01*
X1212811D01*
X1211812Y192393D01*
X1217810Y187394D02*
Y191393D01*
X1218809D01*
X1219809Y190393D01*
Y187394D01*
Y190393D01*
X1220809Y191393D01*
X1221809Y190393D01*
Y187394D01*
X1223808D02*
X1225807D01*
X1224807D01*
Y191393D01*
X1223808D01*
X1228806Y187394D02*
X1230806D01*
X1229806D01*
Y193392D01*
X1228806D01*
X1241802Y187394D02*
X1239803Y189393D01*
Y191393D01*
X1241802Y193392D01*
X1244801Y192393D02*
X1245801Y193392D01*
X1247800D01*
X1248800Y192393D01*
Y188394D01*
X1247800Y187394D01*
X1245801D01*
X1244801Y188394D01*
Y192393D01*
X1250799Y187394D02*
Y188394D01*
X1251799D01*
Y187394D01*
X1250799D01*
X1259796Y193392D02*
X1257797Y192393D01*
X1255797Y190393D01*
Y188394D01*
X1256797Y187394D01*
X1258797D01*
X1259796Y188394D01*
Y189393D01*
X1258797Y190393D01*
X1255797D01*
X1261796Y192393D02*
X1262795Y193392D01*
X1264795D01*
X1265794Y192393D01*
Y188394D01*
X1264795Y187394D01*
X1262795D01*
X1261796Y188394D01*
Y192393D01*
X1267794D02*
X1268793Y193392D01*
X1270793D01*
X1271792Y192393D01*
Y188394D01*
X1270793Y187394D01*
X1268793D01*
X1267794Y188394D01*
Y192393D01*
X1273792Y187394D02*
Y191393D01*
X1274791D01*
X1275791Y190393D01*
Y187394D01*
Y190393D01*
X1276791Y191393D01*
X1277790Y190393D01*
Y187394D01*
X1279790D02*
Y191393D01*
X1280789D01*
X1281789Y190393D01*
Y187394D01*
Y190393D01*
X1282789Y191393D01*
X1283788Y190393D01*
Y187394D01*
X1285788D02*
X1287787Y189393D01*
Y191393D01*
X1285788Y193392D01*
X1191818Y172394D02*
Y178392D01*
X1188819Y175393D01*
X1192818D01*
X1194817Y177393D02*
X1195817Y178392D01*
X1197816D01*
X1198816Y177393D01*
Y176393D01*
X1197816Y175393D01*
X1196817D01*
X1197816D01*
X1198816Y174393D01*
Y173394D01*
X1197816Y172394D01*
X1195817D01*
X1194817Y173394D01*
X1200815Y172394D02*
Y173394D01*
X1201815D01*
Y172394D01*
X1200815D01*
X1205814Y177393D02*
X1206813Y178392D01*
X1208813D01*
X1209812Y177393D01*
Y176393D01*
X1208813Y175393D01*
X1207813D01*
X1208813D01*
X1209812Y174393D01*
Y173394D01*
X1208813Y172394D01*
X1206813D01*
X1205814Y173394D01*
X1211812Y172394D02*
X1213811D01*
X1212811D01*
Y178392D01*
X1211812Y177393D01*
X1216810Y172394D02*
Y176393D01*
X1217810D01*
X1218809Y175393D01*
Y172394D01*
Y175393D01*
X1219809Y176393D01*
X1220809Y175393D01*
Y172394D01*
X1222808D02*
X1224807D01*
X1223808D01*
Y176393D01*
X1222808D01*
X1227806Y172394D02*
X1229806D01*
X1228806D01*
Y178392D01*
X1227806D01*
X1240802Y172394D02*
X1238803Y174393D01*
Y176393D01*
X1240802Y178392D01*
X1243801Y172394D02*
X1245801D01*
X1244801D01*
Y178392D01*
X1243801Y177393D01*
X1248800Y172394D02*
Y173394D01*
X1249799D01*
Y172394D01*
X1248800D01*
X1253798D02*
X1255797D01*
X1254798D01*
Y178392D01*
X1253798Y177393D01*
X1258797D02*
X1259796Y178392D01*
X1261796D01*
X1262795Y177393D01*
Y173394D01*
X1261796Y172394D01*
X1259796D01*
X1258797Y173394D01*
Y177393D01*
X1264795D02*
X1265794Y178392D01*
X1267794D01*
X1268793Y177393D01*
Y173394D01*
X1267794Y172394D01*
X1265794D01*
X1264795Y173394D01*
Y177393D01*
X1270793Y172394D02*
Y176393D01*
X1271792D01*
X1272792Y175393D01*
Y172394D01*
Y175393D01*
X1273792Y176393D01*
X1274791Y175393D01*
Y172394D01*
X1276791D02*
Y176393D01*
X1277790D01*
X1278790Y175393D01*
Y172394D01*
Y175393D01*
X1279790Y176393D01*
X1280789Y175393D01*
Y172394D01*
X1282789D02*
X1284788Y174393D01*
Y176393D01*
X1282789Y178392D01*
X1188819Y160393D02*
X1192818D01*
X1188819Y145393D02*
X1192818D01*
X1188819Y130393D02*
X1192818D01*
X1188819Y115393D02*
X1192818D01*
X1082850Y187394D02*
Y193392D01*
X1079851Y190393D01*
X1083850D01*
X1085849Y193392D02*
X1089848D01*
Y192393D01*
X1085849Y188394D01*
Y187394D01*
X1091847D02*
Y188394D01*
X1092847D01*
Y187394D01*
X1091847D01*
X1100844D02*
X1096845D01*
X1100844Y191393D01*
Y192393D01*
X1099844Y193392D01*
X1097845D01*
X1096845Y192393D01*
X1105842Y187394D02*
Y193392D01*
X1102843Y190393D01*
X1106842D01*
X1108842Y187394D02*
Y191393D01*
X1109841D01*
X1110841Y190393D01*
Y187394D01*
Y190393D01*
X1111841Y191393D01*
X1112840Y190393D01*
Y187394D01*
X1114839D02*
X1116839D01*
X1115839D01*
Y191393D01*
X1114839D01*
X1119838Y187394D02*
X1121837D01*
X1120838D01*
Y193392D01*
X1119838D01*
X1132834Y187394D02*
X1130834Y189393D01*
Y191393D01*
X1132834Y193392D01*
X1135833Y187394D02*
X1137832D01*
X1136832D01*
Y193392D01*
X1135833Y192393D01*
X1140831Y187394D02*
Y188394D01*
X1141831D01*
Y187394D01*
X1140831D01*
X1149828D02*
X1145829D01*
X1149828Y191393D01*
Y192393D01*
X1148829Y193392D01*
X1146829D01*
X1145829Y192393D01*
X1151828D02*
X1152827Y193392D01*
X1154827D01*
X1155826Y192393D01*
Y188394D01*
X1154827Y187394D01*
X1152827D01*
X1151828Y188394D01*
Y192393D01*
X1157826D02*
X1158825Y193392D01*
X1160825D01*
X1161824Y192393D01*
Y188394D01*
X1160825Y187394D01*
X1158825D01*
X1157826Y188394D01*
Y192393D01*
X1163824Y187394D02*
Y191393D01*
X1164823D01*
X1165823Y190393D01*
Y187394D01*
Y190393D01*
X1166823Y191393D01*
X1167822Y190393D01*
Y187394D01*
X1169822D02*
Y191393D01*
X1170821D01*
X1171821Y190393D01*
Y187394D01*
Y190393D01*
X1172821Y191393D01*
X1173820Y190393D01*
Y187394D01*
X1175820D02*
X1177819Y189393D01*
Y191393D01*
X1175820Y193392D01*
X1083850Y178392D02*
X1081850Y177393D01*
X1079851Y175393D01*
Y173394D01*
X1080851Y172394D01*
X1082850D01*
X1083850Y173394D01*
Y174393D01*
X1082850Y175393D01*
X1079851D01*
X1089848Y178392D02*
X1087848Y177393D01*
X1085849Y175393D01*
Y173394D01*
X1086849Y172394D01*
X1088848D01*
X1089848Y173394D01*
Y174393D01*
X1088848Y175393D01*
X1085849D01*
X1091847Y172394D02*
Y173394D01*
X1092847D01*
Y172394D01*
X1091847D01*
X1096845Y173394D02*
X1097845Y172394D01*
X1099844D01*
X1100844Y173394D01*
Y177393D01*
X1099844Y178392D01*
X1097845D01*
X1096845Y177393D01*
Y176393D01*
X1097845Y175393D01*
X1100844D01*
X1102843Y177393D02*
X1103843Y178392D01*
X1105842D01*
X1106842Y177393D01*
Y176393D01*
X1105842Y175393D01*
X1104843D01*
X1105842D01*
X1106842Y174393D01*
Y173394D01*
X1105842Y172394D01*
X1103843D01*
X1102843Y173394D01*
X1108842Y172394D02*
Y176393D01*
X1109841D01*
X1110841Y175393D01*
Y172394D01*
Y175393D01*
X1111841Y176393D01*
X1112840Y175393D01*
Y172394D01*
X1114839D02*
X1116839D01*
X1115839D01*
Y176393D01*
X1114839D01*
X1119838Y172394D02*
X1121837D01*
X1120838D01*
Y178392D01*
X1119838D01*
X1132834Y172394D02*
X1130834Y174393D01*
Y176393D01*
X1132834Y178392D01*
X1135833Y172394D02*
X1137832D01*
X1136832D01*
Y178392D01*
X1135833Y177393D01*
X1140831Y172394D02*
Y173394D01*
X1141831D01*
Y172394D01*
X1140831D01*
X1145829Y178392D02*
X1149828D01*
Y177393D01*
X1145829Y173394D01*
Y172394D01*
X1151828Y177393D02*
X1152827Y178392D01*
X1154827D01*
X1155826Y177393D01*
Y173394D01*
X1154827Y172394D01*
X1152827D01*
X1151828Y173394D01*
Y177393D01*
X1157826D02*
X1158825Y178392D01*
X1160825D01*
X1161824Y177393D01*
Y173394D01*
X1160825Y172394D01*
X1158825D01*
X1157826Y173394D01*
Y177393D01*
X1163824Y172394D02*
Y176393D01*
X1164823D01*
X1165823Y175393D01*
Y172394D01*
Y175393D01*
X1166823Y176393D01*
X1167822Y175393D01*
Y172394D01*
X1169822D02*
Y176393D01*
X1170821D01*
X1171821Y175393D01*
Y172394D01*
Y175393D01*
X1172821Y176393D01*
X1173820Y175393D01*
Y172394D01*
X1175820D02*
X1177819Y174393D01*
Y176393D01*
X1175820Y178392D01*
X1079851Y160393D02*
X1083850D01*
X1079851Y145393D02*
X1083850D01*
X1079851Y130393D02*
X1083850D01*
X1079851Y115393D02*
X1083850D01*
X608788Y191393D02*
Y187394D01*
Y189393D01*
X609788Y190393D01*
X610787Y191393D01*
X611787D01*
X614786Y187394D02*
X616785D01*
X615786D01*
Y193392D01*
X614786Y192393D01*
X623783Y193392D02*
X621784Y192393D01*
X619784Y190393D01*
Y188394D01*
X620784Y187394D01*
X622783D01*
X623783Y188394D01*
Y189393D01*
X622783Y190393D01*
X619784D01*
X625782Y192393D02*
X626782Y193392D01*
X628781D01*
X629781Y192393D01*
Y188394D01*
X628781Y187394D01*
X626782D01*
X625782Y188394D01*
Y192393D01*
X631780Y186395D02*
X635779D01*
X637779Y187394D02*
X639778D01*
X638778D01*
Y193392D01*
X637779Y192393D01*
X642777D02*
X643777Y193392D01*
X645776D01*
X646776Y192393D01*
Y188394D01*
X645776Y187394D01*
X643777D01*
X642777Y188394D01*
Y192393D01*
X648775D02*
X649775Y193392D01*
X651774D01*
X652774Y192393D01*
Y188394D01*
X651774Y187394D01*
X649775D01*
X648775Y188394D01*
Y192393D01*
X654773Y193392D02*
Y187394D01*
Y190393D01*
X655773Y191393D01*
X657772D01*
X658772Y190393D01*
Y187394D01*
X664770Y193392D02*
X662770Y192393D01*
X660771Y190393D01*
Y188394D01*
X661771Y187394D01*
X663770D01*
X664770Y188394D01*
Y189393D01*
X663770Y190393D01*
X660771D01*
X666769Y192393D02*
X667769Y193392D01*
X669768D01*
X670768Y192393D01*
Y188394D01*
X669768Y187394D01*
X667769D01*
X666769Y188394D01*
Y192393D01*
X672767Y186395D02*
X676766D01*
X678765Y187394D02*
X680765D01*
X679765D01*
Y193392D01*
X678765Y192393D01*
X687762Y187394D02*
X683764D01*
X687762Y191393D01*
Y192393D01*
X686763Y193392D01*
X684763D01*
X683764Y192393D01*
X689762D02*
X690761Y193392D01*
X692761D01*
X693760Y192393D01*
Y188394D01*
X692761Y187394D01*
X690761D01*
X689762Y188394D01*
Y192393D01*
X695760Y191393D02*
Y187394D01*
Y189393D01*
X696760Y190393D01*
X697759Y191393D01*
X698759D01*
X701758Y187394D02*
X703757D01*
X702758D01*
Y193392D01*
X701758Y192393D01*
X706756D02*
X707756Y193392D01*
X709755D01*
X710755Y192393D01*
Y188394D01*
X709755Y187394D01*
X707756D01*
X706756Y188394D01*
Y192393D01*
X712754D02*
X713754Y193392D01*
X715753D01*
X716753Y192393D01*
Y188394D01*
X715753Y187394D01*
X713754D01*
X712754Y188394D01*
Y192393D01*
X608788Y176393D02*
Y172394D01*
Y174393D01*
X609788Y175393D01*
X610787Y176393D01*
X611787D01*
X618785Y172394D02*
X614786D01*
X618785Y176393D01*
Y177393D01*
X617785Y178392D01*
X615786D01*
X614786Y177393D01*
X620784Y172394D02*
X622783D01*
X621784D01*
Y178392D01*
X620784Y177393D01*
X625782D02*
X626782Y178392D01*
X628781D01*
X629781Y177393D01*
Y173394D01*
X628781Y172394D01*
X626782D01*
X625782Y173394D01*
Y177393D01*
X631780Y171395D02*
X635779D01*
X637779Y172394D02*
X639778D01*
X638778D01*
Y178392D01*
X637779Y177393D01*
X642777D02*
X643777Y178392D01*
X645776D01*
X646776Y177393D01*
Y173394D01*
X645776Y172394D01*
X643777D01*
X642777Y173394D01*
Y177393D01*
X648775D02*
X649775Y178392D01*
X651774D01*
X652774Y177393D01*
Y173394D01*
X651774Y172394D01*
X649775D01*
X648775Y173394D01*
Y177393D01*
X654773Y178392D02*
Y172394D01*
Y175393D01*
X655773Y176393D01*
X657772D01*
X658772Y175393D01*
Y172394D01*
X664770Y178392D02*
X662770Y177393D01*
X660771Y175393D01*
Y173394D01*
X661771Y172394D01*
X663770D01*
X664770Y173394D01*
Y174393D01*
X663770Y175393D01*
X660771D01*
X666769Y177393D02*
X667769Y178392D01*
X669768D01*
X670768Y177393D01*
Y173394D01*
X669768Y172394D01*
X667769D01*
X666769Y173394D01*
Y177393D01*
X672767Y171395D02*
X676766D01*
X678765Y172394D02*
X680765D01*
X679765D01*
Y178392D01*
X678765Y177393D01*
X683764Y178392D02*
X687762D01*
Y177393D01*
X683764Y173394D01*
Y172394D01*
X689762Y177393D02*
X690761Y178392D01*
X692761D01*
X693760Y177393D01*
Y173394D01*
X692761Y172394D01*
X690761D01*
X689762Y173394D01*
Y177393D01*
X695760Y176393D02*
Y172394D01*
Y174393D01*
X696760Y175393D01*
X697759Y176393D01*
X698759D01*
X701758Y172394D02*
X703757D01*
X702758D01*
Y178392D01*
X701758Y177393D01*
X706756D02*
X707756Y178392D01*
X709755D01*
X710755Y177393D01*
Y173394D01*
X709755Y172394D01*
X707756D01*
X706756Y173394D01*
Y177393D01*
X712754D02*
X713754Y178392D01*
X715753D01*
X716753Y177393D01*
Y173394D01*
X715753Y172394D01*
X713754D01*
X712754Y173394D01*
Y177393D01*
X612787Y161393D02*
X609788D01*
X608788Y160393D01*
Y158394D01*
X609788Y157394D01*
X612787D01*
X618785Y163392D02*
X616785Y162393D01*
X614786Y160393D01*
Y158394D01*
X615786Y157394D01*
X617785D01*
X618785Y158394D01*
Y159394D01*
X617785Y160393D01*
X614786D01*
X624783Y163392D02*
X620784D01*
Y160393D01*
X622783Y161393D01*
X623783D01*
X624783Y160393D01*
Y158394D01*
X623783Y157394D01*
X621784D01*
X620784Y158394D01*
X626782Y163392D02*
Y157394D01*
Y160393D01*
X627782Y161393D01*
X629781D01*
X630781Y160393D01*
Y157394D01*
X636779Y163392D02*
X634780Y162393D01*
X632780Y160393D01*
Y158394D01*
X633780Y157394D01*
X635779D01*
X636779Y158394D01*
Y159394D01*
X635779Y160393D01*
X632780D01*
X642777Y163392D02*
X638778D01*
Y160393D01*
X640778Y161393D01*
X641777D01*
X642777Y160393D01*
Y158394D01*
X641777Y157394D01*
X639778D01*
X638778Y158394D01*
X612787Y146393D02*
X609788D01*
X608788Y145393D01*
Y143394D01*
X609788Y142394D01*
X612787D01*
X614786Y147393D02*
X615786Y148392D01*
X617785D01*
X618785Y147393D01*
Y146393D01*
X617785Y145393D01*
X616785D01*
X617785D01*
X618785Y144394D01*
Y143394D01*
X617785Y142394D01*
X615786D01*
X614786Y143394D01*
X620784Y147393D02*
X621784Y148392D01*
X623783D01*
X624783Y147393D01*
Y143394D01*
X623783Y142394D01*
X621784D01*
X620784Y143394D01*
Y147393D01*
X626782D02*
X627782Y148392D01*
X629781D01*
X630781Y147393D01*
Y143394D01*
X629781Y142394D01*
X627782D01*
X626782Y143394D01*
Y147393D01*
X632780Y148392D02*
Y142394D01*
Y145393D01*
X633780Y146393D01*
X635779D01*
X636779Y145393D01*
Y142394D01*
X642777D02*
X638778D01*
X642777Y146393D01*
Y147393D01*
X641777Y148392D01*
X639778D01*
X638778Y147393D01*
X644776D02*
X645776Y148392D01*
X647775D01*
X648775Y147393D01*
Y143394D01*
X647775Y142394D01*
X645776D01*
X644776Y143394D01*
Y147393D01*
X650774D02*
X651774Y148392D01*
X653773D01*
X654773Y147393D01*
Y143394D01*
X653773Y142394D01*
X651774D01*
X650774Y143394D01*
Y147393D01*
X612787Y131393D02*
X609788D01*
X608788Y130393D01*
Y128394D01*
X609788Y127394D01*
X612787D01*
X614786D02*
X616785D01*
X615786D01*
Y133392D01*
X614786Y132393D01*
X623783Y127394D02*
X619784D01*
X623783Y131393D01*
Y132393D01*
X622783Y133392D01*
X620784D01*
X619784Y132393D01*
X625782Y133392D02*
X629781D01*
Y132393D01*
X625782Y128394D01*
Y127394D01*
X631780Y133392D02*
Y127394D01*
Y130393D01*
X632780Y131393D01*
X634780D01*
X635779Y130393D01*
Y127394D01*
X637779Y132393D02*
X638778Y133392D01*
X640778D01*
X641777Y132393D01*
Y131393D01*
X640778Y130393D01*
X641777Y129393D01*
Y128394D01*
X640778Y127394D01*
X638778D01*
X637779Y128394D01*
Y129393D01*
X638778Y130393D01*
X637779Y131393D01*
Y132393D01*
X638778Y130393D02*
X640778D01*
X643777Y127394D02*
X645776D01*
X644776D01*
Y133392D01*
X643777Y132393D01*
X608788Y116393D02*
X610787Y112394D01*
X612787Y116393D01*
X618785Y118392D02*
X614786D01*
Y115393D01*
X616785Y116393D01*
X617785D01*
X618785Y115393D01*
Y113394D01*
X617785Y112394D01*
X615786D01*
X614786Y113394D01*
X620784Y112394D02*
X622783D01*
X621784D01*
Y118392D01*
X620784Y117393D01*
X625782Y118392D02*
Y112394D01*
Y115393D01*
X626782Y116393D01*
X628781D01*
X629781Y115393D01*
Y112394D01*
X635779D02*
X631780D01*
X635779Y116393D01*
Y117393D01*
X634780Y118392D01*
X632780D01*
X631780Y117393D01*
X641777Y118392D02*
X637779D01*
Y115393D01*
X639778Y116393D01*
X640778D01*
X641777Y115393D01*
Y113394D01*
X640778Y112394D01*
X638778D01*
X637779Y113394D01*
X643777Y112394D02*
Y116393D01*
X644776D01*
X645776Y115393D01*
Y112394D01*
Y115393D01*
X646776Y116393D01*
X647775Y115393D01*
Y112394D01*
X649775Y117393D02*
X650774Y118392D01*
X652774D01*
X653773Y117393D01*
Y113394D01*
X652774Y112394D01*
X650774D01*
X649775Y113394D01*
Y117393D01*
X655773Y112394D02*
Y116393D01*
X656772D01*
X657772Y115393D01*
Y112394D01*
Y115393D01*
X658772Y116393D01*
X659771Y115393D01*
Y112394D01*
X661771Y116393D02*
X665769Y112394D01*
X663770Y114393D01*
X665769Y116393D01*
X661771Y112394D01*
X667769Y117393D02*
X668769Y118392D01*
X670768D01*
X671768Y117393D01*
Y113394D01*
X670768Y112394D01*
X668769D01*
X667769Y113394D01*
Y117393D01*
X534208Y187394D02*
Y193392D01*
X537207D01*
X538207Y192393D01*
Y190393D01*
X537207Y189393D01*
X534208D01*
X536207D02*
X538207Y187394D01*
X541206D02*
X543205D01*
X544205Y188394D01*
Y190393D01*
X543205Y191393D01*
X541206D01*
X540206Y190393D01*
Y188394D01*
X541206Y187394D01*
X546204Y191393D02*
Y188394D01*
X547204Y187394D01*
X550203D01*
Y191393D01*
X552202Y187394D02*
Y191393D01*
X555201D01*
X556201Y190393D01*
Y187394D01*
X562199Y193392D02*
Y187394D01*
X559200D01*
X558200Y188394D01*
Y190393D01*
X559200Y191393D01*
X562199D01*
X567197Y187394D02*
X565198D01*
X564198Y188394D01*
Y190393D01*
X565198Y191393D01*
X567197D01*
X568197Y190393D01*
Y189393D01*
X564198D01*
X574195Y193392D02*
Y187394D01*
X571196D01*
X570196Y188394D01*
Y190393D01*
X571196Y191393D01*
X574195D01*
X534208Y172394D02*
Y178392D01*
X537207D01*
X538207Y177393D01*
Y175393D01*
X537207Y174393D01*
X534208D01*
X536207D02*
X538207Y172394D01*
X541206D02*
X543205D01*
X544205Y173394D01*
Y175393D01*
X543205Y176393D01*
X541206D01*
X540206Y175393D01*
Y173394D01*
X541206Y172394D01*
X546204Y176393D02*
Y173394D01*
X547204Y172394D01*
X550203D01*
Y176393D01*
X552202Y172394D02*
Y176393D01*
X555201D01*
X556201Y175393D01*
Y172394D01*
X562199Y178392D02*
Y172394D01*
X559200D01*
X558200Y173394D01*
Y175393D01*
X559200Y176393D01*
X562199D01*
X567197Y172394D02*
X565198D01*
X564198Y173394D01*
Y175393D01*
X565198Y176393D01*
X567197D01*
X568197Y175393D01*
Y174393D01*
X564198D01*
X574195Y178392D02*
Y172394D01*
X571196D01*
X570196Y173394D01*
Y175393D01*
X571196Y176393D01*
X574195D01*
X534208Y157394D02*
Y163392D01*
X537207D01*
X538207Y162393D01*
Y160393D01*
X537207Y159394D01*
X534208D01*
X536207D02*
X538207Y157394D01*
X541206D02*
X543205D01*
X544205Y158394D01*
Y160393D01*
X543205Y161393D01*
X541206D01*
X540206Y160393D01*
Y158394D01*
X541206Y157394D01*
X546204Y161393D02*
Y158394D01*
X547204Y157394D01*
X550203D01*
Y161393D01*
X552202Y157394D02*
Y161393D01*
X555201D01*
X556201Y160393D01*
Y157394D01*
X562199Y163392D02*
Y157394D01*
X559200D01*
X558200Y158394D01*
Y160393D01*
X559200Y161393D01*
X562199D01*
X567197Y157394D02*
X565198D01*
X564198Y158394D01*
Y160393D01*
X565198Y161393D01*
X567197D01*
X568197Y160393D01*
Y159394D01*
X564198D01*
X574195Y163392D02*
Y157394D01*
X571196D01*
X570196Y158394D01*
Y160393D01*
X571196Y161393D01*
X574195D01*
X534208Y142394D02*
Y148392D01*
X537207D01*
X538207Y147393D01*
Y145393D01*
X537207Y144394D01*
X534208D01*
X536207D02*
X538207Y142394D01*
X541206D02*
X543205D01*
X544205Y143394D01*
Y145393D01*
X543205Y146393D01*
X541206D01*
X540206Y145393D01*
Y143394D01*
X541206Y142394D01*
X546204Y146393D02*
Y143394D01*
X547204Y142394D01*
X550203D01*
Y146393D01*
X552202Y142394D02*
Y146393D01*
X555201D01*
X556201Y145393D01*
Y142394D01*
X562199Y148392D02*
Y142394D01*
X559200D01*
X558200Y143394D01*
Y145393D01*
X559200Y146393D01*
X562199D01*
X567197Y142394D02*
X565198D01*
X564198Y143394D01*
Y145393D01*
X565198Y146393D01*
X567197D01*
X568197Y145393D01*
Y144394D01*
X564198D01*
X574195Y148392D02*
Y142394D01*
X571196D01*
X570196Y143394D01*
Y145393D01*
X571196Y146393D01*
X574195D01*
X534208Y127394D02*
Y133392D01*
X537207D01*
X538207Y132393D01*
Y130393D01*
X537207Y129393D01*
X534208D01*
X536207D02*
X538207Y127394D01*
X541206D02*
X543205D01*
X544205Y128394D01*
Y130393D01*
X543205Y131393D01*
X541206D01*
X540206Y130393D01*
Y128394D01*
X541206Y127394D01*
X546204Y131393D02*
Y128394D01*
X547204Y127394D01*
X550203D01*
Y131393D01*
X552202Y127394D02*
Y131393D01*
X555201D01*
X556201Y130393D01*
Y127394D01*
X562199Y133392D02*
Y127394D01*
X559200D01*
X558200Y128394D01*
Y130393D01*
X559200Y131393D01*
X562199D01*
X567197Y127394D02*
X565198D01*
X564198Y128394D01*
Y130393D01*
X565198Y131393D01*
X567197D01*
X568197Y130393D01*
Y129393D01*
X564198D01*
X574195Y133392D02*
Y127394D01*
X571196D01*
X570196Y128394D01*
Y130393D01*
X571196Y131393D01*
X574195D01*
X534208Y112394D02*
Y118392D01*
X537207D01*
X538207Y117393D01*
Y115393D01*
X537207Y114393D01*
X534208D01*
X536207D02*
X538207Y112394D01*
X541206D02*
X543205D01*
X544205Y113394D01*
Y115393D01*
X543205Y116393D01*
X541206D01*
X540206Y115393D01*
Y113394D01*
X541206Y112394D01*
X546204Y116393D02*
Y113394D01*
X547204Y112394D01*
X550203D01*
Y116393D01*
X552202Y112394D02*
Y116393D01*
X555201D01*
X556201Y115393D01*
Y112394D01*
X562199Y118392D02*
Y112394D01*
X559200D01*
X558200Y113394D01*
Y115393D01*
X559200Y116393D01*
X562199D01*
X567197Y112394D02*
X565198D01*
X564198Y113394D01*
Y115393D01*
X565198Y116393D01*
X567197D01*
X568197Y115393D01*
Y114393D01*
X564198D01*
X574195Y118392D02*
Y112394D01*
X571196D01*
X570196Y113394D01*
Y115393D01*
X571196Y116393D01*
X574195D01*
X475223Y187394D02*
Y193392D01*
X478222D01*
X479222Y192393D01*
Y190393D01*
X478222Y189393D01*
X475223D01*
X482221Y191393D02*
X484220D01*
X485220Y190393D01*
Y187394D01*
X482221D01*
X481221Y188394D01*
X482221Y189393D01*
X485220D01*
X491218Y193392D02*
Y187394D01*
X488219D01*
X487219Y188394D01*
Y190393D01*
X488219Y191393D01*
X491218D01*
X475223Y172394D02*
Y178392D01*
X478222D01*
X479222Y177393D01*
Y175393D01*
X478222Y174393D01*
X475223D01*
X482221Y176393D02*
X484220D01*
X485220Y175393D01*
Y172394D01*
X482221D01*
X481221Y173394D01*
X482221Y174393D01*
X485220D01*
X491218Y178392D02*
Y172394D01*
X488219D01*
X487219Y173394D01*
Y175393D01*
X488219Y176393D01*
X491218D01*
X475223Y157394D02*
Y163392D01*
X478222D01*
X479222Y162393D01*
Y160393D01*
X478222Y159394D01*
X475223D01*
X482221Y161393D02*
X484220D01*
X485220Y160393D01*
Y157394D01*
X482221D01*
X481221Y158394D01*
X482221Y159394D01*
X485220D01*
X491218Y163392D02*
Y157394D01*
X488219D01*
X487219Y158394D01*
Y160393D01*
X488219Y161393D01*
X491218D01*
X475223Y142394D02*
Y148392D01*
X478222D01*
X479222Y147393D01*
Y145393D01*
X478222Y144394D01*
X475223D01*
X482221Y146393D02*
X484220D01*
X485220Y145393D01*
Y142394D01*
X482221D01*
X481221Y143394D01*
X482221Y144394D01*
X485220D01*
X491218Y148392D02*
Y142394D01*
X488219D01*
X487219Y143394D01*
Y145393D01*
X488219Y146393D01*
X491218D01*
X475223Y127394D02*
Y133392D01*
X478222D01*
X479222Y132393D01*
Y130393D01*
X478222Y129393D01*
X475223D01*
X482221Y131393D02*
X484220D01*
X485220Y130393D01*
Y127394D01*
X482221D01*
X481221Y128394D01*
X482221Y129393D01*
X485220D01*
X491218Y133392D02*
Y127394D01*
X488219D01*
X487219Y128394D01*
Y130393D01*
X488219Y131393D01*
X491218D01*
X475223Y118392D02*
Y114393D01*
X477223Y112394D01*
X479222Y114393D01*
Y118392D01*
X481221Y112394D02*
X483221D01*
X482221D01*
Y116393D01*
X481221D01*
X487219D02*
X489219D01*
X490218Y115393D01*
Y112394D01*
X487219D01*
X486220Y113394D01*
X487219Y114393D01*
X490218D01*
X356258Y193392D02*
X360257D01*
X358257D01*
Y187394D01*
X363256D02*
X365255D01*
X366255Y188394D01*
Y190393D01*
X365255Y191393D01*
X363256D01*
X362256Y190393D01*
Y188394D01*
X363256Y187394D01*
X368254Y185395D02*
Y191393D01*
X371253D01*
X372253Y190393D01*
Y188394D01*
X371253Y187394D01*
X368254D01*
X374252D02*
X376251D01*
X375252D01*
Y193392D01*
X374252Y192393D01*
X385248Y190393D02*
X389247D01*
X397245Y193392D02*
Y187394D01*
X400244D01*
X401243Y188394D01*
Y189393D01*
X400244Y190393D01*
X397245D01*
X400244D01*
X401243Y191393D01*
Y192393D01*
X400244Y193392D01*
X397245D01*
X404242Y187394D02*
X406242D01*
X407241Y188394D01*
Y190393D01*
X406242Y191393D01*
X404242D01*
X403243Y190393D01*
Y188394D01*
X404242Y187394D01*
X410240Y192393D02*
Y191393D01*
X409241D01*
X411240D01*
X410240D01*
Y188394D01*
X411240Y187394D01*
X415239Y192393D02*
Y191393D01*
X414239D01*
X416238D01*
X415239D01*
Y188394D01*
X416238Y187394D01*
X420237D02*
X422236D01*
X423236Y188394D01*
Y190393D01*
X422236Y191393D01*
X420237D01*
X419237Y190393D01*
Y188394D01*
X420237Y187394D01*
X425236D02*
Y191393D01*
X426235D01*
X427235Y190393D01*
Y187394D01*
Y190393D01*
X428234Y191393D01*
X429234Y190393D01*
Y187394D01*
X435232D02*
X431234D01*
X435232Y191393D01*
Y192393D01*
X434233Y193392D01*
X432233D01*
X431234Y192393D01*
X356258Y178392D02*
X360257D01*
X358257D01*
Y172394D01*
X363256D02*
X365255D01*
X366255Y173394D01*
Y175393D01*
X365255Y176393D01*
X363256D01*
X362256Y175393D01*
Y173394D01*
X363256Y172394D01*
X368254Y170395D02*
Y176393D01*
X371253D01*
X372253Y175393D01*
Y173394D01*
X371253Y172394D01*
X368254D01*
X374252D02*
X376251D01*
X375252D01*
Y178392D01*
X374252Y177393D01*
X385248Y175393D02*
X389247D01*
X397245Y178392D02*
Y172394D01*
X400244D01*
X401243Y173394D01*
Y174393D01*
X400244Y175393D01*
X397245D01*
X400244D01*
X401243Y176393D01*
Y177393D01*
X400244Y178392D01*
X397245D01*
X404242Y172394D02*
X406242D01*
X407241Y173394D01*
Y175393D01*
X406242Y176393D01*
X404242D01*
X403243Y175393D01*
Y173394D01*
X404242Y172394D01*
X410240Y177393D02*
Y176393D01*
X409241D01*
X411240D01*
X410240D01*
Y173394D01*
X411240Y172394D01*
X415239Y177393D02*
Y176393D01*
X414239D01*
X416238D01*
X415239D01*
Y173394D01*
X416238Y172394D01*
X420237D02*
X422236D01*
X423236Y173394D01*
Y175393D01*
X422236Y176393D01*
X420237D01*
X419237Y175393D01*
Y173394D01*
X420237Y172394D01*
X425236D02*
Y176393D01*
X426235D01*
X427235Y175393D01*
Y172394D01*
Y175393D01*
X428234Y176393D01*
X429234Y175393D01*
Y172394D01*
X435232D02*
X431234D01*
X435232Y176393D01*
Y177393D01*
X434233Y178392D01*
X432233D01*
X431234Y177393D01*
X356258Y163392D02*
X360257D01*
X358257D01*
Y157394D01*
X363256D02*
X365255D01*
X366255Y158394D01*
Y160393D01*
X365255Y161393D01*
X363256D01*
X362256Y160393D01*
Y158394D01*
X363256Y157394D01*
X368254Y155395D02*
Y161393D01*
X371253D01*
X372253Y160393D01*
Y158394D01*
X371253Y157394D01*
X368254D01*
X374252D02*
X376251D01*
X375252D01*
Y163392D01*
X374252Y162393D01*
X385248Y160393D02*
X389247D01*
X397245Y163392D02*
Y157394D01*
X400244D01*
X401243Y158394D01*
Y159394D01*
X400244Y160393D01*
X397245D01*
X400244D01*
X401243Y161393D01*
Y162393D01*
X400244Y163392D01*
X397245D01*
X404242Y157394D02*
X406242D01*
X407241Y158394D01*
Y160393D01*
X406242Y161393D01*
X404242D01*
X403243Y160393D01*
Y158394D01*
X404242Y157394D01*
X410240Y162393D02*
Y161393D01*
X409241D01*
X411240D01*
X410240D01*
Y158394D01*
X411240Y157394D01*
X415239Y162393D02*
Y161393D01*
X414239D01*
X416238D01*
X415239D01*
Y158394D01*
X416238Y157394D01*
X420237D02*
X422236D01*
X423236Y158394D01*
Y160393D01*
X422236Y161393D01*
X420237D01*
X419237Y160393D01*
Y158394D01*
X420237Y157394D01*
X425236D02*
Y161393D01*
X426235D01*
X427235Y160393D01*
Y157394D01*
Y160393D01*
X428234Y161393D01*
X429234Y160393D01*
Y157394D01*
X435232D02*
X431234D01*
X435232Y161393D01*
Y162393D01*
X434233Y163392D01*
X432233D01*
X431234Y162393D01*
X356258Y148392D02*
X360257D01*
X358257D01*
Y142394D01*
X363256D02*
X365255D01*
X366255Y143394D01*
Y145393D01*
X365255Y146393D01*
X363256D01*
X362256Y145393D01*
Y143394D01*
X363256Y142394D01*
X368254Y140395D02*
Y146393D01*
X371253D01*
X372253Y145393D01*
Y143394D01*
X371253Y142394D01*
X368254D01*
X374252D02*
X376251D01*
X375252D01*
Y148392D01*
X374252Y147393D01*
X385248Y145393D02*
X389247D01*
X397245Y148392D02*
Y142394D01*
X400244D01*
X401243Y143394D01*
Y144394D01*
X400244Y145393D01*
X397245D01*
X400244D01*
X401243Y146393D01*
Y147393D01*
X400244Y148392D01*
X397245D01*
X404242Y142394D02*
X406242D01*
X407241Y143394D01*
Y145393D01*
X406242Y146393D01*
X404242D01*
X403243Y145393D01*
Y143394D01*
X404242Y142394D01*
X410240Y147393D02*
Y146393D01*
X409241D01*
X411240D01*
X410240D01*
Y143394D01*
X411240Y142394D01*
X415239Y147393D02*
Y146393D01*
X414239D01*
X416238D01*
X415239D01*
Y143394D01*
X416238Y142394D01*
X420237D02*
X422236D01*
X423236Y143394D01*
Y145393D01*
X422236Y146393D01*
X420237D01*
X419237Y145393D01*
Y143394D01*
X420237Y142394D01*
X425236D02*
Y146393D01*
X426235D01*
X427235Y145393D01*
Y142394D01*
Y145393D01*
X428234Y146393D01*
X429234Y145393D01*
Y142394D01*
X435232D02*
X431234D01*
X435232Y146393D01*
Y147393D01*
X434233Y148392D01*
X432233D01*
X431234Y147393D01*
X356258Y133392D02*
X360257D01*
X358257D01*
Y127394D01*
X363256D02*
X365255D01*
X366255Y128394D01*
Y130393D01*
X365255Y131393D01*
X363256D01*
X362256Y130393D01*
Y128394D01*
X363256Y127394D01*
X368254Y125395D02*
Y131393D01*
X371253D01*
X372253Y130393D01*
Y128394D01*
X371253Y127394D01*
X368254D01*
X374252D02*
X376251D01*
X375252D01*
Y133392D01*
X374252Y132393D01*
X385248Y130393D02*
X389247D01*
X397245Y133392D02*
Y127394D01*
X400244D01*
X401243Y128394D01*
Y129393D01*
X400244Y130393D01*
X397245D01*
X400244D01*
X401243Y131393D01*
Y132393D01*
X400244Y133392D01*
X397245D01*
X404242Y127394D02*
X406242D01*
X407241Y128394D01*
Y130393D01*
X406242Y131393D01*
X404242D01*
X403243Y130393D01*
Y128394D01*
X404242Y127394D01*
X410240Y132393D02*
Y131393D01*
X409241D01*
X411240D01*
X410240D01*
Y128394D01*
X411240Y127394D01*
X415239Y132393D02*
Y131393D01*
X414239D01*
X416238D01*
X415239D01*
Y128394D01*
X416238Y127394D01*
X420237D02*
X422236D01*
X423236Y128394D01*
Y130393D01*
X422236Y131393D01*
X420237D01*
X419237Y130393D01*
Y128394D01*
X420237Y127394D01*
X425236D02*
Y131393D01*
X426235D01*
X427235Y130393D01*
Y127394D01*
Y130393D01*
X428234Y131393D01*
X429234Y130393D01*
Y127394D01*
X435232D02*
X431234D01*
X435232Y131393D01*
Y132393D01*
X434233Y133392D01*
X432233D01*
X431234Y132393D01*
X356258Y118392D02*
X360257D01*
X358257D01*
Y112394D01*
X363256D02*
X365255D01*
X366255Y113394D01*
Y115393D01*
X365255Y116393D01*
X363256D01*
X362256Y115393D01*
Y113394D01*
X363256Y112394D01*
X368254Y110395D02*
Y116393D01*
X371253D01*
X372253Y115393D01*
Y113394D01*
X371253Y112394D01*
X368254D01*
X374252D02*
X376251D01*
X375252D01*
Y118392D01*
X374252Y117393D01*
X385248Y115393D02*
X389247D01*
X397245Y118392D02*
Y112394D01*
X400244D01*
X401243Y113394D01*
Y114393D01*
X400244Y115393D01*
X397245D01*
X400244D01*
X401243Y116393D01*
Y117393D01*
X400244Y118392D01*
X397245D01*
X404242Y112394D02*
X406242D01*
X407241Y113394D01*
Y115393D01*
X406242Y116393D01*
X404242D01*
X403243Y115393D01*
Y113394D01*
X404242Y112394D01*
X410240Y117393D02*
Y116393D01*
X409241D01*
X411240D01*
X410240D01*
Y113394D01*
X411240Y112394D01*
X415239Y117393D02*
Y116393D01*
X414239D01*
X416238D01*
X415239D01*
Y113394D01*
X416238Y112394D01*
X420237D02*
X422236D01*
X423236Y113394D01*
Y115393D01*
X422236Y116393D01*
X420237D01*
X419237Y115393D01*
Y113394D01*
X420237Y112394D01*
X425236D02*
Y116393D01*
X426235D01*
X427235Y115393D01*
Y112394D01*
Y115393D01*
X428234Y116393D01*
X429234Y115393D01*
Y112394D01*
X435232D02*
X431234D01*
X435232Y116393D01*
Y117393D01*
X434233Y118392D01*
X432233D01*
X431234Y117393D01*
X286876Y192393D02*
X285877Y193392D01*
X283877D01*
X282878Y192393D01*
Y191393D01*
X283877Y190393D01*
X285877D01*
X286876Y189393D01*
Y188394D01*
X285877Y187394D01*
X283877D01*
X282878Y188394D01*
X288876Y187394D02*
X290875D01*
X289875D01*
Y193392D01*
X288876D01*
X294874Y187394D02*
X296873D01*
X297873Y188394D01*
Y190393D01*
X296873Y191393D01*
X294874D01*
X293874Y190393D01*
Y188394D01*
X294874Y187394D01*
X300872Y192393D02*
Y191393D01*
X299872D01*
X301871D01*
X300872D01*
Y188394D01*
X301871Y187394D01*
X286876Y177393D02*
X285877Y178392D01*
X283877D01*
X282878Y177393D01*
Y176393D01*
X283877Y175393D01*
X285877D01*
X286876Y174393D01*
Y173394D01*
X285877Y172394D01*
X283877D01*
X282878Y173394D01*
X288876Y172394D02*
X290875D01*
X289875D01*
Y178392D01*
X288876D01*
X294874Y172394D02*
X296873D01*
X297873Y173394D01*
Y175393D01*
X296873Y176393D01*
X294874D01*
X293874Y175393D01*
Y173394D01*
X294874Y172394D01*
X300872Y177393D02*
Y176393D01*
X299872D01*
X301871D01*
X300872D01*
Y173394D01*
X301871Y172394D01*
X282878Y157394D02*
Y163392D01*
X285877D01*
X286876Y162393D01*
Y160393D01*
X285877Y159394D01*
X282878D01*
X284877D02*
X286876Y157394D01*
X289875D02*
X291875D01*
X292874Y158394D01*
Y160393D01*
X291875Y161393D01*
X289875D01*
X288876Y160393D01*
Y158394D01*
X289875Y157394D01*
X294874Y161393D02*
Y158394D01*
X295873Y157394D01*
X298872D01*
Y161393D01*
X300872Y157394D02*
Y161393D01*
X303871D01*
X304871Y160393D01*
Y157394D01*
X310869Y163392D02*
Y157394D01*
X307870D01*
X306870Y158394D01*
Y160393D01*
X307870Y161393D01*
X310869D01*
X282878Y142394D02*
Y148392D01*
X285877D01*
X286876Y147393D01*
Y145393D01*
X285877Y144394D01*
X282878D01*
X284877D02*
X286876Y142394D01*
X289875D02*
X291875D01*
X292874Y143394D01*
Y145393D01*
X291875Y146393D01*
X289875D01*
X288876Y145393D01*
Y143394D01*
X289875Y142394D01*
X294874Y146393D02*
Y143394D01*
X295873Y142394D01*
X298872D01*
Y146393D01*
X300872Y142394D02*
Y146393D01*
X303871D01*
X304871Y145393D01*
Y142394D01*
X310869Y148392D02*
Y142394D01*
X307870D01*
X306870Y143394D01*
Y145393D01*
X307870Y146393D01*
X310869D01*
X282878Y127394D02*
Y133392D01*
X285877D01*
X286876Y132393D01*
Y130393D01*
X285877Y129393D01*
X282878D01*
X284877D02*
X286876Y127394D01*
X289875D02*
X291875D01*
X292874Y128394D01*
Y130393D01*
X291875Y131393D01*
X289875D01*
X288876Y130393D01*
Y128394D01*
X289875Y127394D01*
X294874Y131393D02*
Y128394D01*
X295873Y127394D01*
X298872D01*
Y131393D01*
X300872Y127394D02*
Y131393D01*
X303871D01*
X304871Y130393D01*
Y127394D01*
X310869Y133392D02*
Y127394D01*
X307870D01*
X306870Y128394D01*
Y130393D01*
X307870Y131393D01*
X310869D01*
X282878Y112394D02*
Y118392D01*
X285877D01*
X286876Y117393D01*
Y115393D01*
X285877Y114393D01*
X282878D01*
X284877D02*
X286876Y112394D01*
X289875D02*
X291875D01*
X292874Y113394D01*
Y115393D01*
X291875Y116393D01*
X289875D01*
X288876Y115393D01*
Y113394D01*
X289875Y112394D01*
X294874Y116393D02*
Y113394D01*
X295873Y112394D01*
X298872D01*
Y116393D01*
X300872Y112394D02*
Y116393D01*
X303871D01*
X304871Y115393D01*
Y112394D01*
X310869Y118392D02*
Y112394D01*
X307870D01*
X306870Y113394D01*
Y115393D01*
X307870Y116393D01*
X310869D01*
X232290Y187394D02*
Y193392D01*
X235289D01*
X236289Y192393D01*
Y190393D01*
X235289Y189393D01*
X232290D01*
X238288Y193392D02*
X242287D01*
X240287D01*
Y187394D01*
X244286Y193392D02*
Y187394D01*
Y190393D01*
X248285D01*
Y193392D01*
Y187394D01*
X232290Y172394D02*
Y178392D01*
X235289D01*
X236289Y177393D01*
Y175393D01*
X235289Y174393D01*
X232290D01*
X238288Y178392D02*
X242287D01*
X240287D01*
Y172394D01*
X244286Y178392D02*
Y172394D01*
Y175393D01*
X248285D01*
Y178392D01*
Y172394D01*
X232290Y157394D02*
Y163392D01*
X235289D01*
X236289Y162393D01*
Y160393D01*
X235289Y159394D01*
X232290D01*
X238288Y163392D02*
X242287D01*
X240287D01*
Y157394D01*
X244286Y163392D02*
Y157394D01*
Y160393D01*
X248285D01*
Y163392D01*
Y157394D01*
X232290Y142394D02*
Y148392D01*
X235289D01*
X236289Y147393D01*
Y145393D01*
X235289Y144394D01*
X232290D01*
X238288Y148392D02*
X242287D01*
X240287D01*
Y142394D01*
X244286Y148392D02*
Y142394D01*
Y145393D01*
X248285D01*
Y148392D01*
Y142394D01*
X232290Y127394D02*
Y133392D01*
X235289D01*
X236289Y132393D01*
Y130393D01*
X235289Y129393D01*
X232290D01*
X238288Y133392D02*
X242287D01*
X240287D01*
Y127394D01*
X244286Y133392D02*
Y127394D01*
Y130393D01*
X248285D01*
Y133392D01*
Y127394D01*
X232290Y112394D02*
Y118392D01*
X235289D01*
X236289Y117393D01*
Y115393D01*
X235289Y114393D01*
X232290D01*
X238288Y118392D02*
X242287D01*
X240287D01*
Y112394D01*
X244286Y118392D02*
Y112394D01*
Y115393D01*
X248285D01*
Y118392D01*
Y112394D01*
X126321Y187394D02*
X122322D01*
X126321Y191393D01*
Y192393D01*
X125321Y193392D01*
X123322D01*
X122322Y192393D01*
X128320D02*
X129320Y193392D01*
X131319D01*
X132319Y192393D01*
Y191393D01*
X131319Y190393D01*
X130319D01*
X131319D01*
X132319Y189393D01*
Y188394D01*
X131319Y187394D01*
X129320D01*
X128320Y188394D01*
X134318Y187394D02*
Y188394D01*
X135318D01*
Y187394D01*
X134318D01*
X143315Y193392D02*
X141316Y192393D01*
X139316Y190393D01*
Y188394D01*
X140316Y187394D01*
X142316D01*
X143315Y188394D01*
Y189393D01*
X142316Y190393D01*
X139316D01*
X149313Y187394D02*
X145315D01*
X149313Y191393D01*
Y192393D01*
X148314Y193392D01*
X146314D01*
X145315Y192393D01*
X151313Y187394D02*
Y191393D01*
X152312D01*
X153312Y190393D01*
Y187394D01*
Y190393D01*
X154312Y191393D01*
X155311Y190393D01*
Y187394D01*
X157311D02*
X159310D01*
X158310D01*
Y191393D01*
X157311D01*
X162309Y187394D02*
X164308D01*
X163309D01*
Y193392D01*
X162309D01*
X175305Y187394D02*
X173305Y189393D01*
Y191393D01*
X175305Y193392D01*
X178304Y192393D02*
X179304Y193392D01*
X181303D01*
X182303Y192393D01*
Y188394D01*
X181303Y187394D01*
X179304D01*
X178304Y188394D01*
Y192393D01*
X184302Y187394D02*
Y188394D01*
X185302D01*
Y187394D01*
X184302D01*
X193299Y193392D02*
X191300Y192393D01*
X189300Y190393D01*
Y188394D01*
X190300Y187394D01*
X192299D01*
X193299Y188394D01*
Y189393D01*
X192299Y190393D01*
X189300D01*
X195298Y192393D02*
X196298Y193392D01*
X198298D01*
X199297Y192393D01*
Y188394D01*
X198298Y187394D01*
X196298D01*
X195298Y188394D01*
Y192393D01*
X201296D02*
X202296Y193392D01*
X204295D01*
X205295Y192393D01*
Y188394D01*
X204295Y187394D01*
X202296D01*
X201296Y188394D01*
Y192393D01*
X207295Y187394D02*
Y191393D01*
X208294D01*
X209294Y190393D01*
Y187394D01*
Y190393D01*
X210294Y191393D01*
X211293Y190393D01*
Y187394D01*
X213293D02*
Y191393D01*
X214292D01*
X215292Y190393D01*
Y187394D01*
Y190393D01*
X216292Y191393D01*
X217291Y190393D01*
Y187394D01*
X219291D02*
X221290Y189393D01*
Y191393D01*
X219291Y193392D01*
X126321Y172394D02*
X122322D01*
X126321Y176393D01*
Y177393D01*
X125321Y178392D01*
X123322D01*
X122322Y177393D01*
X128320D02*
X129320Y178392D01*
X131319D01*
X132319Y177393D01*
Y176393D01*
X131319Y175393D01*
X130319D01*
X131319D01*
X132319Y174393D01*
Y173394D01*
X131319Y172394D01*
X129320D01*
X128320Y173394D01*
X134318Y172394D02*
Y173394D01*
X135318D01*
Y172394D01*
X134318D01*
X143315Y178392D02*
X141316Y177393D01*
X139316Y175393D01*
Y173394D01*
X140316Y172394D01*
X142316D01*
X143315Y173394D01*
Y174393D01*
X142316Y175393D01*
X139316D01*
X149313Y172394D02*
X145315D01*
X149313Y176393D01*
Y177393D01*
X148314Y178392D01*
X146314D01*
X145315Y177393D01*
X151313Y172394D02*
Y176393D01*
X152312D01*
X153312Y175393D01*
Y172394D01*
Y175393D01*
X154312Y176393D01*
X155311Y175393D01*
Y172394D01*
X157311D02*
X159310D01*
X158310D01*
Y176393D01*
X157311D01*
X162309Y172394D02*
X164308D01*
X163309D01*
Y178392D01*
X162309D01*
X175305Y172394D02*
X173305Y174393D01*
Y176393D01*
X175305Y178392D01*
X178304Y177393D02*
X179304Y178392D01*
X181303D01*
X182303Y177393D01*
Y173394D01*
X181303Y172394D01*
X179304D01*
X178304Y173394D01*
Y177393D01*
X184302Y172394D02*
Y173394D01*
X185302D01*
Y172394D01*
X184302D01*
X193299Y178392D02*
X191300Y177393D01*
X189300Y175393D01*
Y173394D01*
X190300Y172394D01*
X192299D01*
X193299Y173394D01*
Y174393D01*
X192299Y175393D01*
X189300D01*
X195298Y177393D02*
X196298Y178392D01*
X198298D01*
X199297Y177393D01*
Y173394D01*
X198298Y172394D01*
X196298D01*
X195298Y173394D01*
Y177393D01*
X201296D02*
X202296Y178392D01*
X204295D01*
X205295Y177393D01*
Y173394D01*
X204295Y172394D01*
X202296D01*
X201296Y173394D01*
Y177393D01*
X207295Y172394D02*
Y176393D01*
X208294D01*
X209294Y175393D01*
Y172394D01*
Y175393D01*
X210294Y176393D01*
X211293Y175393D01*
Y172394D01*
X213293D02*
Y176393D01*
X214292D01*
X215292Y175393D01*
Y172394D01*
Y175393D01*
X216292Y176393D01*
X217291Y175393D01*
Y172394D01*
X219291D02*
X221290Y174393D01*
Y176393D01*
X219291Y178392D01*
X126321Y157394D02*
X122322D01*
X126321Y161393D01*
Y162393D01*
X125321Y163392D01*
X123322D01*
X122322Y162393D01*
X132319Y163392D02*
X128320D01*
Y160393D01*
X130319Y161393D01*
X131319D01*
X132319Y160393D01*
Y158394D01*
X131319Y157394D01*
X129320D01*
X128320Y158394D01*
X134318Y157394D02*
Y158394D01*
X135318D01*
Y157394D01*
X134318D01*
X143315Y163392D02*
X139316D01*
Y160393D01*
X141316Y161393D01*
X142316D01*
X143315Y160393D01*
Y158394D01*
X142316Y157394D01*
X140316D01*
X139316Y158394D01*
X145315D02*
X146314Y157394D01*
X148314D01*
X149313Y158394D01*
Y162393D01*
X148314Y163392D01*
X146314D01*
X145315Y162393D01*
Y161393D01*
X146314Y160393D01*
X149313D01*
X151313Y157394D02*
Y161393D01*
X152312D01*
X153312Y160393D01*
Y157394D01*
Y160393D01*
X154312Y161393D01*
X155311Y160393D01*
Y157394D01*
X157311D02*
X159310D01*
X158310D01*
Y161393D01*
X157311D01*
X162309Y157394D02*
X164308D01*
X163309D01*
Y163392D01*
X162309D01*
X175305Y157394D02*
X173305Y159394D01*
Y161393D01*
X175305Y163392D01*
X178304Y162393D02*
X179304Y163392D01*
X181303D01*
X182303Y162393D01*
Y158394D01*
X181303Y157394D01*
X179304D01*
X178304Y158394D01*
Y162393D01*
X184302Y157394D02*
Y158394D01*
X185302D01*
Y157394D01*
X184302D01*
X193299Y163392D02*
X191300Y162393D01*
X189300Y160393D01*
Y158394D01*
X190300Y157394D01*
X192299D01*
X193299Y158394D01*
Y159394D01*
X192299Y160393D01*
X189300D01*
X199297Y163392D02*
X195298D01*
Y160393D01*
X197298Y161393D01*
X198298D01*
X199297Y160393D01*
Y158394D01*
X198298Y157394D01*
X196298D01*
X195298Y158394D01*
X201296Y162393D02*
X202296Y163392D01*
X204295D01*
X205295Y162393D01*
Y158394D01*
X204295Y157394D01*
X202296D01*
X201296Y158394D01*
Y162393D01*
X207295Y157394D02*
Y161393D01*
X208294D01*
X209294Y160393D01*
Y157394D01*
Y160393D01*
X210294Y161393D01*
X211293Y160393D01*
Y157394D01*
X213293D02*
Y161393D01*
X214292D01*
X215292Y160393D01*
Y157394D01*
Y160393D01*
X216292Y161393D01*
X217291Y160393D01*
Y157394D01*
X219291D02*
X221290Y159394D01*
Y161393D01*
X219291Y163392D01*
X122322Y148392D02*
X126321D01*
Y147393D01*
X122322Y143394D01*
Y142394D01*
X128320Y147393D02*
X129320Y148392D01*
X131319D01*
X132319Y147393D01*
Y146393D01*
X131319Y145393D01*
X132319Y144394D01*
Y143394D01*
X131319Y142394D01*
X129320D01*
X128320Y143394D01*
Y144394D01*
X129320Y145393D01*
X128320Y146393D01*
Y147393D01*
X129320Y145393D02*
X131319D01*
X134318Y142394D02*
Y143394D01*
X135318D01*
Y142394D01*
X134318D01*
X139316Y148392D02*
X143315D01*
Y147393D01*
X139316Y143394D01*
Y142394D01*
X148314D02*
Y148392D01*
X145315Y145393D01*
X149313D01*
X151313Y142394D02*
Y146393D01*
X152312D01*
X153312Y145393D01*
Y142394D01*
Y145393D01*
X154312Y146393D01*
X155311Y145393D01*
Y142394D01*
X157311D02*
X159310D01*
X158310D01*
Y146393D01*
X157311D01*
X162309Y142394D02*
X164308D01*
X163309D01*
Y148392D01*
X162309D01*
X175305Y142394D02*
X173305Y144394D01*
Y146393D01*
X175305Y148392D01*
X182303Y142394D02*
X178304D01*
X182303Y146393D01*
Y147393D01*
X181303Y148392D01*
X179304D01*
X178304Y147393D01*
X184302Y142394D02*
Y143394D01*
X185302D01*
Y142394D01*
X184302D01*
X189300Y147393D02*
X190300Y148392D01*
X192299D01*
X193299Y147393D01*
Y143394D01*
X192299Y142394D01*
X190300D01*
X189300Y143394D01*
Y147393D01*
X195298D02*
X196298Y148392D01*
X198298D01*
X199297Y147393D01*
Y143394D01*
X198298Y142394D01*
X196298D01*
X195298Y143394D01*
Y147393D01*
X201296D02*
X202296Y148392D01*
X204295D01*
X205295Y147393D01*
Y143394D01*
X204295Y142394D01*
X202296D01*
X201296Y143394D01*
Y147393D01*
X207295Y142394D02*
Y146393D01*
X208294D01*
X209294Y145393D01*
Y142394D01*
Y145393D01*
X210294Y146393D01*
X211293Y145393D01*
Y142394D01*
X213293D02*
Y146393D01*
X214292D01*
X215292Y145393D01*
Y142394D01*
Y145393D01*
X216292Y146393D01*
X217291Y145393D01*
Y142394D01*
X219291D02*
X221290Y144394D01*
Y146393D01*
X219291Y148392D01*
X122322Y132393D02*
X123322Y133392D01*
X125321D01*
X126321Y132393D01*
Y131393D01*
X125321Y130393D01*
X124321D01*
X125321D01*
X126321Y129393D01*
Y128394D01*
X125321Y127394D01*
X123322D01*
X122322Y128394D01*
X132319Y127394D02*
X128320D01*
X132319Y131393D01*
Y132393D01*
X131319Y133392D01*
X129320D01*
X128320Y132393D01*
X134318Y127394D02*
Y128394D01*
X135318D01*
Y127394D01*
X134318D01*
X139316Y132393D02*
X140316Y133392D01*
X142316D01*
X143315Y132393D01*
Y128394D01*
X142316Y127394D01*
X140316D01*
X139316Y128394D01*
Y132393D01*
X145315D02*
X146314Y133392D01*
X148314D01*
X149313Y132393D01*
Y128394D01*
X148314Y127394D01*
X146314D01*
X145315Y128394D01*
Y132393D01*
X151313Y127394D02*
Y131393D01*
X152312D01*
X153312Y130393D01*
Y127394D01*
Y130393D01*
X154312Y131393D01*
X155311Y130393D01*
Y127394D01*
X157311D02*
X159310D01*
X158310D01*
Y131393D01*
X157311D01*
X162309Y127394D02*
X164308D01*
X163309D01*
Y133392D01*
X162309D01*
X175305Y127394D02*
X173305Y129393D01*
Y131393D01*
X175305Y133392D01*
X178304Y132393D02*
X179304Y133392D01*
X181303D01*
X182303Y132393D01*
Y128394D01*
X181303Y127394D01*
X179304D01*
X178304Y128394D01*
Y132393D01*
X184302Y127394D02*
Y128394D01*
X185302D01*
Y127394D01*
X184302D01*
X189300Y132393D02*
X190300Y133392D01*
X192299D01*
X193299Y132393D01*
Y131393D01*
X192299Y130393D01*
X193299Y129393D01*
Y128394D01*
X192299Y127394D01*
X190300D01*
X189300Y128394D01*
Y129393D01*
X190300Y130393D01*
X189300Y131393D01*
Y132393D01*
X190300Y130393D02*
X192299D01*
X195298Y127394D02*
X197298D01*
X196298D01*
Y133392D01*
X195298Y132393D01*
X200297D02*
X201296Y133392D01*
X203296D01*
X204295Y132393D01*
Y131393D01*
X203296Y130393D01*
X202296D01*
X203296D01*
X204295Y129393D01*
Y128394D01*
X203296Y127394D01*
X201296D01*
X200297Y128394D01*
X206295Y127394D02*
Y131393D01*
X207295D01*
X208294Y130393D01*
Y127394D01*
Y130393D01*
X209294Y131393D01*
X210294Y130393D01*
Y127394D01*
X212293D02*
Y131393D01*
X213293D01*
X214292Y130393D01*
Y127394D01*
Y130393D01*
X215292Y131393D01*
X216292Y130393D01*
Y127394D01*
X218291D02*
X220290Y129393D01*
Y131393D01*
X218291Y133392D01*
X122322Y112394D02*
X124321D01*
X123322D01*
Y118392D01*
X122322Y117393D01*
X127320D02*
X128320Y118392D01*
X130319D01*
X131319Y117393D01*
Y113394D01*
X130319Y112394D01*
X128320D01*
X127320Y113394D01*
Y117393D01*
X133318Y112394D02*
Y113394D01*
X134318D01*
Y112394D01*
X133318D01*
X138317Y117393D02*
X139316Y118392D01*
X141316D01*
X142316Y117393D01*
Y113394D01*
X141316Y112394D01*
X139316D01*
X138317Y113394D01*
Y117393D01*
X144315D02*
X145315Y118392D01*
X147314D01*
X148314Y117393D01*
Y113394D01*
X147314Y112394D01*
X145315D01*
X144315Y113394D01*
Y117393D01*
X150313Y112394D02*
Y116393D01*
X151313D01*
X152312Y115393D01*
Y112394D01*
Y115393D01*
X153312Y116393D01*
X154312Y115393D01*
Y112394D01*
X156311D02*
X158310D01*
X157311D01*
Y116393D01*
X156311D01*
X161309Y112394D02*
X163309D01*
X162309D01*
Y118392D01*
X161309D01*
X174305Y112394D02*
X172306Y114393D01*
Y116393D01*
X174305Y118392D01*
X177304Y117393D02*
X178304Y118392D01*
X180303D01*
X181303Y117393D01*
Y113394D01*
X180303Y112394D01*
X178304D01*
X177304Y113394D01*
Y117393D01*
X183302Y112394D02*
Y113394D01*
X184302D01*
Y112394D01*
X183302D01*
X192299D02*
X188301D01*
X192299Y116393D01*
Y117393D01*
X191300Y118392D01*
X189300D01*
X188301Y117393D01*
X198298Y118392D02*
X194299D01*
Y115393D01*
X196298Y116393D01*
X197298D01*
X198298Y115393D01*
Y113394D01*
X197298Y112394D01*
X195298D01*
X194299Y113394D01*
X203296Y112394D02*
Y118392D01*
X200297Y115393D01*
X204295D01*
X206295Y112394D02*
Y116393D01*
X207295D01*
X208294Y115393D01*
Y112394D01*
Y115393D01*
X209294Y116393D01*
X210294Y115393D01*
Y112394D01*
X212293D02*
Y116393D01*
X213293D01*
X214292Y115393D01*
Y112394D01*
Y115393D01*
X215292Y116393D01*
X216292Y115393D01*
Y112394D01*
X218291D02*
X220290Y114393D01*
Y116393D01*
X218291Y118392D01*
X63338Y97394D02*
X65337D01*
X64337D01*
Y103392D01*
X63338Y102393D01*
X68336Y103392D02*
X72335D01*
Y102393D01*
X68336Y98394D01*
Y97394D01*
X74334Y103392D02*
X78333D01*
Y102393D01*
X74334Y98394D01*
Y97394D01*
X86330Y103392D02*
X90329D01*
X88329D01*
Y97394D01*
X93328D02*
X95327D01*
X96327Y98394D01*
Y100393D01*
X95327Y101393D01*
X93328D01*
X92328Y100393D01*
Y98394D01*
X93328Y97394D01*
X99326Y102393D02*
Y101393D01*
X98326D01*
X100326D01*
X99326D01*
Y98394D01*
X100326Y97394D01*
X104324Y101393D02*
X106324D01*
X107323Y100393D01*
Y97394D01*
X104324D01*
X103325Y98394D01*
X104324Y99393D01*
X107323D01*
X109323Y97394D02*
X111322D01*
X110322D01*
Y103392D01*
X109323D01*
X67336Y187394D02*
X63338D01*
X67336Y191393D01*
Y192393D01*
X66337Y193392D01*
X64337D01*
X63338Y192393D01*
X67336Y172394D02*
X63338D01*
X67336Y176393D01*
Y177393D01*
X66337Y178392D01*
X64337D01*
X63338Y177393D01*
X67336Y157394D02*
X63338D01*
X67336Y161393D01*
Y162393D01*
X66337Y163392D01*
X64337D01*
X63338Y162393D01*
X66337Y142394D02*
Y148392D01*
X63338Y145393D01*
X67336D01*
X63338Y132393D02*
X64337Y133392D01*
X66337D01*
X67336Y132393D01*
Y131393D01*
X66337Y130393D01*
X65337D01*
X66337D01*
X67336Y129393D01*
Y128394D01*
X66337Y127394D01*
X64337D01*
X63338Y128394D01*
X73334Y127394D02*
X69336D01*
X73334Y131393D01*
Y132393D01*
X72335Y133392D01*
X70335D01*
X69336Y132393D01*
X63338Y112394D02*
X65337D01*
X64337D01*
Y118392D01*
X63338Y117393D01*
X68336D02*
X69336Y118392D01*
X71335D01*
X72335Y117393D01*
Y116393D01*
X71335Y115393D01*
X70335D01*
X71335D01*
X72335Y114393D01*
Y113394D01*
X71335Y112394D01*
X69336D01*
X68336Y113394D01*
X78333Y118392D02*
X74334D01*
Y115393D01*
X76333Y116393D01*
X77333D01*
X78333Y115393D01*
Y113394D01*
X77333Y112394D01*
X75334D01*
X74334Y113394D01*
X191297Y74899D02*
X195296D01*
X191297Y76898D02*
X195296D01*
X203293Y72899D02*
Y78897D01*
X206292D01*
X207292Y77898D01*
Y75898D01*
X206292Y74899D01*
X203293D01*
X205292D02*
X207292Y72899D01*
X210291D02*
X212290D01*
X213290Y73899D01*
Y75898D01*
X212290Y76898D01*
X210291D01*
X209291Y75898D01*
Y73899D01*
X210291Y72899D01*
X215289Y76898D02*
Y73899D01*
X216289Y72899D01*
X219288D01*
Y76898D01*
X222287Y77898D02*
Y76898D01*
X221287D01*
X223287D01*
X222287D01*
Y73899D01*
X223287Y72899D01*
X229285D02*
X227285D01*
X226286Y73899D01*
Y75898D01*
X227285Y76898D01*
X229285D01*
X230284Y75898D01*
Y74899D01*
X226286D01*
X236282Y78897D02*
Y72899D01*
X233283D01*
X232284Y73899D01*
Y75898D01*
X233283Y76898D01*
X236282D01*
X244280Y72899D02*
Y78897D01*
X247279D01*
X248278Y77898D01*
Y75898D01*
X247279Y74899D01*
X244280D01*
X251278Y76898D02*
X253277D01*
X254277Y75898D01*
Y72899D01*
X251278D01*
X250278Y73899D01*
X251278Y74899D01*
X254277D01*
X257276Y77898D02*
Y76898D01*
X256276D01*
X258275D01*
X257276D01*
Y73899D01*
X258275Y72899D01*
X261274Y78897D02*
Y72899D01*
Y75898D01*
X262274Y76898D01*
X264273D01*
X265273Y75898D01*
Y72899D01*
X273270Y78897D02*
Y72899D01*
X277269D01*
X282267D02*
X280268D01*
X279269Y73899D01*
Y75898D01*
X280268Y76898D01*
X282267D01*
X283267Y75898D01*
Y74899D01*
X279269D01*
X285267Y72899D02*
Y76898D01*
X288266D01*
X289265Y75898D01*
Y72899D01*
X293264Y70900D02*
X294264D01*
X295263Y71900D01*
Y76898D01*
X292264D01*
X291265Y75898D01*
Y73899D01*
X292264Y72899D01*
X295263D01*
X298262Y77898D02*
Y76898D01*
X297263D01*
X299262D01*
X298262D01*
Y73899D01*
X299262Y72899D01*
X302261Y78897D02*
Y72899D01*
Y75898D01*
X303261Y76898D01*
X305260D01*
X306260Y75898D01*
Y72899D01*
X314257Y75898D02*
X318256D01*
X316256Y77898D02*
Y73899D01*
X326253Y78897D02*
X330252D01*
X328253D01*
Y72899D01*
X333251D02*
X335250D01*
X336250Y73899D01*
Y75898D01*
X335250Y76898D01*
X333251D01*
X332251Y75898D01*
Y73899D01*
X333251Y72899D01*
X339249D02*
X341248D01*
X342248Y73899D01*
Y75898D01*
X341248Y76898D01*
X339249D01*
X338249Y75898D01*
Y73899D01*
X339249Y72899D01*
X344248D02*
X346247D01*
X345247D01*
Y78897D01*
X344248D01*
X359243Y77898D02*
X358243Y78897D01*
X356244D01*
X355244Y77898D01*
Y76898D01*
X356244Y75898D01*
X358243D01*
X359243Y74899D01*
Y73899D01*
X358243Y72899D01*
X356244D01*
X355244Y73899D01*
X361242Y72899D02*
X363241D01*
X362242D01*
Y76898D01*
X361242D01*
X366240D02*
X370239D01*
X366240Y72899D01*
X370239D01*
X375237D02*
X373238D01*
X372238Y73899D01*
Y75898D01*
X373238Y76898D01*
X375237D01*
X376237Y75898D01*
Y74899D01*
X372238D01*
X384234D02*
X388233D01*
X384234Y76898D02*
X388233D01*
X400229Y77898D02*
X399230Y78897D01*
X397230D01*
X396231Y77898D01*
Y76898D01*
X397230Y75898D01*
X399230D01*
X400229Y74899D01*
Y73899D01*
X399230Y72899D01*
X397230D01*
X396231Y73899D01*
X402229Y72899D02*
X404228D01*
X403228D01*
Y78897D01*
X402229D01*
X408227Y72899D02*
X410226D01*
X411226Y73899D01*
Y75898D01*
X410226Y76898D01*
X408227D01*
X407227Y75898D01*
Y73899D01*
X408227Y72899D01*
X414225Y77898D02*
Y76898D01*
X413225D01*
X415225D01*
X414225D01*
Y73899D01*
X415225Y72899D01*
X424222D02*
X426221D01*
X425221D01*
Y78897D01*
X424222D01*
X432219Y72899D02*
X430220D01*
X429220Y73899D01*
Y75898D01*
X430220Y76898D01*
X432219D01*
X433219Y75898D01*
Y74899D01*
X429220D01*
X435218Y72899D02*
Y76898D01*
X438217D01*
X439217Y75898D01*
Y72899D01*
X443215Y70900D02*
X444215D01*
X445215Y71900D01*
Y76898D01*
X442216D01*
X441216Y75898D01*
Y73899D01*
X442216Y72899D01*
X445215D01*
X448214Y77898D02*
Y76898D01*
X447214D01*
X449214D01*
X448214D01*
Y73899D01*
X449214Y72899D01*
X452212Y78897D02*
Y72899D01*
Y75898D01*
X453212Y76898D01*
X455212D01*
X456211Y75898D01*
Y72899D01*
X465208Y76898D02*
X467208D01*
X468207Y75898D01*
Y72899D01*
X465208D01*
X464209Y73899D01*
X465208Y74899D01*
X468207D01*
X470207Y72899D02*
X473206D01*
X474205Y73899D01*
X473206Y74899D01*
X471206D01*
X470207Y75898D01*
X471206Y76898D01*
X474205D01*
X486201Y78897D02*
Y72899D01*
X483203D01*
X482203Y73899D01*
Y75898D01*
X483203Y76898D01*
X486201D01*
X491200Y72899D02*
X489201D01*
X488201Y73899D01*
Y75898D01*
X489201Y76898D01*
X491200D01*
X492200Y75898D01*
Y74899D01*
X488201D01*
X495199Y72899D02*
Y77898D01*
Y75898D01*
X494199D01*
X496198D01*
X495199D01*
Y77898D01*
X496198Y78897D01*
X499197Y72899D02*
X501197D01*
X500197D01*
Y76898D01*
X499197D01*
X504196Y72899D02*
Y76898D01*
X507195D01*
X508194Y75898D01*
Y72899D01*
X513193D02*
X511194D01*
X510194Y73899D01*
Y75898D01*
X511194Y76898D01*
X513193D01*
X514192Y75898D01*
Y74899D01*
X510194D01*
X520190Y78897D02*
Y72899D01*
X517192D01*
X516192Y73899D01*
Y75898D01*
X517192Y76898D01*
X520190D01*
X528188Y72899D02*
X530187D01*
X529188D01*
Y76898D01*
X528188D01*
X533186Y72899D02*
Y76898D01*
X536185D01*
X537185Y75898D01*
Y72899D01*
X546182Y77898D02*
Y76898D01*
X545182D01*
X547182D01*
X546182D01*
Y73899D01*
X547182Y72899D01*
X550181Y78897D02*
Y72899D01*
Y75898D01*
X551181Y76898D01*
X553180D01*
X554179Y75898D01*
Y72899D01*
X559178D02*
X557179D01*
X556179Y73899D01*
Y75898D01*
X557179Y76898D01*
X559178D01*
X560178Y75898D01*
Y74899D01*
X556179D01*
X568175Y72899D02*
Y78897D01*
X571174D01*
X572174Y77898D01*
Y75898D01*
X571174Y74899D01*
X568175D01*
X578172Y77898D02*
X577172Y78897D01*
X575173D01*
X574173Y77898D01*
Y73899D01*
X575173Y72899D01*
X577172D01*
X578172Y73899D01*
X580171Y78897D02*
Y72899D01*
X583170D01*
X584170Y73899D01*
Y74899D01*
X583170Y75898D01*
X580171D01*
X583170D01*
X584170Y76898D01*
Y77898D01*
X583170Y78897D01*
X580171D01*
X592167Y72899D02*
X594167D01*
X593167D01*
Y78897D01*
X592167D01*
X598165Y76898D02*
X600165D01*
X601164Y75898D01*
Y72899D01*
X598165D01*
X597166Y73899D01*
X598165Y74899D01*
X601164D01*
X603164Y76898D02*
Y73899D01*
X604163Y72899D01*
X607162D01*
Y71900D01*
X606163Y70900D01*
X605163D01*
X607162Y72899D02*
Y76898D01*
X610161Y72899D02*
X612161D01*
X613161Y73899D01*
Y75898D01*
X612161Y76898D01*
X610161D01*
X609162Y75898D01*
Y73899D01*
X610161Y72899D01*
X615160Y76898D02*
Y73899D01*
X616159Y72899D01*
X619159D01*
Y76898D01*
X622157Y77898D02*
Y76898D01*
X621158D01*
X623157D01*
X622157D01*
Y73899D01*
X623157Y72899D01*
X226286Y84896D02*
X230284D01*
X226286Y86896D02*
X230284D01*
X242281Y87895D02*
X241281Y88895D01*
X239281D01*
X238282Y87895D01*
Y83896D01*
X239281Y82897D01*
X241281D01*
X242281Y83896D01*
X245280Y86896D02*
X247279D01*
X248278Y85896D01*
Y82897D01*
X245280D01*
X244280Y83896D01*
X245280Y84896D01*
X248278D01*
X250278Y82897D02*
X252277D01*
X251278D01*
Y88895D01*
X250278D01*
X259275Y86896D02*
X256276D01*
X255276Y85896D01*
Y83896D01*
X256276Y82897D01*
X259275D01*
X261274Y86896D02*
Y83896D01*
X262274Y82897D01*
X265273D01*
Y86896D01*
X267272Y82897D02*
X269272D01*
X268272D01*
Y88895D01*
X267272D01*
X273270Y86896D02*
X275270D01*
X276270Y85896D01*
Y82897D01*
X273270D01*
X272271Y83896D01*
X273270Y84896D01*
X276270D01*
X279269Y87895D02*
Y86896D01*
X278269D01*
X280268D01*
X279269D01*
Y83896D01*
X280268Y82897D01*
X286266D02*
X284267D01*
X283267Y83896D01*
Y85896D01*
X284267Y86896D01*
X286266D01*
X287266Y85896D01*
Y84896D01*
X283267D01*
X293264Y88895D02*
Y82897D01*
X290265D01*
X289265Y83896D01*
Y85896D01*
X290265Y86896D01*
X293264D01*
X302261Y82897D02*
Y87895D01*
Y85896D01*
X301261D01*
X303261D01*
X302261D01*
Y87895D01*
X303261Y88895D01*
X306260Y86896D02*
Y82897D01*
Y84896D01*
X307259Y85896D01*
X308259Y86896D01*
X309259D01*
X313258Y82897D02*
X315257D01*
X316256Y83896D01*
Y85896D01*
X315257Y86896D01*
X313258D01*
X312258Y85896D01*
Y83896D01*
X313258Y82897D01*
X318256D02*
Y86896D01*
X319255D01*
X320255Y85896D01*
Y82897D01*
Y85896D01*
X321255Y86896D01*
X322255Y85896D01*
Y82897D01*
X331252Y87895D02*
Y86896D01*
X330252D01*
X332251D01*
X331252D01*
Y83896D01*
X332251Y82897D01*
X336250D02*
X338249D01*
X339249Y83896D01*
Y85896D01*
X338249Y86896D01*
X336250D01*
X335250Y85896D01*
Y83896D01*
X336250Y82897D01*
X342248D02*
X344248D01*
X345247Y83896D01*
Y85896D01*
X344248Y86896D01*
X342248D01*
X341248Y85896D01*
Y83896D01*
X342248Y82897D01*
X347247D02*
X349246D01*
X348246D01*
Y88895D01*
X347247D01*
X358243Y82897D02*
X361242D01*
X362242Y83896D01*
X361242Y84896D01*
X359243D01*
X358243Y85896D01*
X359243Y86896D01*
X362242D01*
X365241Y87895D02*
Y86896D01*
X364241D01*
X366240D01*
X365241D01*
Y83896D01*
X366240Y82897D01*
X370239Y86896D02*
X372238D01*
X373238Y85896D01*
Y82897D01*
X370239D01*
X369239Y83896D01*
X370239Y84896D01*
X373238D01*
X375237Y86896D02*
Y82897D01*
Y84896D01*
X376237Y85896D01*
X377237Y86896D01*
X378237D01*
X382235Y87895D02*
Y86896D01*
X381236D01*
X383235D01*
X382235D01*
Y83896D01*
X383235Y82897D01*
X396231Y86896D02*
X393232D01*
X392232Y85896D01*
Y83896D01*
X393232Y82897D01*
X396231D01*
X401229D02*
X399230D01*
X398230Y83896D01*
Y85896D01*
X399230Y86896D01*
X401229D01*
X402229Y85896D01*
Y84896D01*
X398230D01*
X404228Y82897D02*
Y86896D01*
X407227D01*
X408227Y85896D01*
Y82897D01*
X411226Y87895D02*
Y86896D01*
X410226D01*
X412225D01*
X411226D01*
Y83896D01*
X412225Y82897D01*
X415225Y86896D02*
Y82897D01*
Y84896D01*
X416224Y85896D01*
X417224Y86896D01*
X418223D01*
X424222Y82897D02*
X422222D01*
X421222Y83896D01*
Y85896D01*
X422222Y86896D01*
X424222D01*
X425221Y85896D01*
Y84896D01*
X421222D01*
X433219Y80897D02*
Y86896D01*
X436218D01*
X437217Y85896D01*
Y83896D01*
X436218Y82897D01*
X433219D01*
X440216D02*
X442216D01*
X443215Y83896D01*
Y85896D01*
X442216Y86896D01*
X440216D01*
X439217Y85896D01*
Y83896D01*
X440216Y82897D01*
X445215D02*
X448214D01*
X449214Y83896D01*
X448214Y84896D01*
X446214D01*
X445215Y85896D01*
X446214Y86896D01*
X449214D01*
X451213Y82897D02*
X453212D01*
X452212D01*
Y86896D01*
X451213D01*
X457211Y87895D02*
Y86896D01*
X456211D01*
X458211D01*
X457211D01*
Y83896D01*
X458211Y82897D01*
X461210D02*
X463209D01*
X462209D01*
Y86896D01*
X461210D01*
X467208Y82897D02*
X469207D01*
X470207Y83896D01*
Y85896D01*
X469207Y86896D01*
X467208D01*
X466208Y85896D01*
Y83896D01*
X467208Y82897D01*
X472206D02*
Y86896D01*
X475205D01*
X476205Y85896D01*
Y82897D01*
X485202Y87895D02*
Y86896D01*
X484202D01*
X486201D01*
X485202D01*
Y83896D01*
X486201Y82897D01*
X490200D02*
X492200D01*
X493199Y83896D01*
Y85896D01*
X492200Y86896D01*
X490200D01*
X489201Y85896D01*
Y83896D01*
X490200Y82897D01*
X502196Y87895D02*
Y86896D01*
X501197D01*
X503196D01*
X502196D01*
Y83896D01*
X503196Y82897D01*
X507195D02*
X509194D01*
X510194Y83896D01*
Y85896D01*
X509194Y86896D01*
X507195D01*
X506195Y85896D01*
Y83896D01*
X507195Y82897D01*
X513193D02*
X515192D01*
X516192Y83896D01*
Y85896D01*
X515192Y86896D01*
X513193D01*
X512193Y85896D01*
Y83896D01*
X513193Y82897D01*
X518191D02*
X520190D01*
X519191D01*
Y88895D01*
X518191D01*
X532187Y82897D02*
X530187D01*
X529188Y83896D01*
Y85896D01*
X530187Y86896D01*
X532187D01*
X533186Y85896D01*
Y84896D01*
X529188D01*
X535186Y82897D02*
Y86896D01*
X538185D01*
X539184Y85896D01*
Y82897D01*
X545182Y88895D02*
Y82897D01*
X542183D01*
X541184Y83896D01*
Y85896D01*
X542183Y86896D01*
X545182D01*
X557179D02*
X554179D01*
X553180Y85896D01*
Y83896D01*
X554179Y82897D01*
X557179D01*
X562177D02*
X560178D01*
X559178Y83896D01*
Y85896D01*
X560178Y86896D01*
X562177D01*
X563177Y85896D01*
Y84896D01*
X559178D01*
X565176Y82897D02*
Y86896D01*
X568175D01*
X569175Y85896D01*
Y82897D01*
X572174Y87895D02*
Y86896D01*
X571174D01*
X573173D01*
X572174D01*
Y83896D01*
X573173Y82897D01*
X576172Y86896D02*
Y82897D01*
Y84896D01*
X577172Y85896D01*
X578172Y86896D01*
X579171D01*
X585170Y82897D02*
X583170D01*
X582170Y83896D01*
Y85896D01*
X583170Y86896D01*
X585170D01*
X586169Y85896D01*
Y84896D01*
X582170D01*
X594167Y80897D02*
Y86896D01*
X597166D01*
X598165Y85896D01*
Y83896D01*
X597166Y82897D01*
X594167D01*
X601164D02*
X603164D01*
X604163Y83896D01*
Y85896D01*
X603164Y86896D01*
X601164D01*
X600165Y85896D01*
Y83896D01*
X601164Y82897D01*
X606163D02*
X609162D01*
X610161Y83896D01*
X609162Y84896D01*
X607162D01*
X606163Y85896D01*
X607162Y86896D01*
X610161D01*
X612161Y82897D02*
X614160D01*
X613161D01*
Y86896D01*
X612161D01*
X618159Y87895D02*
Y86896D01*
X617159D01*
X619159D01*
X618159D01*
Y83896D01*
X619159Y82897D01*
X622157D02*
X624157D01*
X623157D01*
Y86896D01*
X622157D01*
X628156Y82897D02*
X630155D01*
X631155Y83896D01*
Y85896D01*
X630155Y86896D01*
X628156D01*
X627156Y85896D01*
Y83896D01*
X628156Y82897D01*
X633154D02*
Y86896D01*
X636153D01*
X637153Y85896D01*
Y82897D01*
X639152D02*
Y83896D01*
X640152D01*
Y82897D01*
X639152D01*
D57*
X3750Y197894D02*
X1324579D01*
X3750Y107894D02*
X1324579D01*
X3750Y92894D02*
X1324579D01*
Y212894D01*
X3750D02*
X1324579D01*
X3750Y92894D02*
Y212894D01*
X1184319Y92894D02*
Y212894D01*
X1075351Y92894D02*
Y212894D01*
X941990Y92894D02*
Y212894D01*
X808629Y92894D02*
Y212894D01*
X723253Y92894D02*
Y212894D01*
X604288Y92894D02*
Y212894D01*
X529708Y92894D02*
Y212894D01*
X470723Y92894D02*
Y212894D01*
X351758Y92894D02*
Y212894D01*
X278378Y92894D02*
Y212894D01*
X227790Y92894D02*
Y212894D01*
X117822Y92894D02*
Y212894D01*
X58838Y92894D02*
Y212894D01*
D73*
X11579Y-17028D02*
G03*
X11579Y-17028I-1000J0D01*
G01*
Y17028D02*
G03*
X11579Y17028I-1000J0D01*
G01*
X46900Y-1900D02*
X47400D01*
X46900D02*
Y-900D01*
X47400D01*
Y-400D01*
X48400D01*
Y-900D02*
Y-400D01*
Y-900D02*
X48900D01*
Y-1900D02*
Y-900D01*
X48400Y-1900D02*
X48900D01*
X48400Y-2400D02*
Y-1900D01*
X47400Y-2400D02*
X48400D01*
X47400D02*
Y-1900D01*
X50000Y-2000D02*
X50500D01*
X50000D02*
Y-1000D01*
X50500D01*
Y-500D01*
X51500D01*
Y-1000D02*
Y-500D01*
Y-1000D02*
X52000D01*
Y-2000D02*
Y-1000D01*
X51500Y-2000D02*
X52000D01*
X51500Y-2500D02*
Y-2000D01*
X50500Y-2500D02*
X51500D01*
X50500D02*
Y-2000D01*
X24500Y1600D02*
X25000D01*
X24500D02*
Y2600D01*
X25000D01*
Y3100D01*
X26000D01*
Y2600D02*
Y3100D01*
Y2600D02*
X26500D01*
Y1600D02*
Y2600D01*
X26000Y1600D02*
X26500D01*
X26000Y1100D02*
Y1600D01*
X25000Y1100D02*
X26000D01*
X25000D02*
Y1600D01*
X23653Y-3453D02*
X24153D01*
X23653D02*
Y-2453D01*
X24153D01*
Y-1953D01*
X25153D01*
Y-2453D02*
Y-1953D01*
Y-2453D02*
X25653D01*
Y-3453D02*
Y-2453D01*
X25153Y-3453D02*
X25653D01*
X25153Y-3953D02*
Y-3453D01*
X24153Y-3953D02*
X25153D01*
X24153D02*
Y-3453D01*
X46900Y8600D02*
X47400D01*
X46900D02*
Y9600D01*
X47400D01*
Y10100D01*
X48400D01*
Y9600D02*
Y10100D01*
Y9600D02*
X48900D01*
Y8600D02*
Y9600D01*
X48400Y8600D02*
X48900D01*
X48400Y8100D02*
Y8600D01*
X47400Y8100D02*
X48400D01*
X47400D02*
Y8600D01*
X84900Y14600D02*
X85400D01*
X84900D02*
Y15600D01*
X85400D01*
Y16100D01*
X86400D01*
Y15600D02*
Y16100D01*
Y15600D02*
X86900D01*
Y14600D02*
Y15600D01*
X86400Y14600D02*
X86900D01*
X86400Y14100D02*
Y14600D01*
X85400Y14100D02*
X86400D01*
X85400D02*
Y14600D01*
X114500Y-8500D02*
X115000D01*
X114500D02*
Y-7500D01*
X115000D01*
Y-7000D01*
X116000D01*
Y-7500D02*
Y-7000D01*
Y-7500D02*
X116500D01*
Y-8500D02*
Y-7500D01*
X116000Y-8500D02*
X116500D01*
X116000Y-9000D02*
Y-8500D01*
X115000Y-9000D02*
X116000D01*
X115000D02*
Y-8500D01*
X132700Y26900D02*
X133200D01*
X132700D02*
Y27900D01*
X133200D01*
Y28400D01*
X134200D01*
Y27900D02*
Y28400D01*
Y27900D02*
X134700D01*
Y26900D02*
Y27900D01*
X134200Y26900D02*
X134700D01*
X134200Y26400D02*
Y26900D01*
X133200Y26400D02*
X134200D01*
X133200D02*
Y26900D01*
X145700Y15000D02*
X146200D01*
X145700D02*
Y16000D01*
X146200D01*
Y16500D01*
X147200D01*
Y16000D02*
Y16500D01*
Y16000D02*
X147700D01*
Y15000D02*
Y16000D01*
X147200Y15000D02*
X147700D01*
X147200Y14500D02*
Y15000D01*
X146200Y14500D02*
X147200D01*
X146200D02*
Y15000D01*
X144887Y19512D02*
X145387D01*
X144887D02*
Y20513D01*
X145387D01*
Y21012D01*
X146388D01*
Y20513D02*
Y21012D01*
Y20513D02*
X146888D01*
Y19512D02*
Y20513D01*
X146388Y19512D02*
X146888D01*
X146388Y19013D02*
Y19512D01*
X145387Y19013D02*
X146388D01*
X145387D02*
Y19512D01*
X155399Y24500D02*
X155899D01*
X155399D02*
Y25500D01*
X155899D01*
Y26000D01*
X156899D01*
Y25500D02*
Y26000D01*
Y25500D02*
X157399D01*
Y24500D02*
Y25500D01*
X156899Y24500D02*
X157399D01*
X156899Y24000D02*
Y24500D01*
X155899Y24000D02*
X156899D01*
X155899D02*
Y24500D01*
X152500Y22800D02*
X153000D01*
X152500D02*
Y23800D01*
X153000D01*
Y24300D01*
X154000D01*
Y23800D02*
Y24300D01*
Y23800D02*
X154500D01*
Y22800D02*
Y23800D01*
X154000Y22800D02*
X154500D01*
X154000Y22300D02*
Y22800D01*
X153000Y22300D02*
X154000D01*
X153000D02*
Y22800D01*
X65700Y21300D02*
X66200D01*
X65700D02*
Y22300D01*
X66200D01*
Y22800D01*
X67200D01*
Y22300D02*
Y22800D01*
Y22300D02*
X67700D01*
Y21300D02*
Y22300D01*
X67200Y21300D02*
X67700D01*
X67200Y20800D02*
Y21300D01*
X66200Y20800D02*
X67200D01*
X66200D02*
Y21300D01*
X91000Y-28700D02*
X91500D01*
X91000D02*
Y-27700D01*
X91500D01*
Y-27200D01*
X92500D01*
Y-27700D02*
Y-27200D01*
Y-27700D02*
X93000D01*
Y-28700D02*
Y-27700D01*
X92500Y-28700D02*
X93000D01*
X92500Y-29200D02*
Y-28700D01*
X91500Y-29200D02*
X92500D01*
X91500D02*
Y-28700D01*
X122700Y-21300D02*
X123200D01*
X122700D02*
Y-20300D01*
X123200D01*
Y-19800D01*
X124200D01*
Y-20300D02*
Y-19800D01*
Y-20300D02*
X124700D01*
Y-21300D02*
Y-20300D01*
X124200Y-21300D02*
X124700D01*
X124200Y-21800D02*
Y-21300D01*
X123200Y-21800D02*
X124200D01*
X123200D02*
Y-21300D01*
X98700Y-27100D02*
X99200D01*
X98700D02*
Y-26100D01*
X99200D01*
Y-25600D01*
X100200D01*
Y-26100D02*
Y-25600D01*
Y-26100D02*
X100700D01*
Y-27100D02*
Y-26100D01*
X100200Y-27100D02*
X100700D01*
X100200Y-27600D02*
Y-27100D01*
X99200Y-27600D02*
X100200D01*
X99200D02*
Y-27100D01*
X117300Y-17800D02*
X117800D01*
X117300D02*
Y-16800D01*
X117800D01*
Y-16300D01*
X118800D01*
Y-16800D02*
Y-16300D01*
Y-16800D02*
X119300D01*
Y-17800D02*
Y-16800D01*
X118800Y-17800D02*
X119300D01*
X118800Y-18300D02*
Y-17800D01*
X117800Y-18300D02*
X118800D01*
X117800D02*
Y-17800D01*
X112700Y14500D02*
X113200D01*
X112700D02*
Y15500D01*
X113200D01*
Y16000D01*
X114200D01*
Y15500D02*
Y16000D01*
Y15500D02*
X114700D01*
Y14500D02*
Y15500D01*
X114200Y14500D02*
X114700D01*
X114200Y14000D02*
Y14500D01*
X113200Y14000D02*
X114200D01*
X113200D02*
Y14500D01*
X117000Y400D02*
X117500D01*
X117000D02*
Y1400D01*
X117500D01*
Y1900D01*
X118500D01*
Y1400D02*
Y1900D01*
Y1400D02*
X119000D01*
Y400D02*
Y1400D01*
X118500Y400D02*
X119000D01*
X118500Y-100D02*
Y400D01*
X117500Y-100D02*
X118500D01*
X117500D02*
Y400D01*
X163500Y-32800D02*
X164000D01*
X163500D02*
Y-31800D01*
X164000D01*
Y-31300D01*
X165000D01*
Y-31800D02*
Y-31300D01*
Y-31800D02*
X165500D01*
Y-32800D02*
Y-31800D01*
X165000Y-32800D02*
X165500D01*
X165000Y-33300D02*
Y-32800D01*
X164000Y-33300D02*
X165000D01*
X164000D02*
Y-32800D01*
X85700Y-31800D02*
X86200D01*
X85700D02*
Y-30800D01*
X86200D01*
Y-30300D01*
X87200D01*
Y-30800D02*
Y-30300D01*
Y-30800D02*
X87700D01*
Y-31800D02*
Y-30800D01*
X87200Y-31800D02*
X87700D01*
X87200Y-32300D02*
Y-31800D01*
X86200Y-32300D02*
X87200D01*
X86200D02*
Y-31800D01*
X82500Y-14500D02*
X83000D01*
X82500D02*
Y-13500D01*
X83000D01*
Y-13000D01*
X84000D01*
Y-13500D02*
Y-13000D01*
Y-13500D02*
X84500D01*
Y-14500D02*
Y-13500D01*
X84000Y-14500D02*
X84500D01*
X84000Y-15000D02*
Y-14500D01*
X83000Y-15000D02*
X84000D01*
X83000D02*
Y-14500D01*
X87000D02*
X87500D01*
X87000D02*
Y-13500D01*
X87500D01*
Y-13000D01*
X88500D01*
Y-13500D02*
Y-13000D01*
Y-13500D02*
X89000D01*
Y-14500D02*
Y-13500D01*
X88500Y-14500D02*
X89000D01*
X88500Y-15000D02*
Y-14500D01*
X87500Y-15000D02*
X88500D01*
X87500D02*
Y-14500D01*
X82500Y-17500D02*
X83000D01*
X82500D02*
Y-16500D01*
X83000D01*
Y-16000D01*
X84000D01*
Y-16500D02*
Y-16000D01*
Y-16500D02*
X84500D01*
Y-17500D02*
Y-16500D01*
X84000Y-17500D02*
X84500D01*
X84000Y-18000D02*
Y-17500D01*
X83000Y-18000D02*
X84000D01*
X83000D02*
Y-17500D01*
X82000Y-6000D02*
X82500D01*
X82000D02*
Y-5000D01*
X82500D01*
Y-4500D01*
X83500D01*
Y-5000D02*
Y-4500D01*
Y-5000D02*
X84000D01*
Y-6000D02*
Y-5000D01*
X83500Y-6000D02*
X84000D01*
X83500Y-6500D02*
Y-6000D01*
X82500Y-6500D02*
X83500D01*
X82500D02*
Y-6000D01*
X86500D02*
X87000D01*
X86500D02*
Y-5000D01*
X87000D01*
Y-4500D01*
X88000D01*
Y-5000D02*
Y-4500D01*
Y-5000D02*
X88500D01*
Y-6000D02*
Y-5000D01*
X88000Y-6000D02*
X88500D01*
X88000Y-6500D02*
Y-6000D01*
X87000Y-6500D02*
X88000D01*
X87000D02*
Y-6000D01*
X83500Y-500D02*
X84000D01*
X83500D02*
Y500D01*
X84000D01*
Y1000D01*
X85000D01*
Y500D02*
Y1000D01*
Y500D02*
X85500D01*
Y-500D02*
Y500D01*
X85000Y-500D02*
X85500D01*
X85000Y-1000D02*
Y-500D01*
X84000Y-1000D02*
X85000D01*
X84000D02*
Y-500D01*
X88000D02*
X88500D01*
X88000D02*
Y500D01*
X88500D01*
Y1000D01*
X89500D01*
Y500D02*
Y1000D01*
Y500D02*
X90000D01*
Y-500D02*
Y500D01*
X89500Y-500D02*
X90000D01*
X89500Y-1000D02*
Y-500D01*
X88500Y-1000D02*
X89500D01*
X88500D02*
Y-500D01*
X73500Y-1000D02*
X74000D01*
X73500D02*
Y0D01*
X74000D01*
Y500D01*
X75000D01*
Y0D02*
Y500D01*
Y0D02*
X75500D01*
Y-1000D02*
Y0D01*
X75000Y-1000D02*
X75500D01*
X75000Y-1500D02*
Y-1000D01*
X74000Y-1500D02*
X75000D01*
X74000D02*
Y-1000D01*
X70000Y11000D02*
X70500D01*
X70000D02*
Y12000D01*
X70500D01*
Y12500D01*
X71500D01*
Y12000D02*
Y12500D01*
Y12000D02*
X72000D01*
Y11000D02*
Y12000D01*
X71500Y11000D02*
X72000D01*
X71500Y10500D02*
Y11000D01*
X70500Y10500D02*
X71500D01*
X70500D02*
Y11000D01*
Y7500D02*
X71000D01*
X70500D02*
Y8500D01*
X71000D01*
Y9000D01*
X72000D01*
Y8500D02*
Y9000D01*
Y8500D02*
X72500D01*
Y7500D02*
Y8500D01*
X72000Y7500D02*
X72500D01*
X72000Y7000D02*
Y7500D01*
X71000Y7000D02*
X72000D01*
X71000D02*
Y7500D01*
X155500Y-3500D02*
X156000D01*
X155500D02*
Y-2500D01*
X156000D01*
Y-2000D01*
X157000D01*
Y-2500D02*
Y-2000D01*
Y-2500D02*
X157500D01*
Y-3500D02*
Y-2500D01*
X157000Y-3500D02*
X157500D01*
X157000Y-4000D02*
Y-3500D01*
X156000Y-4000D02*
X157000D01*
X156000D02*
Y-3500D01*
X155500Y-8000D02*
X156000D01*
X155500D02*
Y-7000D01*
X156000D01*
Y-6500D01*
X157000D01*
Y-7000D02*
Y-6500D01*
Y-7000D02*
X157500D01*
Y-8000D02*
Y-7000D01*
X157000Y-8000D02*
X157500D01*
X157000Y-8500D02*
Y-8000D01*
X156000Y-8500D02*
X157000D01*
X156000D02*
Y-8000D01*
X155500Y-12500D02*
X156000D01*
X155500D02*
Y-11500D01*
X156000D01*
Y-11000D01*
X157000D01*
Y-11500D02*
Y-11000D01*
Y-11500D02*
X157500D01*
Y-12500D02*
Y-11500D01*
X157000Y-12500D02*
X157500D01*
X157000Y-13000D02*
Y-12500D01*
X156000Y-13000D02*
X157000D01*
X156000D02*
Y-12500D01*
X160500Y-3500D02*
X161000D01*
X160500D02*
Y-2500D01*
X161000D01*
Y-2000D01*
X162000D01*
Y-2500D02*
Y-2000D01*
Y-2500D02*
X162500D01*
Y-3500D02*
Y-2500D01*
X162000Y-3500D02*
X162500D01*
X162000Y-4000D02*
Y-3500D01*
X161000Y-4000D02*
X162000D01*
X161000D02*
Y-3500D01*
X160500Y-8000D02*
X161000D01*
X160500D02*
Y-7000D01*
X161000D01*
Y-6500D01*
X162000D01*
Y-7000D02*
Y-6500D01*
Y-7000D02*
X162500D01*
Y-8000D02*
Y-7000D01*
X162000Y-8000D02*
X162500D01*
X162000Y-8500D02*
Y-8000D01*
X161000Y-8500D02*
X162000D01*
X161000D02*
Y-8000D01*
X160500Y-12500D02*
X161000D01*
X160500D02*
Y-11500D01*
X161000D01*
Y-11000D01*
X162000D01*
Y-11500D02*
Y-11000D01*
Y-11500D02*
X162500D01*
Y-12500D02*
Y-11500D01*
X162000Y-12500D02*
X162500D01*
X162000Y-13000D02*
Y-12500D01*
X161000Y-13000D02*
X162000D01*
X161000D02*
Y-12500D01*
X165500Y-3500D02*
X166000D01*
X165500D02*
Y-2500D01*
X166000D01*
Y-2000D01*
X167000D01*
Y-2500D02*
Y-2000D01*
Y-2500D02*
X167500D01*
Y-3500D02*
Y-2500D01*
X167000Y-3500D02*
X167500D01*
X167000Y-4000D02*
Y-3500D01*
X166000Y-4000D02*
X167000D01*
X166000D02*
Y-3500D01*
X165500Y-8000D02*
X166000D01*
X165500D02*
Y-7000D01*
X166000D01*
Y-6500D01*
X167000D01*
Y-7000D02*
Y-6500D01*
Y-7000D02*
X167500D01*
Y-8000D02*
Y-7000D01*
X167000Y-8000D02*
X167500D01*
X167000Y-8500D02*
Y-8000D01*
X166000Y-8500D02*
X167000D01*
X166000D02*
Y-8000D01*
X165500Y-12500D02*
X166000D01*
X165500D02*
Y-11500D01*
X166000D01*
Y-11000D01*
X167000D01*
Y-11500D02*
Y-11000D01*
Y-11500D02*
X167500D01*
Y-12500D02*
Y-11500D01*
X167000Y-12500D02*
X167500D01*
X167000Y-13000D02*
Y-12500D01*
X166000Y-13000D02*
X167000D01*
X166000D02*
Y-12500D01*
X48000Y-13500D02*
X48500D01*
X48000D02*
Y-12500D01*
X48500D01*
Y-12000D01*
X49500D01*
Y-12500D02*
Y-12000D01*
Y-12500D02*
X50000D01*
Y-13500D02*
Y-12500D01*
X49500Y-13500D02*
X50000D01*
X49500Y-14000D02*
Y-13500D01*
X48500Y-14000D02*
X49500D01*
X48500D02*
Y-13500D01*
X52000Y-17500D02*
X52500D01*
X52000D02*
Y-16500D01*
X52500D01*
Y-16000D01*
X53500D01*
Y-16500D02*
Y-16000D01*
Y-16500D02*
X54000D01*
Y-17500D02*
Y-16500D01*
X53500Y-17500D02*
X54000D01*
X53500Y-18000D02*
Y-17500D01*
X52500Y-18000D02*
X53500D01*
X52500D02*
Y-17500D01*
X52000Y-13500D02*
X52500D01*
X52000D02*
Y-12500D01*
X52500D01*
Y-12000D01*
X53500D01*
Y-12500D02*
Y-12000D01*
Y-12500D02*
X54000D01*
Y-13500D02*
Y-12500D01*
X53500Y-13500D02*
X54000D01*
X53500Y-14000D02*
Y-13500D01*
X52500Y-14000D02*
X53500D01*
X52500D02*
Y-13500D01*
X48000Y-17500D02*
X48500D01*
X48000D02*
Y-16500D01*
X48500D01*
Y-16000D01*
X49500D01*
Y-16500D02*
Y-16000D01*
Y-16500D02*
X50000D01*
Y-17500D02*
Y-16500D01*
X49500Y-17500D02*
X50000D01*
X49500Y-18000D02*
Y-17500D01*
X48500Y-18000D02*
X49500D01*
X48500D02*
Y-17500D01*
X60000Y500D02*
X60500D01*
X60000D02*
Y1500D01*
X60500D01*
Y2000D01*
X61500D01*
Y1500D02*
Y2000D01*
Y1500D02*
X62000D01*
Y500D02*
Y1500D01*
X61500Y500D02*
X62000D01*
X61500Y0D02*
Y500D01*
X60500Y0D02*
X61500D01*
X60500D02*
Y500D01*
X65000Y-1000D02*
X65500D01*
X65000D02*
Y0D01*
X65500D01*
Y500D01*
X66500D01*
Y0D02*
Y500D01*
Y0D02*
X67000D01*
Y-1000D02*
Y0D01*
X66500Y-1000D02*
X67000D01*
X66500Y-1500D02*
Y-1000D01*
X65500Y-1500D02*
X66500D01*
X65500D02*
Y-1000D01*
X65000Y-5500D02*
X65500D01*
X65000D02*
Y-4500D01*
X65500D01*
Y-4000D01*
X66500D01*
Y-4500D02*
Y-4000D01*
Y-4500D02*
X67000D01*
Y-5500D02*
Y-4500D01*
X66500Y-5500D02*
X67000D01*
X66500Y-6000D02*
Y-5500D01*
X65500Y-6000D02*
X66500D01*
X65500D02*
Y-5500D01*
X55500Y10500D02*
X56000D01*
X55500D02*
Y11500D01*
X56000D01*
Y12000D01*
X57000D01*
Y11500D02*
Y12000D01*
Y11500D02*
X57500D01*
Y10500D02*
Y11500D01*
X57000Y10500D02*
X57500D01*
X57000Y10000D02*
Y10500D01*
X56000Y10000D02*
X57000D01*
X56000D02*
Y10500D01*
X37000Y17000D02*
X37500D01*
X37000D02*
Y18000D01*
X37500D01*
Y18500D01*
X38500D01*
Y18000D02*
Y18500D01*
Y18000D02*
X39000D01*
Y17000D02*
Y18000D01*
X38500Y17000D02*
X39000D01*
X38500Y16500D02*
Y17000D01*
X37500Y16500D02*
X38500D01*
X37500D02*
Y17000D01*
X37000Y12000D02*
X37500D01*
X37000D02*
Y13000D01*
X37500D01*
Y13500D01*
X38500D01*
Y13000D02*
Y13500D01*
Y13000D02*
X39000D01*
Y12000D02*
Y13000D01*
X38500Y12000D02*
X39000D01*
X38500Y11500D02*
Y12000D01*
X37500Y11500D02*
X38500D01*
X37500D02*
Y12000D01*
X41900Y20300D02*
X42400D01*
X41900D02*
Y21300D01*
X42400D01*
Y21800D01*
X43400D01*
Y21300D02*
Y21800D01*
Y21300D02*
X43900D01*
Y20300D02*
Y21300D01*
X43400Y20300D02*
X43900D01*
X43400Y19800D02*
Y20300D01*
X42400Y19800D02*
X43400D01*
X42400D02*
Y20300D01*
X114500Y26500D02*
X115000D01*
X114500D02*
Y27500D01*
X115000D01*
Y28000D01*
X116000D01*
Y27500D02*
Y28000D01*
Y27500D02*
X116500D01*
Y26500D02*
Y27500D01*
X116000Y26500D02*
X116500D01*
X116000Y26000D02*
Y26500D01*
X115000Y26000D02*
X116000D01*
X115000D02*
Y26500D01*
X117000Y24000D02*
X117500D01*
X117000D02*
Y25000D01*
X117500D01*
Y25500D01*
X118500D01*
Y25000D02*
Y25500D01*
Y25000D02*
X119000D01*
Y24000D02*
Y25000D01*
X118500Y24000D02*
X119000D01*
X118500Y23500D02*
Y24000D01*
X117500Y23500D02*
X118500D01*
X117500D02*
Y24000D01*
X121000D02*
X121500D01*
X121000D02*
Y25000D01*
X121500D01*
Y25500D01*
X122500D01*
Y25000D02*
Y25500D01*
Y25000D02*
X123000D01*
Y24000D02*
Y25000D01*
X122500Y24000D02*
X123000D01*
X122500Y23500D02*
Y24000D01*
X121500Y23500D02*
X122500D01*
X121500D02*
Y24000D01*
X125000D02*
X125500D01*
X125000D02*
Y25000D01*
X125500D01*
Y25500D01*
X126500D01*
Y25000D02*
Y25500D01*
Y25000D02*
X127000D01*
Y24000D02*
Y25000D01*
X126500Y24000D02*
X127000D01*
X126500Y23500D02*
Y24000D01*
X125500Y23500D02*
X126500D01*
X125500D02*
Y24000D01*
X154000Y9000D02*
X154500D01*
X154000D02*
Y10000D01*
X154500D01*
Y10500D01*
X155500D01*
Y10000D02*
Y10500D01*
Y10000D02*
X156000D01*
Y9000D02*
Y10000D01*
X155500Y9000D02*
X156000D01*
X155500Y8500D02*
Y9000D01*
X154500Y8500D02*
X155500D01*
X154500D02*
Y9000D01*
X92500Y-40300D02*
X93000D01*
X92500D02*
Y-39300D01*
X93000D01*
Y-38800D01*
X94000D01*
Y-39300D02*
Y-38800D01*
Y-39300D02*
X94500D01*
Y-40300D02*
Y-39300D01*
X94000Y-40300D02*
X94500D01*
X94000Y-40800D02*
Y-40300D01*
X93000Y-40800D02*
X94000D01*
X93000D02*
Y-40300D01*
X101100Y-40800D02*
X101600D01*
X101100D02*
Y-39800D01*
X101600D01*
Y-39300D01*
X102600D01*
Y-39800D02*
Y-39300D01*
Y-39800D02*
X103100D01*
Y-40800D02*
Y-39800D01*
X102600Y-40800D02*
X103100D01*
X102600Y-41300D02*
Y-40800D01*
X101600Y-41300D02*
X102600D01*
X101600D02*
Y-40800D01*
X141400Y-23900D02*
X141900D01*
X141400D02*
Y-22900D01*
X141900D01*
Y-22400D01*
X142900D01*
Y-22900D02*
Y-22400D01*
Y-22900D02*
X143400D01*
Y-23900D02*
Y-22900D01*
X142900Y-23900D02*
X143400D01*
X142900Y-24400D02*
Y-23900D01*
X141900Y-24400D02*
X142900D01*
X141900D02*
Y-23900D01*
X135400Y-25000D02*
X135900D01*
X135400D02*
Y-24000D01*
X135900D01*
Y-23500D01*
X136900D01*
Y-24000D02*
Y-23500D01*
Y-24000D02*
X137400D01*
Y-25000D02*
Y-24000D01*
X136900Y-25000D02*
X137400D01*
X136900Y-25500D02*
Y-25000D01*
X135900Y-25500D02*
X136900D01*
X135900D02*
Y-25000D01*
X136700Y-7700D02*
X137200D01*
X136700D02*
Y-6700D01*
X137200D01*
Y-6200D01*
X138200D01*
Y-6700D02*
Y-6200D01*
Y-6700D02*
X138700D01*
Y-7700D02*
Y-6700D01*
X138200Y-7700D02*
X138700D01*
X138200Y-8200D02*
Y-7700D01*
X137200Y-8200D02*
X138200D01*
X137200D02*
Y-7700D01*
X131800Y-8200D02*
X132300D01*
X131800D02*
Y-7200D01*
X132300D01*
Y-6700D01*
X133300D01*
Y-7200D02*
Y-6700D01*
Y-7200D02*
X133800D01*
Y-8200D02*
Y-7200D01*
X133300Y-8200D02*
X133800D01*
X133300Y-8700D02*
Y-8200D01*
X132300Y-8700D02*
X133300D01*
X132300D02*
Y-8200D01*
X124100Y-8000D02*
X124600D01*
X124100D02*
Y-7000D01*
X124600D01*
Y-6500D01*
X125600D01*
Y-7000D02*
Y-6500D01*
Y-7000D02*
X126100D01*
Y-8000D02*
Y-7000D01*
X125600Y-8000D02*
X126100D01*
X125600Y-8500D02*
Y-8000D01*
X124600Y-8500D02*
X125600D01*
X124600D02*
Y-8000D01*
X118500D02*
X119000D01*
X118500D02*
Y-7000D01*
X119000D01*
Y-6500D01*
X120000D01*
Y-7000D02*
Y-6500D01*
Y-7000D02*
X120500D01*
Y-8000D02*
Y-7000D01*
X120000Y-8000D02*
X120500D01*
X120000Y-8500D02*
Y-8000D01*
X119000Y-8500D02*
X120000D01*
X119000D02*
Y-8000D01*
X150400Y-25300D02*
X150900D01*
X150400D02*
Y-24300D01*
X150900D01*
Y-23800D01*
X151900D01*
Y-24300D02*
Y-23800D01*
Y-24300D02*
X152400D01*
Y-25300D02*
Y-24300D01*
X151900Y-25300D02*
X152400D01*
X151900Y-25800D02*
Y-25300D01*
X150900Y-25800D02*
X151900D01*
X150900D02*
Y-25300D01*
X106900Y-23900D02*
X107400D01*
X106900D02*
Y-22900D01*
X107400D01*
Y-22400D01*
X108400D01*
Y-22900D02*
Y-22400D01*
Y-22900D02*
X108900D01*
Y-23900D02*
Y-22900D01*
X108400Y-23900D02*
X108900D01*
X108400Y-24400D02*
Y-23900D01*
X107400Y-24400D02*
X108400D01*
X107400D02*
Y-23900D01*
X103500Y-24000D02*
X104000D01*
X103500D02*
Y-23000D01*
X104000D01*
Y-22500D01*
X105000D01*
Y-23000D02*
Y-22500D01*
Y-23000D02*
X105500D01*
Y-24000D02*
Y-23000D01*
X105000Y-24000D02*
X105500D01*
X105000Y-24500D02*
Y-24000D01*
X104000Y-24500D02*
X105000D01*
X104000D02*
Y-24000D01*
X131300Y-17300D02*
X131800D01*
X131300D02*
Y-16300D01*
X131800D01*
Y-15800D01*
X132800D01*
Y-16300D02*
Y-15800D01*
Y-16300D02*
X133300D01*
Y-17300D02*
Y-16300D01*
X132800Y-17300D02*
X133300D01*
X132800Y-17800D02*
Y-17300D01*
X131800Y-17800D02*
X132800D01*
X131800D02*
Y-17300D01*
X102600Y26200D02*
X103100D01*
X102600D02*
Y27200D01*
X103100D01*
Y27700D01*
X104100D01*
Y27200D02*
Y27700D01*
Y27200D02*
X104600D01*
Y26200D02*
Y27200D01*
X104100Y26200D02*
X104600D01*
X104100Y25700D02*
Y26200D01*
X103100Y25700D02*
X104100D01*
X103100D02*
Y26200D01*
X102600Y22300D02*
X103100D01*
X102600D02*
Y23300D01*
X103100D01*
Y23800D01*
X104100D01*
Y23300D02*
Y23800D01*
Y23300D02*
X104600D01*
Y22300D02*
Y23300D01*
X104100Y22300D02*
X104600D01*
X104100Y21800D02*
Y22300D01*
X103100Y21800D02*
X104100D01*
X103100D02*
Y22300D01*
X100900Y29300D02*
X101400D01*
X100900D02*
Y30300D01*
X101400D01*
Y30800D01*
X102400D01*
Y30300D02*
Y30800D01*
Y30300D02*
X102900D01*
Y29300D02*
Y30300D01*
X102400Y29300D02*
X102900D01*
X102400Y28800D02*
Y29300D01*
X101400Y28800D02*
X102400D01*
X101400D02*
Y29300D01*
X132400Y1000D02*
X132900D01*
X132400D02*
Y2000D01*
X132900D01*
Y2500D01*
X133900D01*
Y2000D02*
Y2500D01*
Y2000D02*
X134400D01*
Y1000D02*
Y2000D01*
X133900Y1000D02*
X134400D01*
X133900Y500D02*
Y1000D01*
X132900Y500D02*
X133900D01*
X132900D02*
Y1000D01*
X204000Y22500D02*
X204500D01*
X204000D02*
Y23500D01*
X204500D01*
Y24000D01*
X205500D01*
Y23500D02*
Y24000D01*
Y23500D02*
X206000D01*
Y22500D02*
Y23500D01*
X205500Y22500D02*
X206000D01*
X205500Y22000D02*
Y22500D01*
X204500Y22000D02*
X205500D01*
X204500D02*
Y22500D01*
X201000D02*
X201500D01*
X201000D02*
Y23500D01*
X201500D01*
Y24000D01*
X202500D01*
Y23500D02*
Y24000D01*
Y23500D02*
X203000D01*
Y22500D02*
Y23500D01*
X202500Y22500D02*
X203000D01*
X202500Y22000D02*
Y22500D01*
X201500Y22000D02*
X202500D01*
X201500D02*
Y22500D01*
X198000D02*
X198500D01*
X198000D02*
Y23500D01*
X198500D01*
Y24000D01*
X199500D01*
Y23500D02*
Y24000D01*
Y23500D02*
X200000D01*
Y22500D02*
Y23500D01*
X199500Y22500D02*
X200000D01*
X199500Y22000D02*
Y22500D01*
X198500Y22000D02*
X199500D01*
X198500D02*
Y22500D01*
X195000D02*
X195500D01*
X195000D02*
Y23500D01*
X195500D01*
Y24000D01*
X196500D01*
Y23500D02*
Y24000D01*
Y23500D02*
X197000D01*
Y22500D02*
Y23500D01*
X196500Y22500D02*
X197000D01*
X196500Y22000D02*
Y22500D01*
X195500Y22000D02*
X196500D01*
X195500D02*
Y22500D01*
X192000D02*
X192500D01*
X192000D02*
Y23500D01*
X192500D01*
Y24000D01*
X193500D01*
Y23500D02*
Y24000D01*
Y23500D02*
X194000D01*
Y22500D02*
Y23500D01*
X193500Y22500D02*
X194000D01*
X193500Y22000D02*
Y22500D01*
X192500Y22000D02*
X193500D01*
X192500D02*
Y22500D01*
X189000D02*
X189500D01*
X189000D02*
Y23500D01*
X189500D01*
Y24000D01*
X190500D01*
Y23500D02*
Y24000D01*
Y23500D02*
X191000D01*
Y22500D02*
Y23500D01*
X190500Y22500D02*
X191000D01*
X190500Y22000D02*
Y22500D01*
X189500Y22000D02*
X190500D01*
X189500D02*
Y22500D01*
X186000D02*
X186500D01*
X186000D02*
Y23500D01*
X186500D01*
Y24000D01*
X187500D01*
Y23500D02*
Y24000D01*
Y23500D02*
X188000D01*
Y22500D02*
Y23500D01*
X187500Y22500D02*
X188000D01*
X187500Y22000D02*
Y22500D01*
X186500Y22000D02*
X187500D01*
X186500D02*
Y22500D01*
X186000Y19500D02*
X186500D01*
X186000D02*
Y20500D01*
X186500D01*
Y21000D01*
X187500D01*
Y20500D02*
Y21000D01*
Y20500D02*
X188000D01*
Y19500D02*
Y20500D01*
X187500Y19500D02*
X188000D01*
X187500Y19000D02*
Y19500D01*
X186500Y19000D02*
X187500D01*
X186500D02*
Y19500D01*
X186000Y16500D02*
X186500D01*
X186000D02*
Y17500D01*
X186500D01*
Y18000D01*
X187500D01*
Y17500D02*
Y18000D01*
Y17500D02*
X188000D01*
Y16500D02*
Y17500D01*
X187500Y16500D02*
X188000D01*
X187500Y16000D02*
Y16500D01*
X186500Y16000D02*
X187500D01*
X186500D02*
Y16500D01*
X186000Y13500D02*
X186500D01*
X186000D02*
Y14500D01*
X186500D01*
Y15000D01*
X187500D01*
Y14500D02*
Y15000D01*
Y14500D02*
X188000D01*
Y13500D02*
Y14500D01*
X187500Y13500D02*
X188000D01*
X187500Y13000D02*
Y13500D01*
X186500Y13000D02*
X187500D01*
X186500D02*
Y13500D01*
X187000Y6500D02*
X187500D01*
X187000D02*
Y7500D01*
X187500D01*
Y8000D01*
X188500D01*
Y7500D02*
Y8000D01*
Y7500D02*
X189000D01*
Y6500D02*
Y7500D01*
X188500Y6500D02*
X189000D01*
X188500Y6000D02*
Y6500D01*
X187500Y6000D02*
X188500D01*
X187500D02*
Y6500D01*
X187000Y3500D02*
X187500D01*
X187000D02*
Y4500D01*
X187500D01*
Y5000D01*
X188500D01*
Y4500D02*
Y5000D01*
Y4500D02*
X189000D01*
Y3500D02*
Y4500D01*
X188500Y3500D02*
X189000D01*
X188500Y3000D02*
Y3500D01*
X187500Y3000D02*
X188500D01*
X187500D02*
Y3500D01*
X187000Y500D02*
X187500D01*
X187000D02*
Y1500D01*
X187500D01*
Y2000D01*
X188500D01*
Y1500D02*
Y2000D01*
Y1500D02*
X189000D01*
Y500D02*
Y1500D01*
X188500Y500D02*
X189000D01*
X188500Y0D02*
Y500D01*
X187500Y0D02*
X188500D01*
X187500D02*
Y500D01*
X187000Y-2500D02*
X187500D01*
X187000D02*
Y-1500D01*
X187500D01*
Y-1000D01*
X188500D01*
Y-1500D02*
Y-1000D01*
Y-1500D02*
X189000D01*
Y-2500D02*
Y-1500D01*
X188500Y-2500D02*
X189000D01*
X188500Y-3000D02*
Y-2500D01*
X187500Y-3000D02*
X188500D01*
X187500D02*
Y-2500D01*
X187000Y-5500D02*
X187500D01*
X187000D02*
Y-4500D01*
X187500D01*
Y-4000D01*
X188500D01*
Y-4500D02*
Y-4000D01*
Y-4500D02*
X189000D01*
Y-5500D02*
Y-4500D01*
X188500Y-5500D02*
X189000D01*
X188500Y-6000D02*
Y-5500D01*
X187500Y-6000D02*
X188500D01*
X187500D02*
Y-5500D01*
X187000Y-8500D02*
X187500D01*
X187000D02*
Y-7500D01*
X187500D01*
Y-7000D01*
X188500D01*
Y-7500D02*
Y-7000D01*
Y-7500D02*
X189000D01*
Y-8500D02*
Y-7500D01*
X188500Y-8500D02*
X189000D01*
X188500Y-9000D02*
Y-8500D01*
X187500Y-9000D02*
X188500D01*
X187500D02*
Y-8500D01*
X187000Y-11500D02*
X187500D01*
X187000D02*
Y-10500D01*
X187500D01*
Y-10000D01*
X188500D01*
Y-10500D02*
Y-10000D01*
Y-10500D02*
X189000D01*
Y-11500D02*
Y-10500D01*
X188500Y-11500D02*
X189000D01*
X188500Y-12000D02*
Y-11500D01*
X187500Y-12000D02*
X188500D01*
X187500D02*
Y-11500D01*
X187000Y-14500D02*
X187500D01*
X187000D02*
Y-13500D01*
X187500D01*
Y-13000D01*
X188500D01*
Y-13500D02*
Y-13000D01*
Y-13500D02*
X189000D01*
Y-14500D02*
Y-13500D01*
X188500Y-14500D02*
X189000D01*
X188500Y-15000D02*
Y-14500D01*
X187500Y-15000D02*
X188500D01*
X187500D02*
Y-14500D01*
X187000Y-17500D02*
X187500D01*
X187000D02*
Y-16500D01*
X187500D01*
Y-16000D01*
X188500D01*
Y-16500D02*
Y-16000D01*
Y-16500D02*
X189000D01*
Y-17500D02*
Y-16500D01*
X188500Y-17500D02*
X189000D01*
X188500Y-18000D02*
Y-17500D01*
X187500Y-18000D02*
X188500D01*
X187500D02*
Y-17500D01*
X187000Y-20500D02*
X187500D01*
X187000D02*
Y-19500D01*
X187500D01*
Y-19000D01*
X188500D01*
Y-19500D02*
Y-19000D01*
Y-19500D02*
X189000D01*
Y-20500D02*
Y-19500D01*
X188500Y-20500D02*
X189000D01*
X188500Y-21000D02*
Y-20500D01*
X187500Y-21000D02*
X188500D01*
X187500D02*
Y-20500D01*
X187000Y-23500D02*
X187500D01*
X187000D02*
Y-22500D01*
X187500D01*
Y-22000D01*
X188500D01*
Y-22500D02*
Y-22000D01*
Y-22500D02*
X189000D01*
Y-23500D02*
Y-22500D01*
X188500Y-23500D02*
X189000D01*
X188500Y-24000D02*
Y-23500D01*
X187500Y-24000D02*
X188500D01*
X187500D02*
Y-23500D01*
X190000D02*
X190500D01*
X190000D02*
Y-22500D01*
X190500D01*
Y-22000D01*
X191500D01*
Y-22500D02*
Y-22000D01*
Y-22500D02*
X192000D01*
Y-23500D02*
Y-22500D01*
X191500Y-23500D02*
X192000D01*
X191500Y-24000D02*
Y-23500D01*
X190500Y-24000D02*
X191500D01*
X190500D02*
Y-23500D01*
X193000D02*
X193500D01*
X193000D02*
Y-22500D01*
X193500D01*
Y-22000D01*
X194500D01*
Y-22500D02*
Y-22000D01*
Y-22500D02*
X195000D01*
Y-23500D02*
Y-22500D01*
X194500Y-23500D02*
X195000D01*
X194500Y-24000D02*
Y-23500D01*
X193500Y-24000D02*
X194500D01*
X193500D02*
Y-23500D01*
X196000D02*
X196500D01*
X196000D02*
Y-22500D01*
X196500D01*
Y-22000D01*
X197500D01*
Y-22500D02*
Y-22000D01*
Y-22500D02*
X198000D01*
Y-23500D02*
Y-22500D01*
X197500Y-23500D02*
X198000D01*
X197500Y-24000D02*
Y-23500D01*
X196500Y-24000D02*
X197500D01*
X196500D02*
Y-23500D01*
X199000D02*
X199500D01*
X199000D02*
Y-22500D01*
X199500D01*
Y-22000D01*
X200500D01*
Y-22500D02*
Y-22000D01*
Y-22500D02*
X201000D01*
Y-23500D02*
Y-22500D01*
X200500Y-23500D02*
X201000D01*
X200500Y-24000D02*
Y-23500D01*
X199500Y-24000D02*
X200500D01*
X199500D02*
Y-23500D01*
X202000D02*
X202500D01*
X202000D02*
Y-22500D01*
X202500D01*
Y-22000D01*
X203500D01*
Y-22500D02*
Y-22000D01*
Y-22500D02*
X204000D01*
Y-23500D02*
Y-22500D01*
X203500Y-23500D02*
X204000D01*
X203500Y-24000D02*
Y-23500D01*
X202500Y-24000D02*
X203500D01*
X202500D02*
Y-23500D01*
X52500Y27200D02*
X53000D01*
X52500D02*
Y28200D01*
X53000D01*
Y28700D01*
X54000D01*
Y28200D02*
Y28700D01*
Y28200D02*
X54500D01*
Y27200D02*
Y28200D01*
X54000Y27200D02*
X54500D01*
X54000Y26700D02*
Y27200D01*
X53000Y26700D02*
X54000D01*
X53000D02*
Y27200D01*
X58100Y29200D02*
X58600D01*
X58100D02*
Y30200D01*
X58600D01*
Y30700D01*
X59600D01*
Y30200D02*
Y30700D01*
Y30200D02*
X60100D01*
Y29200D02*
Y30200D01*
X59600Y29200D02*
X60100D01*
X59600Y28700D02*
Y29200D01*
X58600Y28700D02*
X59600D01*
X58600D02*
Y29200D01*
X54700Y35800D02*
X55200D01*
X54700D02*
Y36800D01*
X55200D01*
Y37300D01*
X56200D01*
Y36800D02*
Y37300D01*
Y36800D02*
X56700D01*
Y35800D02*
Y36800D01*
X56200Y35800D02*
X56700D01*
X56200Y35300D02*
Y35800D01*
X55200Y35300D02*
X56200D01*
X55200D02*
Y35800D01*
X59600Y39500D02*
X60100D01*
X59600D02*
Y40500D01*
X60100D01*
Y41000D01*
X61100D01*
Y40500D02*
Y41000D01*
Y40500D02*
X61600D01*
Y39500D02*
Y40500D01*
X61100Y39500D02*
X61600D01*
X61100Y39000D02*
Y39500D01*
X60100Y39000D02*
X61100D01*
X60100D02*
Y39500D01*
X64100Y17500D02*
X64600D01*
X64100D02*
Y18500D01*
X64600D01*
Y19000D01*
X65600D01*
Y18500D02*
Y19000D01*
Y18500D02*
X66100D01*
Y17500D02*
Y18500D01*
X65600Y17500D02*
X66100D01*
X65600Y17000D02*
Y17500D01*
X64600Y17000D02*
X65600D01*
X64600D02*
Y17500D01*
X43100Y29800D02*
X43600D01*
X43100D02*
Y30800D01*
X43600D01*
Y31300D01*
X44600D01*
Y30800D02*
Y31300D01*
Y30800D02*
X45100D01*
Y29800D02*
Y30800D01*
X44600Y29800D02*
X45100D01*
X44600Y29300D02*
Y29800D01*
X43600Y29300D02*
X44600D01*
X43600D02*
Y29800D01*
X85200Y27500D02*
X85700D01*
X85200D02*
Y28500D01*
X85700D01*
Y29000D01*
X86700D01*
Y28500D02*
Y29000D01*
Y28500D02*
X87200D01*
Y27500D02*
Y28500D01*
X86700Y27500D02*
X87200D01*
X86700Y27000D02*
Y27500D01*
X85700Y27000D02*
X86700D01*
X85700D02*
Y27500D01*
X142142Y-3079D02*
X142642D01*
X142142D02*
Y-2079D01*
X142642D01*
Y-1579D01*
X143642D01*
Y-2079D02*
Y-1579D01*
Y-2079D02*
X144142D01*
Y-3079D02*
Y-2079D01*
X143642Y-3079D02*
X144142D01*
X143642Y-3579D02*
Y-3079D01*
X142642Y-3579D02*
X143642D01*
X142642D02*
Y-3079D01*
X144527Y-5047D02*
X145027D01*
X144527D02*
Y-4047D01*
X145027D01*
Y-3547D01*
X146027D01*
Y-4047D02*
Y-3547D01*
Y-4047D02*
X146527D01*
Y-5047D02*
Y-4047D01*
X146027Y-5047D02*
X146527D01*
X146027Y-5547D02*
Y-5047D01*
X145027Y-5547D02*
X146027D01*
X145027D02*
Y-5047D01*
X144527Y-10953D02*
X145027D01*
X144527D02*
Y-9953D01*
X145027D01*
Y-9453D01*
X146027D01*
Y-9953D02*
Y-9453D01*
Y-9953D02*
X146527D01*
Y-10953D02*
Y-9953D01*
X146027Y-10953D02*
X146527D01*
X146027Y-11453D02*
Y-10953D01*
X145027Y-11453D02*
X146027D01*
X145027D02*
Y-10953D01*
X142142Y-12921D02*
X142642D01*
X142142D02*
Y-11921D01*
X142642D01*
Y-11421D01*
X143642D01*
Y-11921D02*
Y-11421D01*
Y-11921D02*
X144142D01*
Y-12921D02*
Y-11921D01*
X143642Y-12921D02*
X144142D01*
X143642Y-13421D02*
Y-12921D01*
X142642Y-13421D02*
X143642D01*
X142642D02*
Y-12921D01*
X142800Y8600D02*
X143300D01*
X142800D02*
Y9600D01*
X143300D01*
Y10100D01*
X144300D01*
Y9600D02*
Y10100D01*
Y9600D02*
X144800D01*
Y8600D02*
Y9600D01*
X144300Y8600D02*
X144800D01*
X144300Y8100D02*
Y8600D01*
X143300Y8100D02*
X144300D01*
X143300D02*
Y8600D01*
X144527Y-18827D02*
X145027D01*
X144527D02*
Y-17827D01*
X145027D01*
Y-17327D01*
X146027D01*
Y-17827D02*
Y-17327D01*
Y-17827D02*
X146527D01*
Y-18827D02*
Y-17827D01*
X146027Y-18827D02*
X146527D01*
X146027Y-19327D02*
Y-18827D01*
X145027Y-19327D02*
X146027D01*
X145027D02*
Y-18827D01*
X140003Y5703D02*
X140503D01*
X140003D02*
Y6703D01*
X140503D01*
Y7203D01*
X141503D01*
Y6703D02*
Y7203D01*
Y6703D02*
X142003D01*
Y5703D02*
Y6703D01*
X141503Y5703D02*
X142003D01*
X141503Y5203D02*
Y5703D01*
X140503Y5203D02*
X141503D01*
X140503D02*
Y5703D01*
X174200Y-29100D02*
X174700D01*
X174200D02*
Y-28100D01*
X174700D01*
Y-27600D01*
X175700D01*
Y-28100D02*
Y-27600D01*
Y-28100D02*
X176200D01*
Y-29100D02*
Y-28100D01*
X175700Y-29100D02*
X176200D01*
X175700Y-29600D02*
Y-29100D01*
X174700Y-29600D02*
X175700D01*
X174700D02*
Y-29100D01*
X167390Y-25990D02*
X167890D01*
X167390D02*
Y-24990D01*
X167890D01*
Y-24490D01*
X168890D01*
Y-24990D02*
Y-24490D01*
Y-24990D02*
X169390D01*
Y-25990D02*
Y-24990D01*
X168890Y-25990D02*
X169390D01*
X168890Y-26490D02*
Y-25990D01*
X167890Y-26490D02*
X168890D01*
X167890D02*
Y-25990D01*
X146200Y5800D02*
X146700D01*
X146200D02*
Y6800D01*
X146700D01*
Y7300D01*
X147700D01*
Y6800D02*
Y7300D01*
Y6800D02*
X148200D01*
Y5800D02*
Y6800D01*
X147700Y5800D02*
X148200D01*
X147700Y5300D02*
Y5800D01*
X146700Y5300D02*
X147700D01*
X146700D02*
Y5800D01*
X142142Y-16858D02*
X142642D01*
X142142D02*
Y-15858D01*
X142642D01*
Y-15358D01*
X143642D01*
Y-15858D02*
Y-15358D01*
Y-15858D02*
X144142D01*
Y-16858D02*
Y-15858D01*
X143642Y-16858D02*
X144142D01*
X143642Y-17358D02*
Y-16858D01*
X142642Y-17358D02*
X143642D01*
X142642D02*
Y-16858D01*
X176473Y-8984D02*
X176973D01*
X176473D02*
Y-7984D01*
X176973D01*
Y-7484D01*
X177973D01*
Y-7984D02*
Y-7484D01*
Y-7984D02*
X178473D01*
Y-8984D02*
Y-7984D01*
X177973Y-8984D02*
X178473D01*
X177973Y-9484D02*
Y-8984D01*
X176973Y-9484D02*
X177973D01*
X176973D02*
Y-8984D01*
X178858Y-14890D02*
X179358D01*
X178858D02*
Y-13890D01*
X179358D01*
Y-13390D01*
X180358D01*
Y-13890D02*
Y-13390D01*
Y-13890D02*
X180858D01*
Y-14890D02*
Y-13890D01*
X180358Y-14890D02*
X180858D01*
X180358Y-15390D02*
Y-14890D01*
X179358Y-15390D02*
X180358D01*
X179358D02*
Y-14890D01*
X170000Y19400D02*
X170500D01*
X170000D02*
Y20400D01*
X170500D01*
Y20900D01*
X171500D01*
Y20400D02*
Y20900D01*
Y20400D02*
X172000D01*
Y19400D02*
Y20400D01*
X171500Y19400D02*
X172000D01*
X171500Y18900D02*
Y19400D01*
X170500Y18900D02*
X171500D01*
X170500D02*
Y19400D01*
X144527Y-14890D02*
X145027D01*
X144527D02*
Y-13890D01*
X145027D01*
Y-13390D01*
X146027D01*
Y-13890D02*
Y-13390D01*
Y-13890D02*
X146527D01*
Y-14890D02*
Y-13890D01*
X146027Y-14890D02*
X146527D01*
X146027Y-15390D02*
Y-14890D01*
X145027Y-15390D02*
X146027D01*
X145027D02*
Y-14890D01*
X182200Y-2300D02*
X182700D01*
X182200D02*
Y-1300D01*
X182700D01*
Y-800D01*
X183700D01*
Y-1300D02*
Y-800D01*
Y-1300D02*
X184200D01*
Y-2300D02*
Y-1300D01*
X183700Y-2300D02*
X184200D01*
X183700Y-2800D02*
Y-2300D01*
X182700Y-2800D02*
X183700D01*
X182700D02*
Y-2300D01*
X150558Y2042D02*
X151058D01*
X150558D02*
Y3042D01*
X151058D01*
Y3542D01*
X152058D01*
Y3042D02*
Y3542D01*
Y3042D02*
X152558D01*
Y2042D02*
Y3042D01*
X152058Y2042D02*
X152558D01*
X152058Y1542D02*
Y2042D01*
X151058Y1542D02*
X152058D01*
X151058D02*
Y2042D01*
X129900Y-25500D02*
X130400D01*
X129900D02*
Y-24500D01*
X130400D01*
Y-24000D01*
X131400D01*
Y-24500D02*
Y-24000D01*
Y-24500D02*
X131900D01*
Y-25500D02*
Y-24500D01*
X131400Y-25500D02*
X131900D01*
X131400Y-26000D02*
Y-25500D01*
X130400Y-26000D02*
X131400D01*
X130400D02*
Y-25500D01*
X64700Y-24700D02*
X65200D01*
X64700D02*
Y-23700D01*
X65200D01*
Y-23200D01*
X66200D01*
Y-23700D02*
Y-23200D01*
Y-23700D02*
X66700D01*
Y-24700D02*
Y-23700D01*
X66200Y-24700D02*
X66700D01*
X66200Y-25200D02*
Y-24700D01*
X65200Y-25200D02*
X66200D01*
X65200D02*
Y-24700D01*
X63400Y-21900D02*
X63900D01*
X63400D02*
Y-20900D01*
X63900D01*
Y-20400D01*
X64900D01*
Y-20900D02*
Y-20400D01*
Y-20900D02*
X65400D01*
Y-21900D02*
Y-20900D01*
X64900Y-21900D02*
X65400D01*
X64900Y-22400D02*
Y-21900D01*
X63900Y-22400D02*
X64900D01*
X63900D02*
Y-21900D01*
X92900Y-36600D02*
X93400D01*
X92900D02*
Y-35600D01*
X93400D01*
Y-35100D01*
X94400D01*
Y-35600D02*
Y-35100D01*
Y-35600D02*
X94900D01*
Y-36600D02*
Y-35600D01*
X94400Y-36600D02*
X94900D01*
X94400Y-37100D02*
Y-36600D01*
X93400Y-37100D02*
X94400D01*
X93400D02*
Y-36600D01*
X84600Y-40700D02*
X85100D01*
X84600D02*
Y-39700D01*
X85100D01*
Y-39200D01*
X86100D01*
Y-39700D02*
Y-39200D01*
Y-39700D02*
X86600D01*
Y-40700D02*
Y-39700D01*
X86100Y-40700D02*
X86600D01*
X86100Y-41200D02*
Y-40700D01*
X85100Y-41200D02*
X86100D01*
X85100D02*
Y-40700D01*
X125400Y31400D02*
X125900D01*
X125400D02*
Y32400D01*
X125900D01*
Y32900D01*
X126900D01*
Y32400D02*
Y32900D01*
Y32400D02*
X127400D01*
Y31400D02*
Y32400D01*
X126900Y31400D02*
X127400D01*
X126900Y30900D02*
Y31400D01*
X125900Y30900D02*
X126900D01*
X125900D02*
Y31400D01*
X129100Y31100D02*
X129600D01*
X129100D02*
Y32100D01*
X129600D01*
Y32600D01*
X130600D01*
Y32100D02*
Y32600D01*
Y32100D02*
X131100D01*
Y31100D02*
Y32100D01*
X130600Y31100D02*
X131100D01*
X130600Y30600D02*
Y31100D01*
X129600Y30600D02*
X130600D01*
X129600D02*
Y31100D01*
X120700Y39800D02*
X121200D01*
X120700D02*
Y40800D01*
X121200D01*
Y41300D01*
X122200D01*
Y40800D02*
Y41300D01*
Y40800D02*
X122700D01*
Y39800D02*
Y40800D01*
X122200Y39800D02*
X122700D01*
X122200Y39300D02*
Y39800D01*
X121200Y39300D02*
X122200D01*
X121200D02*
Y39800D01*
X114600D02*
X115100D01*
X114600D02*
Y40800D01*
X115100D01*
Y41300D01*
X116100D01*
Y40800D02*
Y41300D01*
Y40800D02*
X116600D01*
Y39800D02*
Y40800D01*
X116100Y39800D02*
X116600D01*
X116100Y39300D02*
Y39800D01*
X115100Y39300D02*
X116100D01*
X115100D02*
Y39800D01*
X91000Y27500D02*
X91500D01*
X91000D02*
Y28500D01*
X91500D01*
Y29000D01*
X92500D01*
Y28500D02*
Y29000D01*
Y28500D02*
X93000D01*
Y27500D02*
Y28500D01*
X92500Y27500D02*
X93000D01*
X92500Y27000D02*
Y27500D01*
X91500Y27000D02*
X92500D01*
X91500D02*
Y27500D01*
X115532Y3232D02*
X116032D01*
X115532D02*
Y4232D01*
X116032D01*
Y4732D01*
X117032D01*
Y4232D02*
Y4732D01*
Y4232D02*
X117532D01*
Y3232D02*
Y4232D01*
X117032Y3232D02*
X117532D01*
X117032Y2732D02*
Y3232D01*
X116032Y2732D02*
X117032D01*
X116032D02*
Y3232D01*
X134300Y19300D02*
X134800D01*
X134300D02*
Y20300D01*
X134800D01*
Y20800D01*
X135800D01*
Y20300D02*
Y20800D01*
Y20300D02*
X136300D01*
Y19300D02*
Y20300D01*
X135800Y19300D02*
X136300D01*
X135800Y18800D02*
Y19300D01*
X134800Y18800D02*
X135800D01*
X134800D02*
Y19300D01*
X131800Y21900D02*
X132300D01*
X131800D02*
Y22900D01*
X132300D01*
Y23400D01*
X133300D01*
Y22900D02*
Y23400D01*
Y22900D02*
X133800D01*
Y21900D02*
Y22900D01*
X133300Y21900D02*
X133800D01*
X133300Y21400D02*
Y21900D01*
X132300Y21400D02*
X133300D01*
X132300D02*
Y21900D01*
X18500Y-36500D02*
X19000Y-37000D01*
X18000Y-36500D02*
X18500D01*
X18000D02*
X18500Y-36000D01*
X18000Y-35500D02*
X18500Y-36000D01*
X18000Y-35500D02*
X18500D01*
X19000Y-35000D01*
X19500Y-35500D01*
X20000D01*
X19500Y-36000D02*
X20000Y-35500D01*
X19500Y-36000D02*
X20000Y-36500D01*
X19500D02*
X20000D01*
X19000Y-37000D02*
X19500Y-36500D01*
X38500D02*
X39000Y-37000D01*
X38000Y-36500D02*
X38500D01*
X38000D02*
X38500Y-36000D01*
X38000Y-35500D02*
X38500Y-36000D01*
X38000Y-35500D02*
X38500D01*
X39000Y-35000D01*
X39500Y-35500D01*
X40000D01*
X39500Y-36000D02*
X40000Y-35500D01*
X39500Y-36000D02*
X40000Y-36500D01*
X39500D02*
X40000D01*
X39000Y-37000D02*
X39500Y-36500D01*
X28500D02*
X29000Y-37000D01*
X28000Y-36500D02*
X28500D01*
X28000D02*
X28500Y-36000D01*
X28000Y-35500D02*
X28500Y-36000D01*
X28000Y-35500D02*
X28500D01*
X29000Y-35000D01*
X29500Y-35500D01*
X30000D01*
X29500Y-36000D02*
X30000Y-35500D01*
X29500Y-36000D02*
X30000Y-36500D01*
X29500D02*
X30000D01*
X29000Y-37000D02*
X29500Y-36500D01*
X48500D02*
X49000Y-37000D01*
X48000Y-36500D02*
X48500D01*
X48000D02*
X48500Y-36000D01*
X48000Y-35500D02*
X48500Y-36000D01*
X48000Y-35500D02*
X48500D01*
X49000Y-35000D01*
X49500Y-35500D01*
X50000D01*
X49500Y-36000D02*
X50000Y-35500D01*
X49500Y-36000D02*
X50000Y-36500D01*
X49500D02*
X50000D01*
X49000Y-37000D02*
X49500Y-36500D01*
X58500D02*
X59000Y-37000D01*
X58000Y-36500D02*
X58500D01*
X58000D02*
X58500Y-36000D01*
X58000Y-35500D02*
X58500Y-36000D01*
X58000Y-35500D02*
X58500D01*
X59000Y-35000D01*
X59500Y-35500D01*
X60000D01*
X59500Y-36000D02*
X60000Y-35500D01*
X59500Y-36000D02*
X60000Y-36500D01*
X59500D02*
X60000D01*
X59000Y-37000D02*
X59500Y-36500D01*
X88500D02*
X89000Y-37000D01*
X88000Y-36500D02*
X88500D01*
X88000D02*
X88500Y-36000D01*
X88000Y-35500D02*
X88500Y-36000D01*
X88000Y-35500D02*
X88500D01*
X89000Y-35000D01*
X89500Y-35500D01*
X90000D01*
X89500Y-36000D02*
X90000Y-35500D01*
X89500Y-36000D02*
X90000Y-36500D01*
X89500D02*
X90000D01*
X89000Y-37000D02*
X89500Y-36500D01*
X78500D02*
X79000Y-37000D01*
X78000Y-36500D02*
X78500D01*
X78000D02*
X78500Y-36000D01*
X78000Y-35500D02*
X78500Y-36000D01*
X78000Y-35500D02*
X78500D01*
X79000Y-35000D01*
X79500Y-35500D01*
X80000D01*
X79500Y-36000D02*
X80000Y-35500D01*
X79500Y-36000D02*
X80000Y-36500D01*
X79500D02*
X80000D01*
X79000Y-37000D02*
X79500Y-36500D01*
X128500D02*
X129000Y-37000D01*
X128000Y-36500D02*
X128500D01*
X128000D02*
X128500Y-36000D01*
X128000Y-35500D02*
X128500Y-36000D01*
X128000Y-35500D02*
X128500D01*
X129000Y-35000D01*
X129500Y-35500D01*
X130000D01*
X129500Y-36000D02*
X130000Y-35500D01*
X129500Y-36000D02*
X130000Y-36500D01*
X129500D02*
X130000D01*
X129000Y-37000D02*
X129500Y-36500D01*
X118500D02*
X119000Y-37000D01*
X118000Y-36500D02*
X118500D01*
X118000D02*
X118500Y-36000D01*
X118000Y-35500D02*
X118500Y-36000D01*
X118000Y-35500D02*
X118500D01*
X119000Y-35000D01*
X119500Y-35500D01*
X120000D01*
X119500Y-36000D02*
X120000Y-35500D01*
X119500Y-36000D02*
X120000Y-36500D01*
X119500D02*
X120000D01*
X119000Y-37000D02*
X119500Y-36500D01*
X138500D02*
X139000Y-37000D01*
X138000Y-36500D02*
X138500D01*
X138000D02*
X138500Y-36000D01*
X138000Y-35500D02*
X138500Y-36000D01*
X138000Y-35500D02*
X138500D01*
X139000Y-35000D01*
X139500Y-35500D01*
X140000D01*
X139500Y-36000D02*
X140000Y-35500D01*
X139500Y-36000D02*
X140000Y-36500D01*
X139500D02*
X140000D01*
X139000Y-37000D02*
X139500Y-36500D01*
X178500D02*
X179000Y-37000D01*
X178000Y-36500D02*
X178500D01*
X178000D02*
X178500Y-36000D01*
X178000Y-35500D02*
X178500Y-36000D01*
X178000Y-35500D02*
X178500D01*
X179000Y-35000D01*
X179500Y-35500D01*
X180000D01*
X179500Y-36000D02*
X180000Y-35500D01*
X179500Y-36000D02*
X180000Y-36500D01*
X179500D02*
X180000D01*
X179000Y-37000D02*
X179500Y-36500D01*
X188500D02*
X189000Y-37000D01*
X188000Y-36500D02*
X188500D01*
X188000D02*
X188500Y-36000D01*
X188000Y-35500D02*
X188500Y-36000D01*
X188000Y-35500D02*
X188500D01*
X189000Y-35000D01*
X189500Y-35500D01*
X190000D01*
X189500Y-36000D02*
X190000Y-35500D01*
X189500Y-36000D02*
X190000Y-36500D01*
X189500D02*
X190000D01*
X189000Y-37000D02*
X189500Y-36500D01*
X168500D02*
X169000Y-37000D01*
X168000Y-36500D02*
X168500D01*
X168000D02*
X168500Y-36000D01*
X168000Y-35500D02*
X168500Y-36000D01*
X168000Y-35500D02*
X168500D01*
X169000Y-35000D01*
X169500Y-35500D01*
X170000D01*
X169500Y-36000D02*
X170000Y-35500D01*
X169500Y-36000D02*
X170000Y-36500D01*
X169500D02*
X170000D01*
X169000Y-37000D02*
X169500Y-36500D01*
X148500D02*
X149000Y-37000D01*
X148000Y-36500D02*
X148500D01*
X148000D02*
X148500Y-36000D01*
X148000Y-35500D02*
X148500Y-36000D01*
X148000Y-35500D02*
X148500D01*
X149000Y-35000D01*
X149500Y-35500D01*
X150000D01*
X149500Y-36000D02*
X150000Y-35500D01*
X149500Y-36000D02*
X150000Y-36500D01*
X149500D02*
X150000D01*
X149000Y-37000D02*
X149500Y-36500D01*
X158500D02*
X159000Y-37000D01*
X158000Y-36500D02*
X158500D01*
X158000D02*
X158500Y-36000D01*
X158000Y-35500D02*
X158500Y-36000D01*
X158000Y-35500D02*
X158500D01*
X159000Y-35000D01*
X159500Y-35500D01*
X160000D01*
X159500Y-36000D02*
X160000Y-35500D01*
X159500Y-36000D02*
X160000Y-36500D01*
X159500D02*
X160000D01*
X159000Y-37000D02*
X159500Y-36500D01*
X98500D02*
X99000Y-37000D01*
X98000Y-36500D02*
X98500D01*
X98000D02*
X98500Y-36000D01*
X98000Y-35500D02*
X98500Y-36000D01*
X98000Y-35500D02*
X98500D01*
X99000Y-35000D01*
X99500Y-35500D01*
X100000D01*
X99500Y-36000D02*
X100000Y-35500D01*
X99500Y-36000D02*
X100000Y-36500D01*
X99500D02*
X100000D01*
X99000Y-37000D02*
X99500Y-36500D01*
X108500D02*
X109000Y-37000D01*
X108000Y-36500D02*
X108500D01*
X108000D02*
X108500Y-36000D01*
X108000Y-35500D02*
X108500Y-36000D01*
X108000Y-35500D02*
X108500D01*
X109000Y-35000D01*
X109500Y-35500D01*
X110000D01*
X109500Y-36000D02*
X110000Y-35500D01*
X109500Y-36000D02*
X110000Y-36500D01*
X109500D02*
X110000D01*
X109000Y-37000D02*
X109500Y-36500D01*
X68500D02*
X69000Y-37000D01*
X68000Y-36500D02*
X68500D01*
X68000D02*
X68500Y-36000D01*
X68000Y-35500D02*
X68500Y-36000D01*
X68000Y-35500D02*
X68500D01*
X69000Y-35000D01*
X69500Y-35500D01*
X70000D01*
X69500Y-36000D02*
X70000Y-35500D01*
X69500Y-36000D02*
X70000Y-36500D01*
X69500D02*
X70000D01*
X69000Y-37000D02*
X69500Y-36500D01*
X24358Y10378D02*
X25358Y12378D01*
X23358D02*
X25358D01*
X23358D02*
X24358Y10378D01*
Y-12378D02*
X25358Y-10378D01*
X23358D02*
X25358D01*
X23358D02*
X24358Y-12378D01*
X25327Y-18028D02*
X27327D01*
Y-16028D01*
X25327D02*
X27327D01*
X25327Y-18028D02*
Y-16028D01*
Y16028D02*
X27327D01*
Y18028D01*
X25327D02*
X27327D01*
X25327Y16028D02*
Y18028D01*
X199500Y34500D02*
X200500Y35000D01*
X201500Y34500D01*
X201000Y35500D02*
X201500Y34500D01*
X201000Y35500D02*
X201500Y36500D01*
X200500Y36000D02*
X201500Y36500D01*
X199500D02*
X200500Y36000D01*
X199500Y36500D02*
X200000Y35500D01*
X199500Y34500D02*
X200000Y35500D01*
X199500Y-36500D02*
X200500Y-36000D01*
X201500Y-36500D01*
X201000Y-35500D02*
X201500Y-36500D01*
X201000Y-35500D02*
X201500Y-34500D01*
X200500Y-35000D02*
X201500Y-34500D01*
X199500D02*
X200500Y-35000D01*
X199500Y-34500D02*
X200000Y-35500D01*
X199500Y-36500D02*
X200000Y-35500D01*
X6500Y-36500D02*
X7500Y-36000D01*
X8500Y-36500D01*
X8000Y-35500D02*
X8500Y-36500D01*
X8000Y-35500D02*
X8500Y-34500D01*
X7500Y-35000D02*
X8500Y-34500D01*
X6500D02*
X7500Y-35000D01*
X6500Y-34500D02*
X7000Y-35500D01*
X6500Y-36500D02*
X7000Y-35500D01*
X6500Y34500D02*
X7500Y35000D01*
X8500Y34500D01*
X8000Y35500D02*
X8500Y34500D01*
X8000Y35500D02*
X8500Y36500D01*
X7500Y36000D02*
X8500Y36500D01*
X6500D02*
X7500Y36000D01*
X6500Y36500D02*
X7000Y35500D01*
X6500Y34500D02*
X7000Y35500D01*
X88500D02*
X89000Y35000D01*
X88000Y35500D02*
X88500D01*
X88000D02*
X88500Y36000D01*
X88000Y36500D02*
X88500Y36000D01*
X88000Y36500D02*
X88500D01*
X89000Y37000D01*
X89500Y36500D01*
X90000D01*
X89500Y36000D02*
X90000Y36500D01*
X89500Y36000D02*
X90000Y35500D01*
X89500D02*
X90000D01*
X89000Y35000D02*
X89500Y35500D01*
X78500D02*
X79000Y35000D01*
X78000Y35500D02*
X78500D01*
X78000D02*
X78500Y36000D01*
X78000Y36500D02*
X78500Y36000D01*
X78000Y36500D02*
X78500D01*
X79000Y37000D01*
X79500Y36500D01*
X80000D01*
X79500Y36000D02*
X80000Y36500D01*
X79500Y36000D02*
X80000Y35500D01*
X79500D02*
X80000D01*
X79000Y35000D02*
X79500Y35500D01*
X128500D02*
X129000Y35000D01*
X128000Y35500D02*
X128500D01*
X128000D02*
X128500Y36000D01*
X128000Y36500D02*
X128500Y36000D01*
X128000Y36500D02*
X128500D01*
X129000Y37000D01*
X129500Y36500D01*
X130000D01*
X129500Y36000D02*
X130000Y36500D01*
X129500Y36000D02*
X130000Y35500D01*
X129500D02*
X130000D01*
X129000Y35000D02*
X129500Y35500D01*
X118500D02*
X119000Y35000D01*
X118000Y35500D02*
X118500D01*
X118000D02*
X118500Y36000D01*
X118000Y36500D02*
X118500Y36000D01*
X118000Y36500D02*
X118500D01*
X119000Y37000D01*
X119500Y36500D01*
X120000D01*
X119500Y36000D02*
X120000Y36500D01*
X119500Y36000D02*
X120000Y35500D01*
X119500D02*
X120000D01*
X119000Y35000D02*
X119500Y35500D01*
X138500D02*
X139000Y35000D01*
X138000Y35500D02*
X138500D01*
X138000D02*
X138500Y36000D01*
X138000Y36500D02*
X138500Y36000D01*
X138000Y36500D02*
X138500D01*
X139000Y37000D01*
X139500Y36500D01*
X140000D01*
X139500Y36000D02*
X140000Y36500D01*
X139500Y36000D02*
X140000Y35500D01*
X139500D02*
X140000D01*
X139000Y35000D02*
X139500Y35500D01*
X178500D02*
X179000Y35000D01*
X178000Y35500D02*
X178500D01*
X178000D02*
X178500Y36000D01*
X178000Y36500D02*
X178500Y36000D01*
X178000Y36500D02*
X178500D01*
X179000Y37000D01*
X179500Y36500D01*
X180000D01*
X179500Y36000D02*
X180000Y36500D01*
X179500Y36000D02*
X180000Y35500D01*
X179500D02*
X180000D01*
X179000Y35000D02*
X179500Y35500D01*
X188500D02*
X189000Y35000D01*
X188000Y35500D02*
X188500D01*
X188000D02*
X188500Y36000D01*
X188000Y36500D02*
X188500Y36000D01*
X188000Y36500D02*
X188500D01*
X189000Y37000D01*
X189500Y36500D01*
X190000D01*
X189500Y36000D02*
X190000Y36500D01*
X189500Y36000D02*
X190000Y35500D01*
X189500D02*
X190000D01*
X189000Y35000D02*
X189500Y35500D01*
X168500D02*
X169000Y35000D01*
X168000Y35500D02*
X168500D01*
X168000D02*
X168500Y36000D01*
X168000Y36500D02*
X168500Y36000D01*
X168000Y36500D02*
X168500D01*
X169000Y37000D01*
X169500Y36500D01*
X170000D01*
X169500Y36000D02*
X170000Y36500D01*
X169500Y36000D02*
X170000Y35500D01*
X169500D02*
X170000D01*
X169000Y35000D02*
X169500Y35500D01*
X148500D02*
X149000Y35000D01*
X148000Y35500D02*
X148500D01*
X148000D02*
X148500Y36000D01*
X148000Y36500D02*
X148500Y36000D01*
X148000Y36500D02*
X148500D01*
X149000Y37000D01*
X149500Y36500D01*
X150000D01*
X149500Y36000D02*
X150000Y36500D01*
X149500Y36000D02*
X150000Y35500D01*
X149500D02*
X150000D01*
X149000Y35000D02*
X149500Y35500D01*
X158500D02*
X159000Y35000D01*
X158000Y35500D02*
X158500D01*
X158000D02*
X158500Y36000D01*
X158000Y36500D02*
X158500Y36000D01*
X158000Y36500D02*
X158500D01*
X159000Y37000D01*
X159500Y36500D01*
X160000D01*
X159500Y36000D02*
X160000Y36500D01*
X159500Y36000D02*
X160000Y35500D01*
X159500D02*
X160000D01*
X159000Y35000D02*
X159500Y35500D01*
X98500D02*
X99000Y35000D01*
X98000Y35500D02*
X98500D01*
X98000D02*
X98500Y36000D01*
X98000Y36500D02*
X98500Y36000D01*
X98000Y36500D02*
X98500D01*
X99000Y37000D01*
X99500Y36500D01*
X100000D01*
X99500Y36000D02*
X100000Y36500D01*
X99500Y36000D02*
X100000Y35500D01*
X99500D02*
X100000D01*
X99000Y35000D02*
X99500Y35500D01*
X108500D02*
X109000Y35000D01*
X108000Y35500D02*
X108500D01*
X108000D02*
X108500Y36000D01*
X108000Y36500D02*
X108500Y36000D01*
X108000Y36500D02*
X108500D01*
X109000Y37000D01*
X109500Y36500D01*
X110000D01*
X109500Y36000D02*
X110000Y36500D01*
X109500Y36000D02*
X110000Y35500D01*
X109500D02*
X110000D01*
X109000Y35000D02*
X109500Y35500D01*
X28500Y24100D02*
X29000Y23600D01*
X28000Y24100D02*
X28500D01*
X28000D02*
X28500Y24600D01*
X28000Y25100D02*
X28500Y24600D01*
X28000Y25100D02*
X28500D01*
X29000Y25600D01*
X29500Y25100D01*
X30000D01*
X29500Y24600D02*
X30000Y25100D01*
X29500Y24600D02*
X30000Y24100D01*
X29500D02*
X30000D01*
X29000Y23600D02*
X29500Y24100D01*
X38500D02*
X39000Y23600D01*
X38000Y24100D02*
X38500D01*
X38000D02*
X38500Y24600D01*
X38000Y25100D02*
X38500Y24600D01*
X38000Y25100D02*
X38500D01*
X39000Y25600D01*
X39500Y25100D01*
X40000D01*
X39500Y24600D02*
X40000Y25100D01*
X39500Y24600D02*
X40000Y24100D01*
X39500D02*
X40000D01*
X39000Y23600D02*
X39500Y24100D01*
D74*
X1188819Y202394D02*
Y209592D01*
X1192418D01*
X1193618Y208392D01*
Y205993D01*
X1192418Y204793D01*
X1188819D01*
X1191218D02*
X1193618Y202394D01*
X1197216D02*
X1199616D01*
X1200815Y203594D01*
Y205993D01*
X1199616Y207193D01*
X1197216D01*
X1196017Y205993D01*
Y203594D01*
X1197216Y202394D01*
X1203214Y207193D02*
Y203594D01*
X1204414Y202394D01*
X1208013D01*
Y207193D01*
X1211612Y208392D02*
Y207193D01*
X1210412D01*
X1212811D01*
X1211612D01*
Y203594D01*
X1212811Y202394D01*
X1220009D02*
X1217610D01*
X1216410Y203594D01*
Y205993D01*
X1217610Y207193D01*
X1220009D01*
X1221209Y205993D01*
Y204793D01*
X1216410D01*
X1228406Y209592D02*
Y202394D01*
X1224807D01*
X1223608Y203594D01*
Y205993D01*
X1224807Y207193D01*
X1228406D01*
X1238003Y202394D02*
Y209592D01*
X1241602D01*
X1242802Y208392D01*
Y205993D01*
X1241602Y204793D01*
X1238003D01*
X1246401Y207193D02*
X1248800D01*
X1249999Y205993D01*
Y202394D01*
X1246401D01*
X1245201Y203594D01*
X1246401Y204793D01*
X1249999D01*
X1253598Y208392D02*
Y207193D01*
X1252399D01*
X1254798D01*
X1253598D01*
Y203594D01*
X1254798Y202394D01*
X1258397Y209592D02*
Y202394D01*
Y205993D01*
X1259596Y207193D01*
X1261996D01*
X1263195Y205993D01*
Y202394D01*
X1272792Y209592D02*
Y202394D01*
X1277590D01*
X1283589D02*
X1281189D01*
X1279990Y203594D01*
Y205993D01*
X1281189Y207193D01*
X1283589D01*
X1284788Y205993D01*
Y204793D01*
X1279990D01*
X1287187Y202394D02*
Y207193D01*
X1290786D01*
X1291986Y205993D01*
Y202394D01*
X1296784Y199995D02*
X1297984D01*
X1299183Y201195D01*
Y207193D01*
X1295585D01*
X1294385Y205993D01*
Y203594D01*
X1295585Y202394D01*
X1299183D01*
X1302782Y208392D02*
Y207193D01*
X1301583D01*
X1303982D01*
X1302782D01*
Y203594D01*
X1303982Y202394D01*
X1307581Y209592D02*
Y202394D01*
Y205993D01*
X1308780Y207193D01*
X1311180D01*
X1312379Y205993D01*
Y202394D01*
X1079851Y209592D02*
Y202394D01*
Y205993D01*
X1084649D01*
Y209592D01*
Y202394D01*
X1088248D02*
X1090647D01*
X1091847Y203594D01*
Y205993D01*
X1090647Y207193D01*
X1088248D01*
X1087049Y205993D01*
Y203594D01*
X1088248Y202394D01*
X1094246D02*
X1096645D01*
X1095446D01*
Y209592D01*
X1094246D01*
X1103843Y202394D02*
X1101444D01*
X1100244Y203594D01*
Y205993D01*
X1101444Y207193D01*
X1103843D01*
X1105043Y205993D01*
Y204793D01*
X1100244D01*
X1114640Y209592D02*
Y202394D01*
X1119438D01*
X1125436D02*
X1123037D01*
X1121837Y203594D01*
Y205993D01*
X1123037Y207193D01*
X1125436D01*
X1126636Y205993D01*
Y204793D01*
X1121837D01*
X1129035Y202394D02*
Y207193D01*
X1132634D01*
X1133833Y205993D01*
Y202394D01*
X1138632Y199995D02*
X1139832D01*
X1141031Y201195D01*
Y207193D01*
X1137432D01*
X1136233Y205993D01*
Y203594D01*
X1137432Y202394D01*
X1141031D01*
X1144630Y208392D02*
Y207193D01*
X1143430D01*
X1145829D01*
X1144630D01*
Y203594D01*
X1145829Y202394D01*
X1149428Y209592D02*
Y202394D01*
Y205993D01*
X1150628Y207193D01*
X1153027D01*
X1154227Y205993D01*
Y202394D01*
X946490Y209592D02*
Y202394D01*
Y205993D01*
X951289D01*
Y209592D01*
Y202394D01*
X954887D02*
X957287D01*
X958486Y203594D01*
Y205993D01*
X957287Y207193D01*
X954887D01*
X953688Y205993D01*
Y203594D01*
X954887Y202394D01*
X960885D02*
X963285D01*
X962085D01*
Y209592D01*
X960885D01*
X970482Y202394D02*
X968083D01*
X966883Y203594D01*
Y205993D01*
X968083Y207193D01*
X970482D01*
X971682Y205993D01*
Y204793D01*
X966883D01*
X981279Y209592D02*
X986077D01*
X983678D01*
Y202394D01*
X989676D02*
X992075D01*
X993275Y203594D01*
Y205993D01*
X992075Y207193D01*
X989676D01*
X988476Y205993D01*
Y203594D01*
X989676Y202394D01*
X995674D02*
X998073D01*
X996874D01*
Y209592D01*
X995674D01*
X1005271Y202394D02*
X1002872D01*
X1001672Y203594D01*
Y205993D01*
X1002872Y207193D01*
X1005271D01*
X1006471Y205993D01*
Y204793D01*
X1001672D01*
X1008870Y207193D02*
Y202394D01*
Y204793D01*
X1010069Y205993D01*
X1011269Y207193D01*
X1012469D01*
X1017267D02*
X1019666D01*
X1020866Y205993D01*
Y202394D01*
X1017267D01*
X1016068Y203594D01*
X1017267Y204793D01*
X1020866D01*
X1023265Y202394D02*
Y207193D01*
X1026864D01*
X1028064Y205993D01*
Y202394D01*
X1035261Y207193D02*
X1031662D01*
X1030463Y205993D01*
Y203594D01*
X1031662Y202394D01*
X1035261D01*
X1041259D02*
X1038860D01*
X1037661Y203594D01*
Y205993D01*
X1038860Y207193D01*
X1041259D01*
X1042459Y205993D01*
Y204793D01*
X1037661D01*
X1054455Y202394D02*
X1052056Y204793D01*
Y207193D01*
X1054455Y209592D01*
X1058054Y205993D02*
X1062852D01*
X1065252Y202394D02*
X1067651Y204793D01*
Y207193D01*
X1065252Y209592D01*
X813129D02*
Y202394D01*
Y205993D01*
X817928D01*
Y209592D01*
Y202394D01*
X821527D02*
X823926D01*
X825125Y203594D01*
Y205993D01*
X823926Y207193D01*
X821527D01*
X820327Y205993D01*
Y203594D01*
X821527Y202394D01*
X827525D02*
X829924D01*
X828724D01*
Y209592D01*
X827525D01*
X837121Y202394D02*
X834722D01*
X833523Y203594D01*
Y205993D01*
X834722Y207193D01*
X837121D01*
X838321Y205993D01*
Y204793D01*
X833523D01*
X847918Y209592D02*
X852717D01*
X850317D01*
Y202394D01*
X856315D02*
X858715D01*
X859914Y203594D01*
Y205993D01*
X858715Y207193D01*
X856315D01*
X855116Y205993D01*
Y203594D01*
X856315Y202394D01*
X862313D02*
X864713D01*
X863513D01*
Y209592D01*
X862313D01*
X871910Y202394D02*
X869511D01*
X868311Y203594D01*
Y205993D01*
X869511Y207193D01*
X871910D01*
X873110Y205993D01*
Y204793D01*
X868311D01*
X875509Y207193D02*
Y202394D01*
Y204793D01*
X876709Y205993D01*
X877908Y207193D01*
X879108D01*
X883906D02*
X886306D01*
X887505Y205993D01*
Y202394D01*
X883906D01*
X882707Y203594D01*
X883906Y204793D01*
X887505D01*
X889904Y202394D02*
Y207193D01*
X893503D01*
X894703Y205993D01*
Y202394D01*
X901901Y207193D02*
X898302D01*
X897102Y205993D01*
Y203594D01*
X898302Y202394D01*
X901901D01*
X907899D02*
X905499D01*
X904300Y203594D01*
Y205993D01*
X905499Y207193D01*
X907899D01*
X909098Y205993D01*
Y204793D01*
X904300D01*
X921094Y202394D02*
X918695Y204793D01*
Y207193D01*
X921094Y209592D01*
X924693Y205993D02*
X929492D01*
X927092Y208392D02*
Y203594D01*
X931891Y202394D02*
X934290Y204793D01*
Y207193D01*
X931891Y209592D01*
X727753D02*
Y202394D01*
X731352D01*
X732551Y203594D01*
Y208392D01*
X731352Y209592D01*
X727753D01*
X738550Y202394D02*
X736150D01*
X734951Y203594D01*
Y205993D01*
X736150Y207193D01*
X738550D01*
X739749Y205993D01*
Y204793D01*
X734951D01*
X742148Y202394D02*
X745747D01*
X746947Y203594D01*
X745747Y204793D01*
X743348D01*
X742148Y205993D01*
X743348Y207193D01*
X746947D01*
X754144D02*
X750546D01*
X749346Y205993D01*
Y203594D01*
X750546Y202394D01*
X754144D01*
X756544Y207193D02*
Y202394D01*
Y204793D01*
X757743Y205993D01*
X758943Y207193D01*
X760143D01*
X763741Y202394D02*
X766141D01*
X764941D01*
Y207193D01*
X763741D01*
X769739Y199995D02*
Y207193D01*
X773338D01*
X774538Y205993D01*
Y203594D01*
X773338Y202394D01*
X769739D01*
X778137Y208392D02*
Y207193D01*
X776937D01*
X779336D01*
X778137D01*
Y203594D01*
X779336Y202394D01*
X782935D02*
X785334D01*
X784135D01*
Y207193D01*
X782935D01*
X790133Y202394D02*
X792532D01*
X793732Y203594D01*
Y205993D01*
X792532Y207193D01*
X790133D01*
X788933Y205993D01*
Y203594D01*
X790133Y202394D01*
X796131D02*
Y207193D01*
X799730D01*
X800929Y205993D01*
Y202394D01*
X608788Y209592D02*
X613586D01*
X611187D01*
Y202394D01*
X619584D02*
X617185D01*
X615986Y203594D01*
Y205993D01*
X617185Y207193D01*
X619584D01*
X620784Y205993D01*
Y204793D01*
X615986D01*
X623183Y202394D02*
Y207193D01*
X624383D01*
X625583Y205993D01*
Y202394D01*
Y205993D01*
X626782Y207193D01*
X627982Y205993D01*
Y202394D01*
X630381Y199995D02*
Y207193D01*
X633980D01*
X635179Y205993D01*
Y203594D01*
X633980Y202394D01*
X630381D01*
X637579D02*
X639978D01*
X638778D01*
Y209592D01*
X637579D01*
X644776Y207193D02*
X647176D01*
X648375Y205993D01*
Y202394D01*
X644776D01*
X643577Y203594D01*
X644776Y204793D01*
X648375D01*
X651974Y208392D02*
Y207193D01*
X650774D01*
X653173D01*
X651974D01*
Y203594D01*
X653173Y202394D01*
X660371D02*
X657972D01*
X656772Y203594D01*
Y205993D01*
X657972Y207193D01*
X660371D01*
X661571Y205993D01*
Y204793D01*
X656772D01*
X534208Y202394D02*
Y209592D01*
X537807D01*
X539007Y208392D01*
Y205993D01*
X537807Y204793D01*
X534208D01*
X542605Y207193D02*
X545005D01*
X546204Y205993D01*
Y202394D01*
X542605D01*
X541406Y203594D01*
X542605Y204793D01*
X546204D01*
X553402Y209592D02*
Y202394D01*
X549803D01*
X548603Y203594D01*
Y205993D01*
X549803Y207193D01*
X553402D01*
X567797Y208392D02*
X566598Y209592D01*
X564198D01*
X562999Y208392D01*
Y207193D01*
X564198Y205993D01*
X566598D01*
X567797Y204793D01*
Y203594D01*
X566598Y202394D01*
X564198D01*
X562999Y203594D01*
X570196Y209592D02*
Y202394D01*
Y205993D01*
X571396Y207193D01*
X573795D01*
X574995Y205993D01*
Y202394D01*
X578594Y207193D02*
X580993D01*
X582193Y205993D01*
Y202394D01*
X578594D01*
X577394Y203594D01*
X578594Y204793D01*
X582193D01*
X584592Y199995D02*
Y207193D01*
X588191D01*
X589390Y205993D01*
Y203594D01*
X588191Y202394D01*
X584592D01*
X595388D02*
X592989D01*
X591789Y203594D01*
Y205993D01*
X592989Y207193D01*
X595388D01*
X596588Y205993D01*
Y204793D01*
X591789D01*
X475223Y209592D02*
Y204793D01*
X477623Y202394D01*
X480022Y204793D01*
Y209592D01*
X482421Y202394D02*
X484820D01*
X483621D01*
Y207193D01*
X482421D01*
X489619D02*
X492018D01*
X493217Y205993D01*
Y202394D01*
X489619D01*
X488419Y203594D01*
X489619Y204793D01*
X493217D01*
X495617Y202394D02*
X500415Y207193D01*
X502814Y202394D02*
Y209592D01*
X506413D01*
X507613Y208392D01*
Y205993D01*
X506413Y204793D01*
X502814D01*
X511212Y207193D02*
X513611D01*
X514810Y205993D01*
Y202394D01*
X511212D01*
X510012Y203594D01*
X511212Y204793D01*
X514810D01*
X522008Y209592D02*
Y202394D01*
X518409D01*
X517210Y203594D01*
Y205993D01*
X518409Y207193D01*
X522008D01*
X356258Y209592D02*
Y202394D01*
X359857D01*
X361056Y203594D01*
Y208392D01*
X359857Y209592D01*
X356258D01*
X363456Y207193D02*
Y202394D01*
Y204793D01*
X364655Y205993D01*
X365855Y207193D01*
X367054D01*
X370653Y202394D02*
X373052D01*
X371853D01*
Y207193D01*
X370653D01*
X376651Y202394D02*
X379050D01*
X377851D01*
Y209592D01*
X376651D01*
X382649Y202394D02*
X385049D01*
X383849D01*
Y209592D01*
X382649D01*
X395845D02*
Y202394D01*
X400643D01*
X404242Y207193D02*
X406641D01*
X407841Y205993D01*
Y202394D01*
X404242D01*
X403043Y203594D01*
X404242Y204793D01*
X407841D01*
X410240Y207193D02*
Y203594D01*
X411440Y202394D01*
X415039D01*
Y201195D01*
X413839Y199995D01*
X412640D01*
X415039Y202394D02*
Y207193D01*
X421037Y202394D02*
X418638D01*
X417438Y203594D01*
Y205993D01*
X418638Y207193D01*
X421037D01*
X422236Y205993D01*
Y204793D01*
X417438D01*
X424636Y207193D02*
Y202394D01*
Y204793D01*
X425835Y205993D01*
X427035Y207193D01*
X428234D01*
X439031Y202394D02*
Y209592D01*
X442630D01*
X443829Y208392D01*
Y205993D01*
X442630Y204793D01*
X439031D01*
X447428Y207193D02*
X449827D01*
X451027Y205993D01*
Y202394D01*
X447428D01*
X446229Y203594D01*
X447428Y204793D01*
X451027D01*
X453426Y202394D02*
X455826D01*
X454626D01*
Y207193D01*
X453426D01*
X459424D02*
Y202394D01*
Y204793D01*
X460624Y205993D01*
X461824Y207193D01*
X463023D01*
X282878Y209592D02*
Y202394D01*
Y205993D01*
X287676D01*
Y209592D01*
Y202394D01*
X291275D02*
X293674D01*
X294874Y203594D01*
Y205993D01*
X293674Y207193D01*
X291275D01*
X290075Y205993D01*
Y203594D01*
X291275Y202394D01*
X297273D02*
X299672D01*
X298472D01*
Y209592D01*
X297273D01*
X306870Y202394D02*
X304471D01*
X303271Y203594D01*
Y205993D01*
X304471Y207193D01*
X306870D01*
X308069Y205993D01*
Y204793D01*
X303271D01*
X317666Y209592D02*
X322465D01*
X320065D01*
Y202394D01*
X324864Y207193D02*
Y203594D01*
X326064Y202394D01*
X329662D01*
Y201195D01*
X328463Y199995D01*
X327263D01*
X329662Y202394D02*
Y207193D01*
X332062Y199995D02*
Y207193D01*
X335661D01*
X336860Y205993D01*
Y203594D01*
X335661Y202394D01*
X332062D01*
X342858D02*
X340459D01*
X339259Y203594D01*
Y205993D01*
X340459Y207193D01*
X342858D01*
X344058Y205993D01*
Y204793D01*
X339259D01*
X232290Y202394D02*
Y209592D01*
X235889D01*
X237088Y208392D01*
Y205993D01*
X235889Y204793D01*
X232290D01*
X239488Y202394D02*
X241887D01*
X240687D01*
Y209592D01*
X239488D01*
X246685Y207193D02*
X249085D01*
X250284Y205993D01*
Y202394D01*
X246685D01*
X245486Y203594D01*
X246685Y204793D01*
X250284D01*
X253883Y208392D02*
Y207193D01*
X252683D01*
X255083D01*
X253883D01*
Y203594D01*
X255083Y202394D01*
X262280D02*
X259881D01*
X258682Y203594D01*
Y205993D01*
X259881Y207193D01*
X262280D01*
X263480Y205993D01*
Y204793D01*
X258682D01*
X270678Y209592D02*
Y202394D01*
X267079D01*
X265879Y203594D01*
Y205993D01*
X267079Y207193D01*
X270678D01*
X122322Y209592D02*
Y202394D01*
Y205993D01*
X127120D01*
Y209592D01*
Y202394D01*
X130719D02*
X133119D01*
X134318Y203594D01*
Y205993D01*
X133119Y207193D01*
X130719D01*
X129520Y205993D01*
Y203594D01*
X130719Y202394D01*
X136717D02*
X139117D01*
X137917D01*
Y209592D01*
X136717D01*
X146314Y202394D02*
X143915D01*
X142715Y203594D01*
Y205993D01*
X143915Y207193D01*
X146314D01*
X147514Y205993D01*
Y204793D01*
X142715D01*
X161909Y208392D02*
X160710Y209592D01*
X158310D01*
X157111Y208392D01*
Y207193D01*
X158310Y205993D01*
X160710D01*
X161909Y204793D01*
Y203594D01*
X160710Y202394D01*
X158310D01*
X157111Y203594D01*
X164308Y202394D02*
X166708D01*
X165508D01*
Y207193D01*
X164308D01*
X170307D02*
X175105D01*
X170307Y202394D01*
X175105D01*
X181103D02*
X178704D01*
X177504Y203594D01*
Y205993D01*
X178704Y207193D01*
X181103D01*
X182303Y205993D01*
Y204793D01*
X177504D01*
X68136Y208392D02*
X66936Y209592D01*
X64537D01*
X63338Y208392D01*
Y203594D01*
X64537Y202394D01*
X66936D01*
X68136Y203594D01*
X71735Y202394D02*
X74134D01*
X75334Y203594D01*
Y205993D01*
X74134Y207193D01*
X71735D01*
X70535Y205993D01*
Y203594D01*
X71735Y202394D01*
X77733Y207193D02*
Y203594D01*
X78932Y202394D01*
X82531D01*
Y207193D01*
X84931Y202394D02*
Y207193D01*
X88529D01*
X89729Y205993D01*
Y202394D01*
X93328Y208392D02*
Y207193D01*
X92128D01*
X94528D01*
X93328D01*
Y203594D01*
X94528Y202394D01*
X17548Y208392D02*
X16349Y209592D01*
X13950D01*
X12750Y208392D01*
Y207193D01*
X13950Y205993D01*
X16349D01*
X17548Y204793D01*
Y203594D01*
X16349Y202394D01*
X13950D01*
X12750Y203594D01*
X19948Y207193D02*
Y203594D01*
X21147Y202394D01*
X24746D01*
Y201195D01*
X23547Y199995D01*
X22347D01*
X24746Y202394D02*
Y207193D01*
X27145Y202394D02*
Y207193D01*
X28345D01*
X29545Y205993D01*
Y202394D01*
Y205993D01*
X30744Y207193D01*
X31944Y205993D01*
Y202394D01*
X34343Y209592D02*
Y202394D01*
X37942D01*
X39141Y203594D01*
Y204793D01*
Y205993D01*
X37942Y207193D01*
X34343D01*
X42740Y202394D02*
X45140D01*
X46339Y203594D01*
Y205993D01*
X45140Y207193D01*
X42740D01*
X41541Y205993D01*
Y203594D01*
X42740Y202394D01*
X48738D02*
X51138D01*
X49938D01*
Y209592D01*
X48738D01*
D75*
X116019Y78897D02*
Y72899D01*
Y75898D01*
X120018D01*
Y78897D01*
Y72899D01*
X123017D02*
X125016D01*
X126016Y73899D01*
Y75898D01*
X125016Y76898D01*
X123017D01*
X122017Y75898D01*
Y73899D01*
X123017Y72899D01*
X128015D02*
X130014D01*
X129015D01*
Y78897D01*
X128015D01*
X136012Y72899D02*
X134013D01*
X133013Y73899D01*
Y75898D01*
X134013Y76898D01*
X136012D01*
X137012Y75898D01*
Y74899D01*
X133013D01*
X145010Y78897D02*
Y72899D01*
X149008D01*
X154007D02*
X152007D01*
X151008Y73899D01*
Y75898D01*
X152007Y76898D01*
X154007D01*
X155006Y75898D01*
Y74899D01*
X151008D01*
X157006Y72899D02*
Y76898D01*
X160005D01*
X161004Y75898D01*
Y72899D01*
X165003Y70900D02*
X166003D01*
X167002Y71900D01*
Y76898D01*
X164003D01*
X163004Y75898D01*
Y73899D01*
X164003Y72899D01*
X167002D01*
X170001Y77898D02*
Y76898D01*
X169002D01*
X171001D01*
X170001D01*
Y73899D01*
X171001Y72899D01*
X174000Y78897D02*
Y72899D01*
Y75898D01*
X175000Y76898D01*
X176999D01*
X177999Y75898D01*
Y72899D01*
X116019Y82897D02*
Y88895D01*
X119018D01*
X120018Y87895D01*
Y85896D01*
X119018Y84896D01*
X116019D01*
X118018D02*
X120018Y82897D01*
X123017D02*
X125016D01*
X126016Y83896D01*
Y85896D01*
X125016Y86896D01*
X123017D01*
X122017Y85896D01*
Y83896D01*
X123017Y82897D01*
X128015Y86896D02*
Y83896D01*
X129015Y82897D01*
X132014D01*
Y86896D01*
X135013Y87895D02*
Y86896D01*
X134013D01*
X136012D01*
X135013D01*
Y83896D01*
X136012Y82897D01*
X142010D02*
X140011D01*
X139012Y83896D01*
Y85896D01*
X140011Y86896D01*
X142010D01*
X143010Y85896D01*
Y84896D01*
X139012D01*
X149008Y88895D02*
Y82897D01*
X146009D01*
X145010Y83896D01*
Y85896D01*
X146009Y86896D01*
X149008D01*
X157006Y82897D02*
Y88895D01*
X160005D01*
X161004Y87895D01*
Y85896D01*
X160005Y84896D01*
X157006D01*
X164003Y86896D02*
X166003D01*
X167002Y85896D01*
Y82897D01*
X164003D01*
X163004Y83896D01*
X164003Y84896D01*
X167002D01*
X170001Y87895D02*
Y86896D01*
X169002D01*
X171001D01*
X170001D01*
Y83896D01*
X171001Y82897D01*
X174000Y88895D02*
Y82897D01*
Y85896D01*
X175000Y86896D01*
X176999D01*
X177999Y85896D01*
Y82897D01*
X185996Y88895D02*
Y82897D01*
X189995D01*
X194993D02*
X192994D01*
X191994Y83896D01*
Y85896D01*
X192994Y86896D01*
X194993D01*
X195993Y85896D01*
Y84896D01*
X191994D01*
X197992Y82897D02*
Y86896D01*
X200992D01*
X201991Y85896D01*
Y82897D01*
X205990Y80897D02*
X206990D01*
X207989Y81897D01*
Y86896D01*
X204990D01*
X203991Y85896D01*
Y83896D01*
X204990Y82897D01*
X207989D01*
X210988Y87895D02*
Y86896D01*
X209988D01*
X211988D01*
X210988D01*
Y83896D01*
X211988Y82897D01*
X214987Y88895D02*
Y82897D01*
Y85896D01*
X215987Y86896D01*
X217986D01*
X218986Y85896D01*
Y82897D01*
X16749Y87895D02*
X15749Y88895D01*
X13750D01*
X12750Y87895D01*
Y86896D01*
X13750Y85896D01*
X15749D01*
X16749Y84896D01*
Y83896D01*
X15749Y82897D01*
X13750D01*
X12750Y83896D01*
X18748Y82897D02*
X20747D01*
X19748D01*
Y88895D01*
X18748D01*
X24746Y82897D02*
X26746D01*
X27745Y83896D01*
Y85896D01*
X26746Y86896D01*
X24746D01*
X23746Y85896D01*
Y83896D01*
X24746Y82897D01*
X30744Y87895D02*
Y86896D01*
X29744D01*
X31744D01*
X30744D01*
Y83896D01*
X31744Y82897D01*
X44740Y88895D02*
Y82897D01*
X41741D01*
X40741Y83896D01*
Y85896D01*
X41741Y86896D01*
X44740D01*
X49738Y82897D02*
X47739D01*
X46739Y83896D01*
Y85896D01*
X47739Y86896D01*
X49738D01*
X50738Y85896D01*
Y84896D01*
X46739D01*
X53737Y82897D02*
Y87895D01*
Y85896D01*
X52737D01*
X54736D01*
X53737D01*
Y87895D01*
X54736Y88895D01*
X57735Y82897D02*
X59735D01*
X58735D01*
Y86896D01*
X57735D01*
X62734Y82897D02*
Y86896D01*
X65733D01*
X66733Y85896D01*
Y82897D01*
X68732D02*
X70731D01*
X69732D01*
Y86896D01*
X68732D01*
X74730Y87895D02*
Y86896D01*
X73730D01*
X75730D01*
X74730D01*
Y83896D01*
X75730Y82897D01*
X78729D02*
X80728D01*
X79728D01*
Y86896D01*
X78729D01*
X84727Y82897D02*
X86726D01*
X87726Y83896D01*
Y85896D01*
X86726Y86896D01*
X84727D01*
X83727Y85896D01*
Y83896D01*
X84727Y82897D01*
X89725D02*
Y86896D01*
X92724D01*
X93724Y85896D01*
Y82897D01*
X95723D02*
X98722D01*
X99722Y83896D01*
X98722Y84896D01*
X96723D01*
X95723Y85896D01*
X96723Y86896D01*
X99722D01*
X107719D02*
X108719D01*
Y85896D01*
X107719D01*
Y86896D01*
Y83896D02*
X108719D01*
Y82897D01*
X107719D01*
Y83896D01*
M02*
